<?xml version="1.0" encoding="UTF-8"?>
<svg width="85px" height="85px" viewBox="0 0 85 85" version="1.1" xmlns="http://www.w3.org/2000/svg" xmlns:xlink="http://www.w3.org/1999/xlink">
    <!-- Generator: Sketch 55.2 (78181) - https://sketchapp.com -->
    <title>837</title>
    <desc>Created with Sketch.</desc>
    <g id="837" stroke="none" stroke-width="1" fill="none" fill-rule="evenodd">
        <g id="iconfinder_837_4039894" transform="translate(14.000000, 17.000000)" fill="#474747" fill-rule="nonzero">
            <g id="Group">
                <path d="M12.2827083,50.7018 C5.72689583,50.7018 0.393916667,45.405 0.393916667,38.895 C0.393916667,32.385 5.7275,27.0888 12.2827083,27.0888 C18.8379167,27.0888 24.1715,32.3856 24.1715,38.8956 C24.1715,45.4056 18.8385208,50.7018 12.2827083,50.7018 Z M12.2827083,29.2488 C6.92616667,29.2488 2.56891667,33.5766 2.56891667,38.8956 C2.56891667,44.2146 6.92616667,48.5424 12.2827083,48.5424 C17.63925,48.5424 21.9965,44.2146 21.9965,38.8956 C21.9965,33.5766 17.63925,29.2488 12.2827083,29.2488 Z" id="Shape"></path>
                <path d="M24.4186042,10.6854 L22.2695833,10.353 L22.8205833,6.846 C23.0459375,5.691 22.6810208,4.506 21.8448542,3.6756 C20.4588958,2.2998 18.2053542,2.2998 16.8193958,3.6756 C16.3795625,4.1124 16.062375,4.6566 15.9016667,5.2488 L15.8835417,5.3094 L14.8214167,8.4738 L12.7581875,7.791 L13.8106458,4.6548 C14.0728542,3.7104 14.5809583,2.844 15.2817917,2.148 C17.5153958,-0.0702 21.1494583,-0.0702 23.3830625,2.148 C24.726125,3.4818 25.3145833,5.382 24.9599375,7.236 L24.4186042,10.6854 Z" id="Path"></path>
                <path d="M23.8603542,41.5704 L21.7203958,41.1846 L23.0640625,33.8808 C23.2809583,33.177 23.4150833,32.4408 23.464625,31.692 L23.4755,31.5462 C23.4839583,31.3842 23.4881875,31.221 23.4881875,31.0572 C23.4881875,25.7382 19.1309375,21.4104 13.7743958,21.4104 C9.29933333,21.4104 5.34264583,24.528 4.321,28.8408 L4.321,29.2248 L4.22191667,29.307 C4.20077083,29.4198 4.18204167,29.529 4.16633333,29.6364 L4.1596875,29.6766 L2.90725,36.3534 L0.769104167,35.958 L2.01791667,29.2998 C2.05175,29.0748 2.09404167,28.8456 2.146,28.6014 L2.15627083,28.5534 C2.15929167,28.5408 2.16170833,28.5282 2.16472917,28.5156 L2.23420833,28.1508 L2.2565625,28.1316 C3.58633333,22.9644 8.3719375,19.251 13.7737917,19.251 C20.3296042,19.251 25.6625833,24.5478 25.6625833,31.0578 C25.6625833,31.1424 25.661375,31.227 25.6601667,31.3116 L25.7060833,31.3854 L25.6305625,31.8954 C25.5689375,32.7672 25.4118542,33.6258 25.1629375,34.4502 L23.8603542,41.5704 Z" id="Path"></path>
                <path d="M12.2827083,46.446 C8.09039583,46.446 4.679875,43.059 4.679875,38.8956 C4.679875,34.7322 8.09039583,31.3452 12.2827083,31.3452 C16.4750208,31.3452 19.8855417,34.7322 19.8855417,38.8956 C19.8855417,43.059 16.4750208,46.446 12.2827083,46.446 Z M12.2827083,33.5046 C9.28966667,33.5046 6.854875,35.9226 6.854875,38.895 C6.854875,41.8674 9.28966667,44.2854 12.2827083,44.2854 C15.27575,44.2854 17.7105418,41.8674 17.7105418,38.895 C17.7111458,35.9232 15.27575,33.5046 12.2827083,33.5046 Z" id="Shape"></path>
                <path d="M24.7563333,26.8896 L22.5952292,26.6472 L23.7207917,16.8192 C23.8349792,16.3194 23.8929792,15.8112 23.8929792,15.3072 C23.8929792,11.562 20.8250208,8.5158 17.0544167,8.5158 C14.1955,8.5158 11.6169167,10.3044 10.6327292,12.9678 C10.56325,13.1784 10.4442292,13.5588 10.4019375,13.7376 L10.3862292,13.7958 L7.4910625,23.4858 L5.40608333,22.8714 L8.29339583,13.2078 C8.37677083,12.8724 8.55197917,12.339 8.57191667,12.2772 L8.58339583,12.2442 C9.8745,8.7216 13.2789792,6.3552 17.0550208,6.3552 C22.0255,6.3552 26.0685833,10.371 26.0685833,15.3066 C26.0685833,15.951 25.9966875,16.6002 25.8559167,17.2374 L24.7563333,26.8896 Z" id="Path"></path>
            </g>
            <g id="Group" transform="translate(32.020833, 0.000000)">
                <path d="M13.814875,50.7018 C7.2590625,50.7018 1.92608333,45.405 1.92608333,38.895 C1.92608333,32.385 7.2590625,27.0882 13.814875,27.0882 C20.3706875,27.0882 25.7036667,32.385 25.7036667,38.895 C25.7036667,45.405 20.3706875,50.7018 13.814875,50.7018 Z M13.814875,29.2488 C8.45833333,29.2488 4.10108333,33.5766 4.10108333,38.8956 C4.10108333,44.2146 8.45833333,48.5424 13.814875,48.5424 C19.1714167,48.5424 23.5286667,44.2146 23.5286667,38.8956 C23.5286667,33.5766 19.1714167,29.2488 13.814875,29.2488 Z" id="Shape"></path>
                <path d="M1.67958333,10.6854 L1.13825,7.236 C0.784208333,5.382 1.37266667,3.4818 2.715125,2.1486 C4.94872917,-0.0696 8.5821875,-0.0696 10.8157917,2.1486 C11.5172292,2.8452 12.0253333,3.711 12.2875417,4.6554 L13.34,7.7916 L11.2767708,8.4744 L10.1965208,5.2494 C10.0358125,4.6572 9.718625,4.113 9.2781875,3.6762 C7.89222917,2.2998 5.63808333,2.3004 4.25272917,3.6762 C3.41716667,4.5066 3.05225,5.6916 3.277,6.8466 L3.28364583,6.8856 L3.828,10.3536 L1.67958333,10.6854 Z" id="Path"></path>
                <path d="M2.23783333,41.5704 L0.93525,34.4502 C0.686333333,33.6252 0.529854167,32.7666 0.468229167,31.8954 L0.3788125,31.4064 L0.438625,31.3104 C0.4368125,31.2264 0.436208333,31.1418 0.436208333,31.0578 C0.436208333,24.5478 5.7691875,19.251 12.325,19.251 C17.7631042,19.251 22.5765,23.0142 23.8688125,28.2354 L23.8845208,28.2552 L23.9533958,28.6032 C24.0035417,28.8354 24.0464375,29.0688 24.0814792,29.301 L25.3302917,35.9592 L23.1921458,36.3546 L21.9330625,29.637 C21.9113125,29.4924 21.8859375,29.346 21.8557292,29.1942 L21.779,29.0994 L21.779,28.8426 C20.7573542,24.5298 16.8006667,21.4116 12.3256042,21.4116 C6.9690625,21.4116 2.6118125,25.7394 2.6118125,31.0584 C2.6118125,31.2222 2.61604167,31.3854 2.6245,31.5474 L2.635375,31.6932 C2.6843125,32.4414 2.81904167,33.1782 3.03533333,33.882 L3.06554167,34.0044 L4.379,41.1852 L2.23783333,41.5704 Z" id="Path"></path>
                <path d="M13.814875,46.446 C9.6225625,46.446 6.21204167,43.059 6.21204167,38.8956 C6.21204167,34.7322 9.6225625,31.3452 13.814875,31.3452 C18.0071875,31.3452 21.4177083,34.7322 21.4177083,38.8956 C21.4177083,43.059 18.0071875,46.446 13.814875,46.446 Z M13.814875,33.5046 C10.8218333,33.5046 8.38704167,35.9226 8.38704167,38.895 C8.38704167,41.8674 10.8218333,44.2854 13.814875,44.2854 C16.8079167,44.2854 19.2427084,41.8674 19.2427084,38.895 C19.2433125,35.9232 16.8079167,33.5046 13.814875,33.5046 Z" id="Shape"></path>
                <path d="M1.34185417,26.8896 L0.242875,17.2374 C0.1015,16.5996 0.0302083333,15.9504 0.0302083333,15.3072 C0.0302083333,10.371 4.07389583,6.3558 9.04377083,6.3558 C12.8198125,6.3558 16.2242917,8.7228 17.516,12.2448 L17.5274792,12.2778 C17.5480208,12.3396 17.7232292,12.873 17.806,13.2084 L20.6933125,22.872 L18.6083333,23.4864 L15.6974583,13.7376 C15.6551667,13.5588 15.5355417,13.1784 15.4666667,12.9678 C14.4824792,10.3044 11.9038958,8.5158 9.044375,8.5158 C5.27316667,8.5158 2.2058125,11.5626 2.2058125,15.3072 C2.2058125,15.81 2.2638125,16.3188 2.378,16.8198 L2.3979375,16.9374 L3.5035625,26.6472 L1.34185417,26.8896 Z" id="Path"></path>
            </g>
            <path d="M32.3797083,16.0806 C31.1991667,14.9388 30.0059375,14.3904 28.8386875,14.4522 C27.0781458,14.5446 25.8299375,15.9822 25.8178542,15.9966 L24.1443125,14.6172 C24.218625,14.5284 25.994875,12.4386 28.7238958,12.2952 C30.5218958,12.201 32.2649167,12.9534 33.8979792,14.5332 L32.3797083,16.0806 Z" id="Path"></path>
            <path d="M29.0592083,41.709 C25.6547292,41.709 22.8852292,38.9586 22.8852292,35.5776 C22.8852292,32.1966 25.6547292,29.4462 29.0592083,29.4462 C32.4636875,29.4462 35.2331875,32.1966 35.2331875,35.5776 C35.2331875,38.9586 32.4636875,41.709 29.0592083,41.709 Z M29.0592083,31.6062 C26.854,31.6062 25.0602292,33.3876 25.0602292,35.5776 C25.0602292,37.767 26.854,39.549 29.0592083,39.549 C31.2644167,39.549 33.0581875,37.7676 33.0581875,35.5776 C33.0581875,33.3876 31.2644167,31.6062 29.0592083,31.6062 Z" id="Shape"></path>
        </g>
    </g>
</svg>