<?xml version="1.0" encoding="UTF-8"?>
<svg width="85px" height="85px" viewBox="0 0 85 85" version="1.1" xmlns="http://www.w3.org/2000/svg" xmlns:xlink="http://www.w3.org/1999/xlink">
    <!-- Generator: Sketch 55.2 (78181) - https://sketchapp.com -->
    <title>Aircraft</title>
    <desc>Created with Sketch.</desc>
    <g id="Aircraft" stroke="none" stroke-width="1" fill="none" fill-rule="evenodd">
        <g id="iconfinder_Aircraft_carrier_4864335-Copy" transform="translate(3.000000, 12.000000)" fill="#000000" fill-rule="nonzero">
            <path d="M22.557472,52.0212013 C19.91304,52.0212013 17.199432,50.8113626 14.68156,49.6898616 C10.070312,47.636128 6.089512,45.8647442 2.339824,49.6456928 C1.80528,50.1835763 0.941352,50.1867307 0.403664,49.6504283 C-0.132456,49.1156991 -0.134816,48.2465695 0.39816,47.7086859 C5.477928,42.5869734 11.197568,45.1328486 15.792312,47.1802654 C20.460944,49.2592337 23.458336,50.3965145 26.13972,47.7055316 C26.674272,47.1692292 27.53976,47.1692292 28.07588,47.7055316 C28.610424,48.2418339 28.610424,49.1125447 28.075096,49.6488471 C26.337824,51.3918338 24.465336,52.0212013 22.557472,52.0212013 Z" id="Path"></path>
            <path d="M48.3234,52.0196297 C45.674248,52.0212013 42.96064,50.8113626 40.441984,49.6898616 C35.830736,47.636128 31.849936,45.8663174 28.07588,49.6488471 C27.53976,50.1851495 26.675056,50.1851495 26.138936,49.6488471 C25.604392,49.1125447 25.604392,48.2418339 26.138936,47.7055316 C31.24228,42.5869734 36.958784,45.1344217 41.552744,47.1786922 C46.227664,49.262388 49.227416,50.3965145 51.926872,47.7023772 C52.464568,47.1660749 53.332416,47.1723836 53.863816,47.7086859 C54.396792,48.2465695 54.393648,49.1172803 53.857528,49.6520014 C52.110824,51.3918338 50.233624,52.0196297 48.3234,52.0196297 Z" id="Path"></path>
            <path d="M74.08068,52.0212013 C71.436248,52.0212013 68.722632,50.8113626 66.203984,49.6898616 C61.59588,47.6377012 57.616648,45.8584355 53.862248,49.6456928 C53.330848,50.1819951 52.464568,50.1867307 51.926872,49.6504283 C51.39076,49.1156991 51.387608,48.2465695 51.922152,47.7086859 C57.000344,42.5869734 62.719992,45.1344217 67.31552,47.1802654 C71.984944,49.2576605 74.98312,50.3949413 77.662136,47.7055316 C78.19668,47.1692292 79.064536,47.1692292 79.59908,47.7055316 C80.133624,48.2418339 80.133624,49.1125447 79.59908,49.6488471 C77.86024,51.3918338 75.98776,52.0212013 74.08068,52.0212013 Z" id="Path"></path>
            <path d="M22.56612,60.6667554 C19.918544,60.6667554 17.199432,59.4600711 14.676056,58.338562 L13.691072,57.9032146 C12.99852,57.6003576 12.680936,56.7911686 12.9828,56.0955518 C13.284664,55.4015083 14.088056,55.0765709 14.78532,55.3857366 L15.784448,55.8273926 C20.46252,57.9047878 23.4662,59.0436417 26.138928,56.3589675 C26.675048,55.8226651 27.540536,55.8226651 28.075088,56.3589675 C28.610424,56.8952699 28.610424,57.7659807 28.075088,58.302283 C26.34332,60.0405342 24.473192,60.6667554 22.56612,60.6667554 Z" id="Path"></path>
            <path d="M48.3234,60.6730656 C45.674248,60.6746453 42.96064,59.4648066 40.441984,58.3432975 C35.830736,56.2895639 31.849936,54.5181801 28.07588,58.3022911 C27.53976,58.8385934 26.675056,58.8385934 26.138936,58.3022911 C25.604392,57.7659887 25.604392,56.8952779 26.138936,56.3589755 C31.24228,51.2419986 36.958784,53.7878657 41.552744,55.8321362 C46.227664,57.91584 49.227416,59.0499664 51.926872,56.3558292 C52.464568,55.8211 53.332416,55.8258355 53.863816,56.3621379 C54.396792,56.9000214 54.393648,57.7707322 53.857528,58.3054534 C52.110824,60.0452697 50.233624,60.6730656 48.3234,60.6730656 Z" id="Path"></path>
            <path d="M52.892208,58.7045138 C52.5416,58.7045138 52.191008,58.5704342 51.923736,58.302283 C51.389192,57.7659807 51.389192,56.8952699 51.923736,56.3589675 C56.93904,51.3318933 62.573792,53.7705047 66.30304,55.3825822 C66.997952,55.683858 67.317104,56.4930471 67.018392,57.1886638 C66.716528,57.8858617 65.905272,58.2029172 65.218224,57.9063689 C60.877392,56.0261483 57.28492,54.8620516 53.86068,58.3022911 C53.5934,58.5704342 53.2428,58.7045138 52.892208,58.7045138 Z" id="Path"></path>
            <path d="M66.674072,44.8773067 C66.296744,44.8773067 65.920992,44.7211467 65.650568,44.4167166 C65.14904,43.8488628 65.199352,42.9813143 65.763768,42.4765554 L73.387344,35.6749511 L4.629728,35.6749511 L5.731048,42.2699259 C5.85604,43.0176013 5.352152,43.7258354 4.606928,43.8520251 C3.85856,43.9797961 3.155792,43.4734559 3.030016,42.7242154 L1.661424,34.5281992 C1.595392,34.1291228 1.707016,33.7221645 1.967216,33.4137934 C2.227416,33.1054143 2.609456,32.9271739 3.011944,32.9271739 L76.98768,32.9271739 C77.556816,32.9271739 78.06464,33.2797218 78.267448,33.8120753 C78.468696,34.3452233 78.32248,34.9477749 77.897984,35.3279253 L67.584368,44.5302809 C67.323392,44.7621612 66.997944,44.8773067 66.674072,44.8773067 Z" id="Path"></path>
            <path d="M70.598272,40.8487142 L26.194752,40.8487142 C25.438528,40.8487142 24.825368,40.2335372 24.825368,39.4748257 C24.825368,38.7161141 25.438528,38.1009371 26.194752,38.1009371 L70.598272,38.1009371 C71.354496,38.1009371 71.967648,38.7161141 71.967648,39.4748257 C71.967648,40.2335372 71.354496,40.8487142 70.598272,40.8487142 Z" id="Path"></path>
            <path d="M34.639016,35.6749591 C34.158712,35.6749591 33.692552,35.4209904 33.441784,34.9714445 L29.041992,27.0664705 L8.80784,27.0664705 L8.80784,34.3010705 C8.80784,35.0597821 8.19468,35.6749591 7.438456,35.6749591 C6.682232,35.6749591 6.069072,35.0597821 6.069072,34.3010705 L6.069072,25.692582 C6.069072,24.9338704 6.682232,24.3186934 7.438456,24.3186934 L29.845392,24.3186934 C30.341416,24.3186934 30.798928,24.5884258 31.041048,25.0229866 L35.833096,33.6314671 C36.201776,34.2931726 35.96516,35.1307588 35.30484,35.499857 C35.093376,35.6181649 34.864624,35.6749591 34.639016,35.6749591 Z" id="Path"></path>
            <path d="M25.966784,35.6749511 C25.21056,35.6749511 24.5974,35.0597741 24.5974,34.3010625 L24.5974,17.8175703 C24.5974,17.0588587 25.21056,16.4436817 25.966784,16.4436817 C26.723008,16.4436817 27.336168,17.0588587 27.336168,17.8175703 L27.336168,34.3010625 C27.336168,35.0597741 26.723008,35.6749511 25.966784,35.6749511 Z" id="Path"></path>
            <path d="M10.13084,27.0664625 C9.374616,27.0664625 8.761456,26.4512855 8.761456,25.6925739 L8.761456,17.8175622 C8.761456,17.0588507 9.374616,16.4436737 10.13084,16.4436737 L28.795944,16.4436737 C29.552168,16.4436737 30.165328,17.0588507 30.165328,17.8175622 C30.165328,18.5762818 29.552168,19.1914508 28.795944,19.1914508 L11.500224,19.1914508 L11.500224,25.6925659 C11.500224,26.4512936 10.887064,27.0664625 10.13084,27.0664625 Z" id="Path"></path>
            <path d="M15.150864,19.1914588 C14.39464,19.1914588 13.78148,18.5762818 13.78148,17.8175703 L13.78148,9.89682461 C13.78148,9.13811303 14.39464,8.52293605 15.150864,8.52293605 C15.907088,8.52293605 16.520248,9.13811303 16.520248,9.89682461 L16.520248,17.8175703 C16.520248,18.5762899 15.907088,19.1914588 15.150864,19.1914588 Z" id="Path"></path>
            <path d="M22.406544,19.1914588 C21.65032,19.1914588 21.03716,18.5762818 21.03716,17.8175703 L21.03716,9.89682461 C21.03716,9.13811303 21.65032,8.52293605 22.406544,8.52293605 C23.162768,8.52293605 23.775928,9.13811303 23.775928,9.89682461 L23.775928,17.8175703 C23.775928,18.5762899 23.162768,19.1914588 22.406544,19.1914588 Z" id="Path"></path>
            <path d="M22.406544,11.2707051 L15.150864,11.2707051 C14.39464,11.2707051 13.78148,10.6555282 13.78148,9.89681658 C13.78148,9.138105 14.39464,8.52292803 15.150864,8.52292803 L22.406544,8.52292803 C23.162768,8.52292803 23.775928,9.138105 23.775928,9.89681658 C23.775928,10.6555362 23.162768,11.2707051 22.406544,11.2707051 Z" id="Path"></path>
            <path d="M18.801496,11.2707051 C18.045272,11.2707051 17.432112,10.6555282 17.432112,9.89681658 L17.432112,1.70082447 C17.432112,0.942112895 18.045272,0.326935921 18.801496,0.326935921 C19.55772,0.326935921 20.17088,0.942112895 20.17088,1.70082447 L20.17088,9.89682461 C20.17088,10.6555362 19.557728,11.2707051 18.801496,11.2707051 Z" id="Path"></path>
            <path d="M22.360952,3.074705 L15.242048,3.074705 C14.485824,3.074705 13.872664,2.45952803 13.872664,1.70081645 C13.872664,0.942104868 14.485824,0.326927895 15.242048,0.326927895 L22.360952,0.326927895 C23.117176,0.326927895 23.730336,0.942104868 23.730336,1.70081645 C23.730336,2.45953605 23.117176,3.074705 22.360952,3.074705 Z" id="Path"></path>
            <path d="M10.678752,31.3703095 L7.438456,31.3703095 C6.682232,31.3703095 6.069072,30.7551325 6.069072,29.9964209 C6.069072,29.2377093 6.682232,28.6225324 7.438456,28.6225324 L10.678752,28.6225324 C11.434976,28.6225324 12.048136,29.2377093 12.048136,29.9964209 C12.048136,30.7551405 11.434976,31.3703095 10.678752,31.3703095 Z" id="Path"></path>
            <path d="M12.868824,23.1293539 L10.130848,23.1293539 C9.374624,23.1293539 8.761464,22.514177 8.761464,21.7554654 C8.761464,20.9967538 9.374624,20.3815768 10.130848,20.3815768 L12.868824,20.3815768 C13.625048,20.3815768 14.238208,20.9967538 14.238208,21.7554654 C14.238208,22.514177 13.625048,23.1293539 12.868824,23.1293539 Z" id="Path"></path>
            <path d="M72.378,31.599822 L62.155576,31.599822 C61.399352,31.599822 60.7862,30.984645 60.7862,30.2259334 C60.7862,29.4672218 61.399352,28.8520449 62.155576,28.8520449 L72.378,28.8520449 C73.134224,28.8520449 73.747376,29.4672218 73.747376,30.2259334 C73.747376,30.984645 73.134224,31.599822 72.378,31.599822 Z" id="Path"></path>
            <path d="M62.155576,31.599822 C61.625752,31.599822 61.119496,31.2882886 60.897816,30.7669713 L59.938776,28.5231666 C59.640064,27.8259687 59.96236,27.0183608 60.657272,26.7194447 C61.350616,26.4244776 62.157152,26.7423197 62.454296,27.4410908 L63.413336,29.6848955 C63.712056,30.3820934 63.389752,31.1897013 62.69484,31.4886174 C62.51876,31.5643296 62.336384,31.599822 62.155576,31.599822 Z" id="Path"></path>
            <path d="M68.54656,31.599822 C68.117352,31.599822 67.696,31.39792 67.428728,31.020932 L64.4164,26.762827 C63.979336,26.1444957 64.123976,25.2864103 64.74028,24.8479005 C65.356576,24.407023 66.21028,24.5545066 66.64892,25.1728379 L69.661248,29.4309429 C70.098312,30.0492742 69.953672,30.9073596 69.337376,31.3458693 C69.096824,31.5170064 68.82012,31.599822 68.54656,31.599822 Z" id="Path"></path>
            <path d="M54.580744,31.599822 L44.358328,31.599822 C43.602104,31.599822 42.988944,30.984645 42.988944,30.2259334 C42.988944,29.4672218 43.602104,28.8520449 44.358328,28.8520449 L54.580744,28.8520449 C55.336968,28.8520449 55.95012,29.4672218 55.95012,30.2259334 C55.95012,30.984645 55.336968,31.599822 54.580744,31.599822 Z" id="Path"></path>
            <path d="M44.358328,31.599822 C43.828496,31.599822 43.322248,31.2882886 43.100568,30.7669713 L42.141528,28.5231666 C41.842816,27.8259687 42.165112,27.0183608 42.860024,26.7194447 C43.55336,26.4244776 44.359896,26.7423197 44.657048,27.4410908 L45.616088,29.6848955 C45.9148,30.3820934 45.592504,31.1897013 44.897592,31.4886174 C44.721504,31.5643296 44.539128,31.599822 44.358328,31.599822 Z" id="Path"></path>
            <path d="M50.747728,31.599822 C50.31852,31.599822 49.897168,31.39792 49.629896,31.020932 L46.619144,26.762827 C46.180496,26.1437091 46.326712,25.2864103 46.943016,24.8479005 C47.55932,24.407023 48.413024,24.5545066 48.851664,25.1728379 L51.862416,29.4309429 C52.301056,30.0500608 52.154848,30.9073596 51.538544,31.3458693 C51.298,31.5170064 51.021288,31.599822 50.747728,31.599822 Z" id="Path"></path>
        </g>
    </g>
</svg>