<?xml version="1.0" encoding="UTF-8"?>
<svg width="85px" height="85px" viewBox="0 0 85 85" version="1.1" xmlns="http://www.w3.org/2000/svg" xmlns:xlink="http://www.w3.org/1999/xlink">
    <!-- Generator: Sketch 55.2 (78181) - https://sketchapp.com -->
    <title>animal5</title>
    <desc>Created with Sketch.</desc>
    <g id="animal5" stroke="none" stroke-width="1" fill="none" fill-rule="evenodd">
        <g id="iconfinder_animal-animals-pet-wild-wildlife_12_1477502" transform="translate(12.000000, 12.000000)">
            <path d="M6.05238095,23.2746032 C5.01904762,23.2746032 4.18253968,24.1111111 4.18253968,25.1444444 C4.18253968,26.1777778 5.01904762,27.0142857 6.05238095,27.0142857 C7.08571429,27.0142857 7.92222222,26.1777778 7.92222222,25.1444444 C7.92222222,24.1603175 7.08571429,23.2746032 6.05238095,23.2746032 L6.05238095,23.2746032 Z M5.26507937,28.5888889 C3.73968254,28.1952381 2.55873016,26.8174603 2.55873016,25.1444444 C2.55873016,23.4714286 3.69047619,22.0936508 5.26507937,21.7 L5.26507937,11.8587302 C5.26507937,11.415873 5.65873016,11.0222222 6.1015873,11.0222222 C6.54444444,11.0222222 6.93809524,11.415873 6.93809524,11.8587302 L6.93809524,21.7 C8.46349206,22.0936508 9.64444444,23.4714286 9.64444444,25.1444444 C9.64444444,26.8174603 8.51269841,28.1952381 6.93809524,28.5888889 L6.93809524,31.8365079 C6.93809524,33.8539683 8.61111111,35.5269841 10.6285714,35.5269841 C12.6460317,35.5269841 14.3190476,33.8539683 14.3190476,31.8365079 C14.3190476,31.3936508 14.6634921,31 15.1555556,31 C15.5984127,31 15.9920635,31.3936508 15.9920635,31.8365079 C15.9920635,34.7888889 13.5809524,37.1507937 10.6777778,37.1507937 C7.72539683,37.1507937 5.36349206,34.7396825 5.36349206,31.8365079 L5.36349206,28.5888889 L5.26507937,28.5888889 Z M49.4031746,37.6920635 C49.452381,38.0857143 49.5015873,38.4793651 49.5015873,38.9222222 C49.5015873,39.315873 49.452381,39.7095238 49.4031746,40.0539683 C51.0761905,41.9730159 54.0285714,45.3190476 57.4238095,48.7634921 L57.4238095,29.031746 C54.0285714,32.4761905 51.0761905,35.7730159 49.4031746,37.6920635 L49.4031746,37.6920635 Z M32.2301587,28.7857143 C34.1492063,31.4428571 35.3301587,34.9857143 35.3301587,38.8730159 C35.3301587,42.7603175 34.1492063,46.3031746 32.2301587,48.9603175 C32.5746032,48.9603175 32.9190476,48.9603175 33.2634921,48.9603175 C41.284127,48.9603175 47.8285714,44.4333333 47.8285714,38.8238095 C47.8285714,33.2634921 41.284127,28.6873016 33.2634921,28.6873016 C32.9190476,28.7857143 32.5746032,28.7857143 32.2301587,28.7857143 L32.2301587,28.7857143 Z M30.3111111,48.8126984 C32.3777778,46.352381 33.6571429,42.8095238 33.6571429,38.8730159 C33.6571429,34.9365079 32.3777778,31.3936508 30.3111111,28.9333333 C23.7174603,29.9666667 18.6984127,34.0507937 18.6984127,38.9222222 C18.6984127,41.5793651 20.1746032,44.0888889 22.831746,46.0079365 C24.947619,47.4349206 27.5063492,48.4190476 30.3111111,48.8126984 L30.3111111,48.8126984 Z M23.5698413,53.8809524 C23.1269841,53.8809524 22.7333333,53.5365079 22.7333333,53.0444444 C22.7333333,52.6015873 23.0777778,52.2079365 23.5698413,52.2079365 C25.4888889,52.2079365 27.3095238,51.4698413 28.884127,50.2396825 C26.2761905,49.6984127 23.9142857,48.7142857 21.9460317,47.3365079 C18.7968254,45.1222222 17.0746032,42.1206349 17.0746032,38.9222222 C17.0746032,33.5587302 22.0936508,28.9825397 28.884127,27.6047619 C27.3587302,26.3253968 25.5380952,25.6365079 23.5698413,25.6365079 C23.1269841,25.6365079 22.7333333,25.2920635 22.7333333,24.8 C22.7333333,24.3571429 23.0777778,23.9634921 23.5698413,23.9634921 C26.3746032,23.9634921 28.9333333,25.1936508 30.9507937,27.2603175 C31.6888889,27.1619048 32.4761905,27.1619048 33.2634921,27.1619048 C40.6936508,27.1619048 46.9920635,30.852381 48.8619048,35.8222222 C50.8793651,33.5095238 54.1269841,29.9666667 57.6206349,26.4730159 C57.8666667,26.2269841 58.2111111,26.1777778 58.5063492,26.2761905 C58.8015873,26.4238095 58.9984127,26.7190476 58.9984127,27.0142857 L58.9984127,50.7809524 C58.9984127,51.1253968 58.8015873,51.4206349 58.5063492,51.5190476 C58.4079365,51.568254 58.3095238,51.568254 58.2111111,51.568254 C58.0142857,51.568254 57.768254,51.4698413 57.6206349,51.3222222 C54.1269841,47.8285714 50.9285714,44.2365079 48.8619048,41.9238095 C47.0412698,46.9920635 40.7428571,50.6825397 33.2634921,50.6825397 C32.4761905,50.6825397 31.6888889,50.6333333 30.9507937,50.584127 C28.9333333,52.6507937 26.3746032,53.8809524 23.5698413,53.8809524 L23.5698413,53.8809524 Z M23.5698413,35.0349206 C23.5698413,34.1 24.3079365,33.3126984 25.2920635,33.3126984 C26.2269841,33.3126984 27.0142857,34.1 27.0142857,35.0349206 C27.0142857,35.9698413 26.2761905,36.7571429 25.2920635,36.7571429 C24.3571429,36.7571429 23.5698413,36.0190476 23.5698413,35.0349206 L23.5698413,35.0349206 Z" id="Shape" fill="#000000" fill-rule="nonzero"></path>
            <rect id="_x3C_Slice_x3E__59_" x="0" y="0" width="62" height="62"></rect>
        </g>
    </g>
</svg>