<?xml version="1.0" encoding="UTF-8"?>
<svg width="85px" height="85px" viewBox="0 0 85 85" version="1.1" xmlns="http://www.w3.org/2000/svg" xmlns:xlink="http://www.w3.org/1999/xlink">
    <!-- Generator: Sketch 55.2 (78181) - https://sketchapp.com -->
    <title>animal6</title>
    <desc>Created with Sketch.</desc>
    <g id="animal6" stroke="none" stroke-width="1" fill="none" fill-rule="evenodd">
        <g id="iconfinder_whale-zoo-animals-wildlife-animal_3596519" transform="translate(13.000000, 17.000000)" fill="#000000" fill-rule="nonzero">
            <path d="M51,17 L46,17 L46,11 C46,9.34314575 47.3431458,8 49,8 C49.5522847,8 50,7.55228475 50,7 C50,6.44771525 49.5522847,6 49,6 C47.4200479,6.00443366 45.9358543,6.75803299 45,8.031 C44.0641457,6.75803299 42.5799521,6.00443366 41,6 C40.4477153,6 40,6.44771525 40,7 C40,7.55228475 40.4477153,8 41,8 C42.6568542,8 44,9.34314575 44,11 L44,17 L24,17 C18.8668479,16.9935768 14.5697703,13.106773 14.05,8 L16,8 C18.209139,8 20,6.209139 20,4 L20,1 C20,0.44771525 19.5522847,0 19,0 L15,0 C12.988265,0.000805646782 11.110813,1.00974835 10,2.687 C8.88918704,1.00974835 7.01173504,0.000805646782 5,0 L1,0 C0.44771525,0 0,0.44771525 0,1 L0,4 C0,6.209139 1.790861,8 4,8 L6,8 L6,21.8 C5.99724263,33.0777891 14.4621568,42.5601457 25.668,43.832 L23.845,48.705 C23.6514593,49.2222135 23.9138093,49.7983985 24.431,49.992 C29.0862033,51.7337653 34.2719909,49.372112 36.014,44.717 L36.282,44 L51,44 C55.9682782,43.9944889 59.9944889,39.9682782 60,35 L60,26 C59.9944889,21.0317218 55.9682782,17.0055111 51,17 Z M39.275,36 L45.941,36 C45.7192185,38.4044247 44.4424141,40.5866393 42.455,41.958 C42.437,41.969 42.428,41.988 42.412,42 L37.03,42 L39.275,36 Z M49.941,36 C49.7192185,38.4044247 48.4424141,40.5866393 46.455,41.958 C46.437,41.969 46.428,41.988 46.412,42 L45.422,42 C46.8718412,40.3148239 47.7530043,38.2151502 47.94,36 L49.941,36 Z M53.941,36 C53.7254754,38.4401421 52.4093881,40.6489599 50.366,42 L49.424,42 C50.8738412,40.3148239 51.7550043,38.2151502 51.942,36 L53.941,36 Z M53.971,41.33 C55.1011242,39.7663094 55.7813987,37.9229626 55.938,36 L57.92,36 C57.5805316,38.3269727 56.0967476,40.3286353 53.969,41.33 L53.971,41.33 Z M58,34 L39,34 C38.9299957,34.0063679 38.8609096,34.0204534 38.794,34.042 C38.3131598,33.9290241 37.8226875,34.1881335 37.645,34.649 L34.145,44.016 C32.9220704,47.2741053 29.4932632,49.1409572 26.093,48.4 L30.974,35.355 C31.1533319,34.8415603 30.8894515,34.2789342 30.3800105,34.0885398 C29.8705694,33.8981454 29.3023678,34.1497959 29.101,34.655 L26.392,41.9 C15.978685,40.9789489 7.99511015,32.2539677 8,21.8 L8,7 C8,6.44771525 7.55228475,6 7,6 L4,6 C2.8954305,6 2,5.1045695 2,4 L2,2 L5,2 C7.209139,2 9,3.790861 9,6 C9,6.55228475 9.44771525,7 10,7 C10.5522847,7 11,6.55228475 11,6 C11,3.790861 12.790861,2 15,2 L18,2 L18,4 C18,5.1045695 17.1045695,6 16,6 L13,6 C12.4477153,6 12,6.44771525 12,7 C12.0071648,13.624447 17.375553,18.9928352 24,19 L51,19 C54.8641657,19.0044086 57.9955914,22.1358343 58,26 L58,34 Z" id="Shape"></path>
            <path d="M51.62,26.08 C51.4988607,26.1307291 51.3872607,26.2017473 51.29,26.29 C51.1072663,26.4816338 51.0036835,26.735233 51,27 C51.00158,27.1306773 51.028759,27.2597777 51.08,27.38 C51.1309694,27.5010136 51.201963,27.6125749 51.29,27.71 C51.3872607,27.7982527 51.4988607,27.8692709 51.62,27.92 C51.8620922,28.0267285 52.1379078,28.0267285 52.38,27.92 C52.5011393,27.8692709 52.6127393,27.7982527 52.71,27.71 C52.798037,27.6125749 52.8690306,27.5010136 52.92,27.38 C52.971241,27.2597777 52.99842,27.1306773 53,27 C52.9963165,26.735233 52.8927337,26.4816338 52.71,26.29 C52.4224393,26.0062554 51.9923971,25.9234033 51.62,26.08 Z" id="Path"></path>
        </g>
    </g>
</svg>