<?xml version="1.0" encoding="UTF-8"?>
<svg width="85px" height="85px" viewBox="0 0 85 85" version="1.1" xmlns="http://www.w3.org/2000/svg" xmlns:xlink="http://www.w3.org/1999/xlink">
    <!-- Generator: Sketch 55.2 (78181) - https://sketchapp.com -->
    <title>animal7</title>
    <desc>Created with Sketch.</desc>
    <g id="animal7" stroke="none" stroke-width="1" fill="none" fill-rule="evenodd">
        <g id="iconfinder_1141_3000760" transform="translate(18.000000, 18.000000)" fill="#474747" fill-rule="nonzero">
            <path d="M45.2730114,49.7352273 C44.5690341,49.7352273 44.0522727,49.3139205 43.8028409,48.9173295 L43.7338068,48.8079545 L43.6894886,48.6863636 C41.5846591,42.9110795 38.3994318,39.003125 34.221875,37.0704545 C29.8079545,35.028125 24.3960227,35.1678977 18.1369318,37.4857955 C17.9357955,37.5602273 17.7786932,37.6181818 17.6701705,37.6542614 L16.9022727,35.35 C16.9934659,35.3196023 17.1247159,35.2704545 17.29375,35.2079545 C24.18125,32.6576705 30.2198864,32.5423295 35.2420455,34.8661932 C39.7065341,36.9318182 43.1482955,40.8744318 45.4855114,46.5948864 C47.6230114,42.8377841 49.5426136,35.3571023 40.79375,25.2088068 C38.1440341,21.9948864 39.4707386,19.1082386 40.5693182,17.9903409 C40.6678977,17.8738636 41.209375,17.2178977 41.653125,16.3127841 C40.7622159,17.1909091 39.6301136,17.8661932 38.6607955,18.2684659 C37.0505682,18.9372159 35.6042614,19.0130682 34.5769886,18.4849432 C34.3068182,18.36875 33.3130682,17.915625 32.6767045,17.2792614 C32.0403409,16.6428977 31.5872159,15.6491477 31.4707386,15.3786932 C30.9431818,14.3517045 31.0190341,12.9053977 31.6872159,11.2951705 C32.0877841,10.3298295 32.7588068,9.20369318 33.63125,8.31448864 C32.7318182,8.75596591 32.0795455,9.29005682 31.9650568,9.38664773 C30.846875,10.4852273 27.9605114,11.8113636 24.7676136,9.17897727 C14.5994318,0.414204545 7.11846591,2.33238636 3.36079545,4.47017045 C9.08125,6.80710227 13.0238636,10.2488636 15.0894886,14.7136364 C17.4127841,19.7357955 17.2977273,25.7744318 14.7474432,32.6619318 C14.6849432,32.8306818 14.6357955,32.9622159 14.6053977,33.053125 C14.2303977,34.178125 14.8928977,34.9306818 14.9696023,35.0127841 L13.2386364,36.7167614 C12.5659091,36.0440341 11.6116477,34.3536932 12.3011364,32.2852273 C12.3372159,32.1767045 12.3951705,32.0196023 12.4696023,31.8184659 C14.7872159,25.5590909 14.9269886,20.1474432 12.8849432,15.7332386 C10.9522727,11.5559659 7.04403409,8.37073864 1.26903409,6.265625 L1.14744318,6.22130682 L1.03778409,6.15227273 C0.638920455,5.90113636 0.214772727,5.37954545 0.22011947,4.66875 C0.225852273,3.91022727 0.709659091,3.23323864 1.65795455,2.65596591 L1.72159091,2.61704545 C2.64005682,2.05568182 5.43522727,0.347159091 9.75965909,0.239772727 C15.1505682,0.103125 20.7264205,2.48863636 26.3329545,7.321875 C28.6545455,9.23522727 30.2085227,7.70909091 30.2732955,7.64318182 L30.3284091,7.590625 C30.5005682,7.43664773 34.5914773,3.84573864 38.5636364,5.88948864 L38.7127841,5.96619318 L38.8355114,6.08039773 C39.1886364,6.40909091 39.3369318,6.91306818 39.2224432,7.39573864 C39.0005682,8.33068182 37.9815341,8.80625 36.5193182,9.23267045 C35.6457386,9.4875 34.5332386,10.7741477 33.9306818,12.2258523 C33.5107955,13.2375 33.4829545,13.9971591 33.6346591,14.2747159 L33.6920455,14.3948864 C33.8289773,14.7238636 34.1383523,15.3053977 34.3940341,15.5610795 C34.6761364,15.8431818 35.3130682,16.1616477 35.5605114,16.2633523 L35.6803977,16.3204545 C35.9582386,16.471875 36.7178977,16.4440341 37.7298295,16.0244318 C39.18125,15.4221591 40.4681818,14.3090909 40.7227273,13.4357955 C41.1491477,11.9738636 41.6247159,10.9545455 42.559375,10.7326705 C43.0428977,10.6181818 43.5460227,10.7664773 43.8747159,11.1193182 L43.9889205,11.2420455 L44.065625,11.3911932 C46.1099432,15.3642045 42.5181818,19.4542614 42.3642045,19.6264205 L42.3116477,19.6815341 C42.0576705,19.9460227 40.8289773,21.4326705 42.6505682,23.6423295 C47.4664773,29.2284091 49.8491477,34.8045455 49.7153409,40.1954545 C49.6079545,44.5198864 47.8994318,47.3147727 47.3377841,48.2332386 L47.2991477,48.2965909 C46.721875,49.2448864 46.0446023,49.7286932 45.2860795,49.734375 C45.2818182,49.7352273 45.2775568,49.7352273 45.2730114,49.7352273 Z" id="Path"></path>
            <path d="M1.934375,48.8539773 C1.55539773,48.8539773 1.19147727,48.8167614 0.845738636,48.7392045 L1.37897727,46.3696023 C3.99460227,46.9579545 9.475,43.3897727 10.5698864,39.64375 C11.8849432,35.1448864 15.7894886,32.4252841 15.9548295,32.3116477 L17.3286932,34.3147727 L16.6417614,33.3133523 L17.3309659,34.3133523 C17.2974432,34.3366477 13.9681818,36.675 12.9014205,40.3252841 C11.6497159,44.6076705 5.98352273,48.8536932 1.934375,48.8539773 Z" id="Path"></path>
            <path d="M15.5642045,30.2261364 L13.3119318,29.3161932 C13.4835227,28.890625 17.6244318,18.8360795 26.9997159,13.7877841 L28.1511364,15.9264205 C19.565625,20.5497159 15.603125,30.1298295 15.5642045,30.2261364 Z" id="Path"></path>
            <path d="M20.7386364,36.6079545 L19.8298295,34.3553977 L20.2840909,35.4818182 L19.8286932,34.3559659 C19.925,34.3170455 29.5053977,30.3545455 34.1284091,21.76875 L36.2670455,22.9201705 C31.2190341,32.2954545 21.1642045,36.4363636 20.7386364,36.6079545 Z" id="Path"></path>
        </g>
    </g>
</svg>