<?xml version="1.0" encoding="UTF-8"?>
<svg width="85px" height="85px" viewBox="0 0 85 85" version="1.1" xmlns="http://www.w3.org/2000/svg" xmlns:xlink="http://www.w3.org/1999/xlink">
    <!-- Generator: Sketch 55.2 (78181) - https://sketchapp.com -->
    <title>animal4</title>
    <desc>Created with Sketch.</desc>
    <g id="animal4" stroke="none" stroke-width="1" fill="none" fill-rule="evenodd">
        <g id="iconfinder_animal4_4818156" transform="translate(13.000000, 13.000000)" fill="#000000" fill-rule="nonzero">
            <path d="M50.9545455,0 C50.2170455,0 49.6136364,0.6 49.6136364,1.33333333 L49.6136364,2.66666667 L46.9318182,2.66666667 C44.7193182,2.66666667 42.9090909,4.46666667 42.9090909,6.66666667 L42.9090909,14.6666667 C42.9090909,18.6 45.7920455,21.9333333 49.6136364,22.5333333 L49.6136364,22.6666667 C49.6136364,24.8666667 47.8034091,26.6666667 45.5909091,26.6666667 L38.8863636,26.6666667 L38.8863636,24 L38.8863636,14.6666667 C38.8863636,11.2 37.0090909,8.2 34.1931818,6.6 L34.1931818,1.33333333 C34.1931818,0.6 33.5897727,0 32.8522727,0 C32.1147727,0 31.5113636,0.6 31.5113636,1.33333333 L31.5113636,5.53333333 C30.8409091,5.4 30.1704545,5.33333333 29.5,5.33333333 C28.8295455,5.33333333 28.1590909,5.4 27.4886364,5.53333333 L27.4886364,1.33333333 C27.4886364,0.6 26.8852273,0 26.1477273,0 C25.4102273,0 24.8068182,0.6 24.8068182,1.33333333 L24.8068182,6.6 C21.9909091,8.2 20.1136364,11.2 20.1136364,14.6666667 L20.1136364,24 L20.1136364,26.6666667 L13.4090909,26.6666667 C11.1965909,26.6666667 9.38636364,24.8666667 9.38636364,22.6666667 L9.38636364,22.5333333 C13.2079545,21.8666667 16.0909091,18.6 16.0909091,14.6666667 L16.0909091,6.66666667 C16.0909091,4.46666667 14.2806818,2.66666667 12.0681818,2.66666667 L9.38636364,2.66666667 L9.38636364,1.33333333 C9.38636364,0.6 8.78295455,0 8.04545455,0 C3.62045455,0 0,3.6 0,8 L0,14.6666667 C0,18.6 2.88295455,21.9333333 6.70454545,22.5333333 L6.70454545,22.6666667 C6.70454545,26.3333333 9.72159091,29.3333333 13.4090909,29.3333333 L20.1136364,29.3333333 L20.1136364,30.6666667 C20.1136364,31.6666667 20.65,32.4666667 21.4545455,32.9333333 L21.4545455,38.6666667 C21.4545455,39.9333333 22.3261364,40.9333333 23.4659091,41.2666667 L23.4659091,47.4666667 L17.9681818,52.9333333 C17.1636364,53.7333333 16.7613636,54.7333333 16.7613636,55.8666667 C16.7613636,58.1333333 18.6386364,60 20.9181818,60 L38.0147727,60 C40.2943182,60 42.1715909,58.1333333 42.1715909,55.8666667 C42.1715909,54.7333333 41.7693182,53.7333333 40.9647727,52.9333333 L35.5340909,47.4666667 L35.5340909,41.2666667 C36.6738636,41 37.5454545,39.9333333 37.5454545,38.6666667 L37.5454545,32.9333333 C38.35,32.4666667 38.8863636,31.6 38.8863636,30.6666667 L38.8863636,29.3333333 L45.5909091,29.3333333 C49.2784091,29.3333333 52.2954545,26.3333333 52.2954545,22.6666667 L52.2954545,22.5333333 C56.1170455,21.8666667 59,18.6 59,14.6666667 L59,8 C59,3.6 55.3795455,0 50.9545455,0 Z M12.0681818,5.33333333 C12.8056818,5.33333333 13.4090909,5.93333333 13.4090909,6.66666667 L13.4090909,13.3333333 L9.38636364,13.3333333 L9.38636364,5.33333333 L12.0681818,5.33333333 Z M2.68181818,14.6666667 L2.68181818,8 C2.68181818,5.53333333 4.425,3.46666667 6.70454545,2.86666667 L6.70454545,4 L6.70454545,14.6666667 C6.70454545,15.4 7.30795455,16 8.04545455,16 L13.2079545,16 C12.6045455,18.2666667 10.5261364,20 8.04545455,20 C5.09545455,20 2.68181818,17.6 2.68181818,14.6666667 Z M34.8636364,38.6666667 L34.1931818,38.6666667 L24.8068182,38.6666667 L24.1363636,38.6666667 L24.1363636,33.3333333 L34.8636364,33.3333333 L34.8636364,38.6666667 Z M32.8522727,46.6666667 L26.1477273,46.6666667 L26.1477273,41.3333333 L32.8522727,41.3333333 L32.8522727,46.6666667 Z M22.7954545,30.6666667 L22.7954545,25.3333333 L36.2045455,25.3333333 L36.2045455,28 C36.2045455,28 36.2045455,28 36.2045455,28 C36.2045455,28 36.2045455,28 36.2045455,28 L36.2045455,30.6666667 L36.2045455,30.6666667 L22.7954545,30.6666667 Z M22.7954545,14.6666667 C22.7954545,11 25.8125,8 29.5,8 C33.1875,8 36.2045455,11 36.2045455,14.6666667 L36.2045455,22.6666667 L22.7954545,22.6666667 L22.7954545,14.6666667 Z M39.5568182,55.8666667 C39.5568182,56.6666667 38.8863636,57.3333333 38.0818182,57.3333333 L20.9181818,57.3333333 C20.1136364,57.3333333 19.4431818,56.6666667 19.4431818,55.8666667 C19.4431818,55.4666667 19.5772727,55.0666667 19.9125,54.8 L25.4102273,49.3333333 L33.6568182,49.3333333 L39.1545455,54.8 C39.4227273,55.0666667 39.5568182,55.4666667 39.5568182,55.8666667 Z M45.5909091,6.66666667 C45.5909091,5.93333333 46.1943182,5.33333333 46.9318182,5.33333333 L49.6136364,5.33333333 L49.6136364,13.3333333 L45.5909091,13.3333333 L45.5909091,6.66666667 Z M56.3181818,14.6666667 C56.3181818,17.6 53.9045455,20 50.9545455,20 C48.4738636,20 46.3954545,18.2666667 45.7920455,16 L50.9545455,16 C51.6920455,16 52.2954545,15.4 52.2954545,14.6666667 L52.2954545,4 L52.2954545,2.86666667 C54.575,3.46666667 56.3181818,5.53333333 56.3181818,8 L56.3181818,14.6666667 Z" id="Shape"></path>
        </g>
    </g>
</svg>