<?xml version="1.0" encoding="UTF-8"?>
<svg width="85px" height="85px" viewBox="0 0 85 85" version="1.1" xmlns="http://www.w3.org/2000/svg" xmlns:xlink="http://www.w3.org/1999/xlink">
    <!-- Generator: Sketch 55.2 (78181) - https://sketchapp.com -->
    <title>animal8</title>
    <desc>Created with Sketch.</desc>
    <g id="animal8" stroke="none" stroke-width="1" fill="none" fill-rule="evenodd">
        <g id="iconfinder_1147_3000756" transform="translate(15.000000, 16.000000)" fill="#474747" fill-rule="nonzero">
            <path d="M32.5363859,53.9674192 C30.0739402,53.9674192 28.0392391,53.6928939 27.5890761,53.6274302 L27.366087,53.6274302 C26.9159239,53.6928939 24.8812228,53.9674192 22.4187772,53.9674192 C16.3092935,53.9674192 12.605163,52.272905 11.7072283,49.0669944 L11.4600272,48.1824804 C10.1331522,43.4205251 10.0811413,43.2346927 6.88904891,40.0127933 C4.28461957,37.3842905 -1.45182065,27.9584246 0.460326087,21.3007374 C1.01809783,19.3585475 2.49472826,16.8835978 6.3294837,15.7296872 C6.50016304,13.5280559 7.79236413,10.3598547 11.8841848,9.36915084 C12.543288,7.40735196 14.5540761,4.59935196 18.8449728,4.03099441 C19.4209783,2.59592179 21.2311957,0.0283575419 26.8080163,0.0283575419 C26.9676359,0.0283575419 27.1302446,0.0304692737 27.297038,0.0346927374 L27.6569293,0.0346927374 C27.8234239,0.0304692737 27.9863315,0.0283575419 28.1459511,0.0283575419 C33.7236685,0.0283575419 35.533587,2.59592179 36.1092935,4.03099441 C40.3998913,4.59905028 42.4103804,7.40705028 43.0697826,9.36884916 C47.1535326,10.3562346 48.3372283,13.4882346 48.4283967,15.6850391 C52.2754076,16.8543352 53.7633967,19.3600559 54.3283424,21.3281899 C56.2348098,27.9659665 50.548288,37.5067709 48.0652174,40.0127933 C44.873125,43.2343911 44.8211141,43.4202235 43.494538,48.1812737 L43.247038,49.0669944 C42.35,52.272905 38.6461685,53.9674192 32.5363859,53.9674192 Z M27.2826902,51.3346927 L27.8455435,51.3482682 C27.8667663,51.3512849 29.9824728,51.6749835 32.5363859,51.6749835 C35.382337,51.6749835 40.2743478,51.2550503 41.0616848,48.4437318 L41.308288,47.5610279 C42.7018207,42.5598436 42.8476902,42.0370391 46.4597554,38.3921899 C48.8008424,36.0294637 53.6925543,27.3481341 52.1471739,21.9671397 C51.5015217,19.7196536 49.8225272,18.3174637 47.0139402,17.680324 L46.004212,17.451352 L46.1363315,16.4153966 C46.1847554,15.995162 46.4857609,12.2302458 41.9715761,11.4835978 L41.1770652,11.3523687 L41.036875,10.5526257 C41.0072826,10.3975642 40.2163587,6.56084916 35.1710054,6.24227933 L34.2216576,6.18224581 L34.1134511,5.22834637 C34.0970109,5.12818994 33.5592663,2.1675419 27.702962,2.32743017 L27.2674457,2.32773184 L27.2525,2.32743017 C27.1009511,2.32350838 26.9538859,2.32118151 26.808913,2.32118151 C21.3558424,2.32118151 20.8581522,5.1312067 20.8396196,5.25067039 L20.7311141,6.20426816 L19.7850543,6.24227933 C14.7394022,6.56054749 13.9484783,10.3972626 13.9173913,10.5607709 L13.767337,11.3454302 L12.9838859,11.4832961 C8.42336957,12.237486 8.56206522,16.0913966 8.59285326,16.5282235 L8.66220109,17.5119888 L7.7092663,17.7349274 C4.93146739,18.3651285 3.27429348,19.7404693 2.64269022,21.9387821 C1.09342391,27.3330503 6.043125,35.9163352 8.49570652,38.3918883 C12.1080707,42.0373408 12.2536413,42.5601453 13.6474728,47.561933 L13.8934783,48.4434302 C14.681413,51.2550503 19.573125,51.6749835 22.4190761,51.6749835 C24.9723913,51.6749835 27.0889946,51.3512849 27.1102174,51.3479665 L27.2826902,51.3346927 Z" id="Shape"></path>
            <path d="M31.4537228,44.572324 L29.3066304,43.8223575 C30.205163,41.2038101 30.9963859,38.4914413 31.6581793,35.760067 C31.7852174,35.2366592 31.9059783,34.7165698 32.0219565,34.2007039 L34.2377989,34.7072179 C34.1191304,35.2360559 33.9947826,35.768514 33.8650543,36.3048939 C33.1865217,39.1050503 32.3749728,41.8865028 31.4537228,44.572324 Z" id="Path"></path>
            <path d="M35.5132609,27.8775754 L33.2669293,27.5345698 C33.416087,26.5390391 33.5517935,25.5293296 33.6692663,24.5334972 C33.9768478,21.9291285 34.1798098,19.2912737 34.2727717,16.6935419 L36.5427174,16.7758994 C36.447962,19.4366816 36.2399185,22.1378883 35.9248641,24.8050056 C35.8047011,25.8243687 35.6660054,26.8582123 35.5132609,27.8775754 Z" id="Path"></path>
            <path d="M34.2073098,8.77092737 C34.0560598,6.04287151 33.8196196,4.47687151 33.8175272,4.46148603 L36.062663,4.11184358 C36.0728261,4.17972067 36.3182337,5.80454749 36.4757609,8.64271508 L34.2073098,8.77092737 Z" id="Path"></path>
            <path d="M23.4595924,44.5726257 C22.5380435,41.8874078 21.7264946,39.1059553 21.047663,36.3045922 C20.6103533,34.4990615 20.2187772,32.6470726 19.8839946,30.800514 L22.1186685,30.3881229 C22.4453804,32.1909385 22.8273913,33.9982793 23.254538,35.760067 C23.9166304,38.4920447 24.7078533,41.2044134 25.606087,43.8220559 L23.4595924,44.5726257 Z" id="Path"></path>
            <path d="M18.9878533,24.8047039 C18.60375,21.5517318 18.380163,18.2646704 18.3239674,15.0337207 L20.5951087,14.9932961 C20.6504076,18.1470168 20.8686141,21.3568492 21.2434511,24.5331955 L18.9878533,24.8047039 Z" id="Path"></path>
            <path d="M20.6270924,10.5598659 L18.3565489,10.4838436 C18.4865761,6.52977654 18.8363043,4.20868156 18.8509511,4.1115419 L21.096087,4.46088268 C21.0925,4.48350838 20.7517391,6.75814525 20.6270924,10.5598659 Z" id="Path"></path>
            <path d="M13.3246467,26.3507933 C10.3304348,17.0824022 11.7927174,9.8204581 11.8563859,9.51606704 L14.0797011,9.98788827 C14.0656522,10.0569721 12.6891576,16.9867709 15.4845924,25.6400447 L13.3246467,26.3507933 Z" id="Path"></path>
            <path d="M41.3453533,27.2853855 L39.14625,26.7109944 C42.1183424,15.1181899 41.067962,10.6889832 41.0569022,10.6455419 L43.2503261,10.0485251 C43.3029348,10.2428045 44.5084511,14.946838 41.3453533,27.2853855 Z" id="Path"></path>
            <path d="M14.4877174,41.2306592 C6.83673913,29.1072067 6.34233696,17.1590279 6.32470109,16.6564358 L8.59494565,16.5761899 C8.59942935,16.6932402 9.09980978,28.4257207 16.40375,39.9992179 L14.4877174,41.2306592 Z" id="Path"></path>
            <path d="M41.2795924,40.325933 L39.2120109,39.3759553 C40.283913,36.999352 41.2631522,34.5931844 42.1237228,32.2247263 L44.2567663,33.0139106 C43.3764674,35.4366704 42.3748098,37.8965363 41.2795924,40.325933 Z" id="Path"></path>
            <path d="M46.780788,24.9612737 L44.584375,24.376324 C45.8726902,19.450257 46.1282609,16.4959441 46.1306522,16.4666816 L48.3946196,16.6555307 C48.3844565,16.7825363 48.1261957,19.8176983 46.780788,24.9612737 Z" id="Path"></path>
        </g>
    </g>
</svg>