<?xml version="1.0" encoding="UTF-8"?>
<svg width="85px" height="85px" viewBox="0 0 85 85" version="1.1" xmlns="http://www.w3.org/2000/svg" xmlns:xlink="http://www.w3.org/1999/xlink">
    <!-- Generator: Sketch 55.2 (78181) - https://sketchapp.com -->
    <title>apple</title>
    <desc>Created with Sketch.</desc>
    <g id="apple" stroke="none" stroke-width="1" fill="none" fill-rule="evenodd">
        <g id="iconfinder_thin-0904_apple_fruit_388233" transform="translate(14.000000, 13.000000)">
            <g id="Group" transform="translate(7.250000, 0.000000)" stroke="#000000" stroke-linecap="round" stroke-linejoin="round" stroke-width="2.4">
                <path d="M29.9864833,20.26536 C27.0956667,19.87272 24.2268417,20.78688 21.675325,22.53312 C19.1242917,20.78688 16.2557083,19.87272 13.3641667,20.26536 C5.29080833,21.3612 0.0664583333,28.842 1.36203333,38.2608 C2.6651,47.73384 10.1640167,56.77176 18.2368917,55.67544 C19.4449833,55.51128 20.59435,55.18488 21.6750833,54.72336 C22.7553333,55.18488 23.9051833,55.51152 25.1127917,55.67544 C33.1856667,56.772 40.175875,47.03688 41.98765,38.2608 C43.8368833,29.30424 38.0596,21.3612 29.9864833,20.26536" id="Path"></path>
                <path d="M21.6755667,20.9136 C21.6755667,20.9136 19.8601667,8.10696 25.7435417,4.86048 C25.7435417,4.86048 25.5545583,5.9676 26.8999167,6.42072 C28.686075,7.02504 23.03325,11.81448 21.6755667,20.9136 Z" id="Path"></path>
                <path d="M3.26491667,1.968 C3.43770833,10.79472 11.44485,17.85696 21.4111833,16.99536 C21.2753667,8.244 13.2372917,1.0704 3.26491667,1.968 Z" id="Path"></path>
                <path d="M12.731,26.24352 C12.731,26.24352 6.88411667,28.71672 7.75025,38.60952" id="Path"></path>
            </g>
            <rect id="Rectangle" x="0" y="0.08304" width="58" height="57.6"></rect>
        </g>
    </g>
</svg>