<?xml version="1.0" encoding="UTF-8"?>
<svg width="85px" height="85px" viewBox="0 0 85 85" version="1.1" xmlns="http://www.w3.org/2000/svg" xmlns:xlink="http://www.w3.org/1999/xlink">
    <!-- Generator: Sketch 55.2 (78181) - https://sketchapp.com -->
    <title>army7</title>
    <desc>Created with Sketch.</desc>
    <g id="army7" stroke="none" stroke-width="1" fill="none" fill-rule="evenodd">
        <g id="iconfinder_016_-_Location_Spy_3159023" transform="translate(14.000000, 14.000000)" stroke="#000000" stroke-width="2">
            <polyline id="Shape" points="19 39 19 7.13 0 0 0 34 0 48.87 5.59 50.97"></polyline>
            <polyline id="Shape" points="38 7 38 0 58 7.13 58 22 58 56 38 48.87 38 31"></polyline>
            <polyline id="Shape" points="38 31 38 48.87 32.41 50.97"></polyline>
            <polyline id="Shape" points="38 7 38 0 19 7.13 19 17 19 39"></polyline>
            <path d="M26.3,53.26 L26.29,53.26" id="Shape"></path>
            <path d="M34,50 C33.98,49.89 33.95,49.78 33.92,49.67" id="Shape"></path>
            <path d="M0,34 C0,34 6,35 9,39 C9.57,39.76 10.18,40.59 10.83,41.43" id="Shape"></path>
            <path d="M45.44,17.62 C48.74,20.37 52.84,22.52 58,22" id="Shape"></path>
            <path d="M32.5,9.19 C28.22,10.42 22.96,14.36 19,17 C13,21 0,9 0,9" id="Shape"></path>
            <path d="M41,50 C41,50 43,41 58,40" id="Shape"></path>
            <path d="M34.4847587,46.84047 C34.8127891,47.1366994 34.9999994,47.5580093 34.9999994,48 C34.9999994,48.4419907 34.8127891,48.8633006 34.4847587,49.15953 C31.8849988,51.59094 25.3838791,57 18.9999994,57 C12.6161196,57 6.11504987,51.59094 3.51523998,49.15953 C3.18720965,48.8633006 2.99999936,48.4419907 2.99999936,48 C2.99999936,47.5580093 3.18720965,47.1366994 3.51523998,46.84047 C6.11504987,44.40906 12.6161196,39 18.9999994,39 C25.3838791,39 31.8849988,44.40906 34.4847587,46.84047 Z" id="Shape"></path>
            <circle id="Oval" cx="19" cy="48" r="9"></circle>
            <circle id="Oval" cx="19" cy="46" r="4"></circle>
            <path d="M46,15 C46,19.41828 38,31 38,31 C38,31 30,19.41828 30,15 C30,10.581722 33.581722,7 38,7 C42.418278,7 46,10.581722 46,15 Z" id="Shape"></path>
            <circle id="Oval" cx="38" cy="15" r="4"></circle>
            <path d="M0,24 L19,35 L38,31 L58,37" id="Shape" stroke-dasharray="2"></path>
        </g>
    </g>
</svg>