<?xml version="1.0" encoding="UTF-8"?>
<svg width="85px" height="85px" viewBox="0 0 85 85" version="1.1" xmlns="http://www.w3.org/2000/svg" xmlns:xlink="http://www.w3.org/1999/xlink">
    <!-- Generator: Sketch 55.2 (78181) - https://sketchapp.com -->
    <title>army11</title>
    <desc>Created with Sketch.</desc>
    <g id="army11" stroke="none" stroke-width="1" fill="none" fill-rule="evenodd">
        <g id="iconfinder_019_-_Satellite_Spy_3159020" transform="translate(14.000000, 14.000000)" stroke="#000000" stroke-width="2">
            <circle id="Oval" cx="25" cy="33" r="25"></circle>
            <path d="M11.2069,12.31034 C11.7105856,13.3293075 12.1066858,14.398002 12.38878,15.4991 C12.8464132,16.6886229 12.7430124,18.0211162 12.10735,19.1258 C11.4947548,19.8819307 10.8078672,20.5747144 10.057,21.19375 C9.35494037,21.859789 8.59659124,22.4638599 7.79043,22.99921 C6.22567,24.00741 4.27173,24.62338 2.58619,23.51721" id="Shape"></path>
            <path d="M2.59,44.21 C2.57096283,44.1378191 2.55758888,44.0642624 2.55,43.99 C1.86,40.51 5.15,34.68 4.31,33 C3.52,31.42 0.54,31.29 0.06,31.28" id="Shape"></path>
            <path d="M49.42241,38.33621 C47.03448,38.88793 44.69828,37.91379 43.10341,34.72414 C41.53441,31.57759 36.37927,30.58621 34.17241,31.08621 C33.9819071,31.1283021 33.7968106,31.1919278 33.62069,31.27586 C31.89655,32.13793 31.03448,36.44828 34.48276,35.58621 C37.93104,34.72414 37.06897,39.89655 35.34483,40.75862 C33.62069,41.62069 32.75862,44.2069 31.89655,48.51724 C31.03448,52.82758 29.31034,52.82759 25.86207,51.96552 C22.4138,51.10345 23.27586,48.51724 22.41379,45.06897 C21.55172,41.6207 18.96552,40.75862 14.65517,39.89655 C10.34482,39.03448 11.2069,33.86207 11.2069,33.86207 C11.3309231,31.6393942 12.6511713,29.65902 14.65517,28.68966 C18.10345,26.96552 21.55172,30.41379 25,31.27586 C26.0347278,31.525284 27.122912,31.425257 28.09483,30.99138 C29.2412702,30.4646509 30.2481344,29.6762852 31.03448,28.68966 C31.03448,28.68966 35.34483,23.51724 31.89655,23.51724 C31.089908,23.5037179 30.306821,23.7893172 29.69828,24.31897 C29.0431,24.88797 28.69828,25.74997 27.82759,26.07759 C26.63793,26.52586 25.2931,25.46552 24.33621,24.87931 C23.2961074,24.0799093 22.0547187,23.5845598 20.75,23.44831 C19.9839139,23.5823171 19.1989803,23.5647419 18.43966,23.39658 C17.6817707,23.0112262 17.1327851,22.3107975 16.93966,21.48279 C16.62931,20.14658 17.81034,19.43969 18.96552,19.20693 C20.5576862,18.9457046 22.1742194,18.8647337 23.78452,18.96555 C24.42245,18.98279 26.9828,19.33624 27.05176,18.31037 C27.12935,17.05175 25.22418,15.99137 24.53452,15.12937 C23.59487,13.95696 24.95694,12.99144 25.86211,12.31037 C27.7697232,10.893801 29.8912448,9.79084255 32.14659,9.04313" id="Shape"></path>
            <path d="M53.8811,11.89707 L57.41664,15.43261 C58.1944526,16.2149934 58.1944526,17.4786466 57.41664,18.26103 L54.58821,21.08946 C53.8058254,21.8672793 52.5421646,21.8672793 51.75978,21.08946 L48.22425,17.55393" id="Shape"></path>
            <path d="M41.15318,10.48286 L36.91054,6.24022 C36.1327207,5.45783543 36.1327207,4.19417457 36.91054,3.41179 L39.739,0.58336 C40.5213834,-0.19445263 41.7850366,-0.19445263 42.56742,0.58336 L46.81,4.826" id="Shape"></path>
            <rect id="Rectangle-path" transform="translate(47.870698, 10.836409) rotate(45.000000) translate(-47.870698, -10.836409) " x="42.8706976" y="3.33640882" width="10" height="15"></rect>
            <path d="M50.34557,2.70468 C51.3560707,1.69418105 52.8289066,1.29953723 54.2092748,1.66940705 C55.5896429,2.03927687 56.6678324,3.11746831 57.0376998,4.49783707 C57.4075672,5.87820584 57.0129207,7.35104108 56.00242,8.36154" id="Shape"></path>
            <path d="M38.32475,1.99758 L43.98161,7.65443" id="Shape"></path>
            <path d="M51.05268,14.7255 L56.00242,19.67525" id="Shape"></path>
            <path d="M34.08211,16.13971 C36.4252581,13.7965647 40.2242496,13.796567 42.5673949,16.1397151 C44.9105403,18.4828632 44.9105381,22.2818546 42.56739,24.625 L34.08211,16.13971 Z" id="Shape"></path>
            <polyline id="Shape" points="49.75 9.25 50.375 8.625 51 8"></polyline>
            <path d="M46,13 L46.625,12.375" id="Shape"></path>
        </g>
    </g>
</svg>