<?xml version="1.0" encoding="UTF-8"?>
<svg width="85px" height="85px" viewBox="0 0 85 85" version="1.1" xmlns="http://www.w3.org/2000/svg" xmlns:xlink="http://www.w3.org/1999/xlink">
    <!-- Generator: Sketch 55.2 (78181) - https://sketchapp.com -->
    <title>army13</title>
    <desc>Created with Sketch.</desc>
    <g id="army13" stroke="none" stroke-width="1" fill="none" fill-rule="evenodd">
        <g id="iconfinder_005_-_CCTV_3159033" transform="translate(20.000000, 14.000000)" stroke="#000000" stroke-width="2">
            <path d="M2,38 C2.54666667,49.2 11.7866667,58 23,58 C34.2133333,58 43.4533333,49.2 44,38" id="Shape"></path>
            <rect id="Rectangle-path" x="0" y="32" width="46" height="6" rx="2"></rect>
            <path d="M19,38 L27,38 L27,52 C27,53.1045695 26.1045695,54 25,54 L21,54 C19.8954305,54 19,53.1045695 19,52 L19,38 Z" id="Shape"></path>
            <circle id="Oval" cx="23" cy="46" r="4"></circle>
            <path d="M12,5 L34,5 C39.5228475,5 44,9.4771525 44,15 L44,32 L2,32 L2,15 C2,9.4771525 6.4771525,5 12,5 Z" id="Shape"></path>
            <path d="M2,27 L44,27" id="Shape"></path>
            <path d="M17,0 L29,0 C30.1045695,0 31,0.8954305 31,2 L31,5 L15,5 L15,2 C15,0.8954305 15.8954305,0 17,0 Z" id="Shape"></path>
        </g>
    </g>
</svg>