<?xml version="1.0" encoding="UTF-8"?>
<svg width="85px" height="85px" viewBox="0 0 85 85" version="1.1" xmlns="http://www.w3.org/2000/svg" xmlns:xlink="http://www.w3.org/1999/xlink">
    <!-- Generator: Sketch 55.2 (78181) - https://sketchapp.com -->
    <title>army14</title>
    <desc>Created with Sketch.</desc>
    <g id="army14" stroke="none" stroke-width="1" fill="none" fill-rule="evenodd">
        <g id="iconfinder_Artboard_6_2381655" transform="translate(12.000000, 11.000000)" fill="#3F3A34" fill-rule="nonzero">
            <path d="M57.804,32.659 L59.589,32.303 C60.986,32.023 62,30.786 62,29.36 L62,21 C62,19.346 60.654,18 59,18 L58.22,18 C58,18 57.781,18.024 57.57,18.072 L53.482,18.98 C50.254,19.697 48,22.507 48,25.813 L48,50.187 C48,53.493 50.254,56.303 53.481,57.02 L53.827,57.097 C53.347,58.767 51.823,60 50,60 L45,60 C42.243,60 40,57.757 40,55 L40,53.816 C40.314,53.928 40.648,54 41,54 L43,54 C44.654,54 46,52.654 46,51 C46,50.229 45.699,49.532 45.22,49 C45.7,48.468 46,47.771 46,47 C46,46.229 45.699,45.532 45.22,45 C45.7,44.468 46,43.771 46,43 C46,42.229 45.699,41.532 45.22,41 C45.7,40.468 46,39.771 46,39 C46,38.229 45.699,37.532 45.22,37 C45.7,36.468 46,35.771 46,35 C46,34.229 45.699,33.532 45.22,33 C45.7,32.468 46,31.771 46,31 C46,30.229 45.699,29.532 45.22,29 C45.7,28.468 46,27.771 46,27 L46,13 C46,9.14 42.859,6 39,6 L32,6 C30.346,6 29,7.346 29,9 L29,10 L27,10 L27,16 L25,16 L25,12 L19,12 L19,16 L17,16 L17,12 L11,12 L11,16 L9,16 L9,10 L7,10 L7,0 L5,0 L5,10 L3,10 L3,16 L2,16 C0.897,16 0,16.897 0,18 L0,26 C0,27.103 0.897,28 2,28 L3,28 L3,50 L2,50 C0.897,50 0,50.897 0,52 L0,60 C0,61.103 0.897,62 2,62 L34,62 C35.103,62 36,61.103 36,60 L36,52 C36,50.897 35.103,50 34,50 L33,50 L33,28 L34,28 C35.103,28 36,27.103 36,26 L36,18 C36,16.897 35.103,16 34,16 L33,16 L33,10 L31,10 L31,9 C31,8.449 31.448,8 32,8 L39,8 C41.757,8 44,10.243 44,13 L44,24.184 C43.686,24.072 43.352,24 43,24 L41,24 C39.346,24 38,25.346 38,27 C38,27.771 38.301,28.468 38.78,29 C38.3,29.532 38,30.229 38,31 C38,31.771 38.301,32.468 38.78,33 C38.3,33.532 38,34.229 38,35 C38,35.771 38.301,36.468 38.78,37 C38.3,37.532 38,38.229 38,39 C38,39.771 38.301,40.468 38.78,41 C38.3,41.532 38,42.229 38,43 C38,43.771 38.301,44.468 38.78,45 C38.3,45.532 38,46.229 38,47 C38,47.771 38.301,48.468 38.78,49 C38.3,49.532 38,50.229 38,51 L38,55 C38,58.86 41.141,62 45,62 L50,62 C52.778,62 55.114,60.1 55.794,57.534 L57.567,57.928 C57.78,57.976 58,58 58.22,58 L59,58 C60.654,58 62,56.654 62,55 L62,46.64 C62,45.215 60.986,43.977 59.589,43.698 L57.804,43.342 C57.338,43.248 57,42.835 57,42.36 L57,33.64 C57,33.165 57.338,32.752 57.804,32.659 Z M21,14 L23,14 L23,16 L21,16 L21,14 Z M13,14 L15,14 L15,16 L13,16 L13,14 Z M5,12 L7,12 L7,16 L5,16 L5,12 Z M34,54 L32,54 L32,56 L34,56 L34,60 L2,60 L2,56 L30,56 L30,54 L2,54 L2,52 L34,52 L34,54 Z M31,50 L5,50 L5,28 L31,28 L31,50 Z M34,18 L34,22 L32,22 L32,24 L34.001,24 L34.001,26 L2,26 L2,24 L30,24 L30,22 L2,22 L2,18 L3,18 L9,18 L11,18 L17,18 L19,18 L25,18 L27,18 L33,18 L34,18 Z M29,16 L29,12 L31,12 L31,16 L29,16 Z M40,47 C40,46.449 40.448,46 41,46 L43,46 C43.552,46 44,46.449 44,47 C44,47.551 43.552,48 43,48 L41,48 C40.448,48 40,47.551 40,47 Z M40,43 C40,42.449 40.448,42 41,42 L43,42 C43.552,42 44,42.449 44,43 C44,43.551 43.552,44 43,44 L41,44 C40.448,44 40,43.551 40,43 Z M40,39 C40,38.449 40.448,38 41,38 L43,38 C43.552,38 44,38.449 44,39 C44,39.551 43.552,40 43,40 L41,40 C40.448,40 40,39.551 40,39 Z M40,35 C40,34.449 40.448,34 41,34 L43,34 C43.552,34 44,34.449 44,35 C44,35.551 43.552,36 43,36 L41,36 C40.448,36 40,35.551 40,35 Z M41,26 L43,26 C43.552,26 44,26.449 44,27 C44,27.551 43.552,28 43,28 L43,30 C43.552,30 44,30.449 44,31 C44,31.551 43.552,32 43,32 L41,32 C40.448,32 40,31.551 40,31 C40,30.449 40.448,30 41,30 L41,28 C40.448,28 40,27.551 40,27 C40,26.449 40.448,26 41,26 Z M41,50 L43,50 C43.552,50 44,50.449 44,51 C44,51.551 43.552,52 43,52 L41,52 C40.448,52 40,51.551 40,51 C40,50.449 40.448,50 41,50 Z M57.411,45.302 L59.196,45.658 C59.662,45.752 60,46.165 60,46.64 L60,55 C60,55.551 59.552,56 59,56 L58.22,56 C58.148,56 58.075,55.992 58.003,55.976 L53.915,55.068 C51.61,54.556 50,52.549 50,50.187 L50,25.813 C50,23.451 51.61,21.444 53.915,20.932 L58.005,20.023 C58.075,20.008 58.147,20 58.22,20 L59,20 C59.552,20 60,20.449 60,21 L60,29.36 C60,29.835 59.662,30.248 59.196,30.341 L57.411,30.697 C56.014,30.977 55,32.214 55,33.64 L55,42.361 C55,43.786 56.014,45.023 57.411,45.302 Z" id="Shape"></path>
            <path d="M29,30 L7,30 L7,38 L29,38 L29,30 Z M27,36 L9,36 L9,32 L27,32 L27,36 Z" id="Shape"></path>
            <path d="M29,48 L29,40 L7,40 L7,48 L29,48 Z M9,42 L27,42 L27,46 L9,46 L9,42 Z" id="Shape"></path>
        </g>
    </g>
</svg>