<?xml version="1.0" encoding="UTF-8"?>
<svg width="85px" height="85px" viewBox="0 0 85 85" version="1.1" xmlns="http://www.w3.org/2000/svg" xmlns:xlink="http://www.w3.org/1999/xlink">
    <!-- Generator: Sketch 55.2 (78181) - https://sketchapp.com -->
    <title>army1</title>
    <desc>Created with Sketch.</desc>
    <g id="army1" stroke="none" stroke-width="1" fill="none" fill-rule="evenodd">
        <g id="iconfinder_Artboard_24_2381639" transform="translate(23.000000, 12.000000)" fill="#3F3A34" fill-rule="nonzero">
            <path d="M19,6 L19,4 C15.849,4 12.841,5.36 10.749,7.732 L12.249,9.054 C13.962,7.113 16.422,6 19,6 Z" id="Path"></path>
            <path d="M10.414,12.301 C10.61,11.678 10.876,11.074 11.204,10.508 L9.472,9.506 C9.072,10.199 8.746,10.938 8.506,11.699 L10.414,12.301 Z" id="Path"></path>
            <path d="M39,52.382 L28.072,46.918 C31.666,44.175 34,39.86 34,35 L34,15 C34,6.729 27.271,0 19,0 C10.729,0 4,6.729 4,15 L4,35 C4,39.886 6.358,44.22 9.985,46.96 L0,52.406 L0,60 L15.556,60 C16.25,61.19 17.526,62 19,62 C20.474,62 21.75,61.19 22.444,60 L39,60 L39,52.382 Z M32,16 L32,34 L6,34 L6,16 L32,16 Z M19,2 C25.83,2 31.435,7.299 31.949,14 L6.051,14 C6.565,7.299 12.17,2 19,2 Z M6.051,36 L31.95,36 C31.435,42.701 25.83,48 19,48 C12.17,48 6.565,42.701 6.051,36 Z M11.886,48.201 C12.863,48.729 13.909,49.139 15,49.442 L15,54 L2,54 L2,53.594 L11.886,48.201 Z M2,58 L2,56 L15,56 L15,58 L2,58 Z M19,60 C17.897,60 17,59.103 17,58 L17,49.851 C17.656,49.939 18.32,50 19,50 C19.68,50 20.344,49.939 21,49.851 L21,58 C21,59.103 20.103,60 19,60 Z M23,58 L23,56 L33,56 L33,54 L23,54 L23,49.442 C24.101,49.137 25.157,48.723 26.141,48.189 L37,53.618 L37,54 L35,54 L35,56 L37,56 L37,58 L23,58 Z" id="Shape"></path>
            <path d="M12.621,28.804 L16.524,29.392 L19,32.654 L21.476,29.391 L25.379,28.803 L23.92,25 L25.379,21.196 L21.476,20.608 L19,17.346 L16.524,20.609 L12.621,21.197 L14.08,25 L12.621,28.804 Z M15.379,22.804 L17.626,22.464 L19,20.654 L20.374,22.464 L22.621,22.804 L21.777,25 L22.621,27.196 L20.374,27.536 L19,29.346 L17.626,27.536 L15.379,27.196 L16.223,25 L15.379,22.804 Z" id="Shape"></path>
        </g>
    </g>
</svg>