<?xml version="1.0" encoding="UTF-8"?>
<svg width="85px" height="85px" viewBox="0 0 85 85" version="1.1" xmlns="http://www.w3.org/2000/svg" xmlns:xlink="http://www.w3.org/1999/xlink">
    <!-- Generator: Sketch 55.2 (78181) - https://sketchapp.com -->
    <title>army2</title>
    <desc>Created with Sketch.</desc>
    <g id="army2" stroke="none" stroke-width="1" fill="none" fill-rule="evenodd">
        <g id="iconfinder_Artboard_26_2381638" transform="translate(18.000000, 12.000000)" fill="#3F3A34" fill-rule="nonzero">
            <path d="M47.157,34.249 L31.132,32.346 L29.807,29.628 L43,18.464 L43,0 L5,0 L5,18.464 L18.193,29.628 L16.868,32.346 L0.843,34.249 L12.452,45.924 L9.659,61.858 L23.999,54.137 L38.278,61.858 L35.546,45.926 L47.157,34.249 Z M33.802,57.164 L25,52.404 L25,44.245 L30.758,52.696 L32.41,51.569 L26.836,43.388 L33.608,46.466 L35.181,55.637 L33.576,53.282 L31.924,54.409 L33.802,57.164 Z M14.388,46.467 L21.162,43.388 L12.767,55.71 L14.388,46.467 Z M25,24.333 L29.039,32.616 L25,38.001 L25,24.333 Z M28.902,27.773 L24,17.718 L19.098,27.773 L19,27.69 L19,2 L29,2 L29,27.69 L28.902,27.773 Z M23,24.333 L23,38.001 L18.961,32.616 L23,24.333 Z M23,44.245 L23,52.403 L14.221,57.131 L23,44.245 Z M34.134,44.508 L26.839,41.192 L41.936,36.663 L34.134,44.508 Z M39.385,35.34 L26.622,39.169 L30.303,34.261 L39.385,35.34 Z M41,17.536 L37,20.921 L37,6 L35,6 L35,22.613 L31,25.998 L31,2 L35,2 L35,4 L37,4 L37,2 L41,2 L41,17.536 Z M7,2 L11,2 L11,17 L13,17 L13,2 L17,2 L17,25.997 L13,22.612 L13,19 L11,19 L11,20.921 L7,17.536 L7,2 Z M17.697,34.261 L21.378,39.169 L8.615,35.34 L17.697,34.261 Z M6.064,36.663 L21.161,41.192 L13.866,44.508 L6.064,36.663 Z" id="Shape"></path>
        </g>
    </g>
</svg>