<?xml version="1.0" encoding="UTF-8"?>
<svg width="85px" height="85px" viewBox="0 0 85 85" version="1.1" xmlns="http://www.w3.org/2000/svg" xmlns:xlink="http://www.w3.org/1999/xlink">
    <!-- Generator: Sketch 55.2 (78181) - https://sketchapp.com -->
    <title>army6</title>
    <desc>Created with Sketch.</desc>
    <g id="army6" stroke="none" stroke-width="1" fill="none" fill-rule="evenodd">
        <g id="iconfinder_021_-_Satellite_Message_Spy_3159018" transform="translate(12.000000, 13.000000)" stroke="#000000" stroke-width="2">
            <rect id="Rectangle-path" transform="translate(22.617007, 37.382988) rotate(-45.000000) translate(-22.617007, -37.382988) " x="10.6170071" y="17.8829882" width="24" height="39" rx="4"></rect>
            <rect id="Rectangle-path" transform="translate(22.292928, 37.058902) rotate(-45.000000) translate(-22.292928, -37.058902) " x="10.2929277" y="23.1005669" width="24" height="27.91667"></rect>
            <path d="M24.302,31.997 L16.52382,39.77518 C15.7427722,40.5562238 14.4764478,40.5562238 13.6954,39.77518 L10.867,36.9467 C10.4919264,36.5716271 10.2812121,36.0629187 10.2812121,35.532485 C10.2812121,35.0020513 10.4919264,34.4933429 10.867,34.11827 L17.231,27.75427 C17.6060729,27.3791964 18.1147813,27.1684821 18.645215,27.1684821 C19.1756487,27.1684821 19.6843571,27.3791964 20.05943,27.75427 L22.18075,29.87559" id="Shape"></path>
            <polyline id="Shape" points="24.302 31.997 26.423 29.876 22.181 29.876"></polyline>
            <path d="M23.59493,45.432 L21.47361,43.31068 C21.0985364,42.9356071 20.8878221,42.4268987 20.8878221,41.896465 C20.8878221,41.3660313 21.0985364,40.8573229 21.47361,40.48225 L27.83761,34.11825 C28.2126829,33.7431764 28.7213913,33.5324621 29.251825,33.5324621 C29.7822587,33.5324621 30.2909671,33.7431764 30.66604,34.11825 L33.49447,36.94668 C33.8695436,37.3217529 34.0802579,37.8304613 34.0802579,38.360895 C34.0802579,38.8913287 33.8695436,39.4000371 33.49447,39.77511 L25.71625,47.5533" id="Shape"></path>
            <polyline id="Shape" points="23.595 45.432 23.595 49.675 25.716 47.553"></polyline>
            <path d="M31,20 C36.5203025,20.0061394 40.9938606,24.4796975 41,30" id="Shape"></path>
            <path d="M31,24 C34.3122075,24.0036209 36.9963791,26.6877925 37,30" id="Shape"></path>
            <path d="M55.8811,11.89707 L59.41664,15.43261 C60.1944526,16.2149934 60.1944526,17.4786466 59.41664,18.26103 L56.58821,21.08946 C55.8058254,21.8672793 54.5421646,21.8672793 53.75978,21.08946 L50.22425,17.55393" id="Shape"></path>
            <path d="M43.15318,10.48286 L38.91054,6.24022 C38.1327207,5.45783543 38.1327207,4.19417457 38.91054,3.41179 L41.739,0.58336 C42.5213834,-0.19445263 43.7850366,-0.19445263 44.56742,0.58336 L48.81,4.826" id="Shape"></path>
            <rect id="Rectangle-path" transform="translate(49.870698, 10.836409) rotate(45.000000) translate(-49.870698, -10.836409) " x="44.8706976" y="3.33640882" width="10" height="15"></rect>
            <path d="M52.34557,2.70468 C53.3560707,1.69418105 54.8289066,1.29953723 56.2092748,1.66940705 C57.5896429,2.03927687 58.6678324,3.11746831 59.0376998,4.49783707 C59.4075672,5.87820584 59.0129207,7.35104108 58.00242,8.36154" id="Shape"></path>
            <path d="M40.32475,1.99758 L45.98161,7.65443" id="Shape"></path>
            <path d="M53.05268,14.7255 L58.00242,19.67525" id="Shape"></path>
            <path d="M36.08211,16.13971 C38.4252581,13.7965647 42.2242496,13.796567 44.5673949,16.1397151 C46.9105403,18.4828632 46.9105381,22.2818546 44.56739,24.625 L36.08211,16.13971 Z" id="Shape"></path>
            <polyline id="Shape" points="51.75 9.25 52.375 8.625 53 8"></polyline>
            <path d="M48,13 L48.625,12.375" id="Shape"></path>
        </g>
    </g>
</svg>