<?xml version="1.0" encoding="UTF-8"?>
<svg width="85px" height="85px" viewBox="0 0 85 85" version="1.1" xmlns="http://www.w3.org/2000/svg" xmlns:xlink="http://www.w3.org/1999/xlink">
    <!-- Generator: Sketch 55.2 (78181) - https://sketchapp.com -->
    <title>army9</title>
    <desc>Created with Sketch.</desc>
    <g id="army9" stroke="none" stroke-width="1" fill="none" fill-rule="evenodd">
        <g id="iconfinder_Artboard_2_2381661" transform="translate(12.000000, 12.000000)" fill="#3F3A34" fill-rule="nonzero">
            <path d="M53,12 L50,12 L50,8 L48,8 L48,3 C48,1.346 46.654,0 45,0 L37,0 C35.346,0 34,1.346 34,3 L34,8 L32,8 L32,12 L30,12 L30,8 L28,8 L28,3 C28,1.346 26.654,0 25,0 L17,0 C15.346,0 14,1.346 14,3 L14,8 L12,8 L12,12 L9,12 C4.038,12 0,16.038 0,21 L0,37 C0,38.302 0.839,39.402 2,39.816 L2,59 C2,60.654 3.346,62 5,62 L23,62 C24.654,62 26,60.654 26,59 L26,54.468 L27.799,52.969 C29.204,51.799 30.283,50.334 31,48.708 C31.717,50.335 32.796,51.799 34.201,52.969 L36,54.468 L36,59 C36,60.654 37.346,62 39,62 L57,62 C58.654,62 60,60.654 60,59 L60,39.816 C61.161,39.402 62,38.302 62,37 L62,21 C62,16.038 57.962,12 53,12 Z M53,14 C56.86,14 60,17.14 60,21 L60,24 L48,24 C46.346,24 45,25.346 45,27 L45,38 L41,38 L41,27 C41,25.346 39.654,24 38,24 C36.346,24 35,25.346 35,27 L35,38 L32,38 L32,14 L50,14 L53,14 Z M33.03,41.678 C32.812,42.027 32.11,43 31,43 C29.89,43 29.187,42.027 28.97,41.678 C28.987,41.519 29,41.359 29,41.197 L29,40 L33,40 L33,41.197 C33,41.359 33.012,41.519 33.03,41.678 Z M24,46.803 L24,56 L4,56 L4,40 L27,40 L27,41.197 C27,41.991 26.606,42.727 25.945,43.168 C24.727,43.98 24,45.338 24,46.803 Z M39,38 L37,38 L37,27 C37,26.449 37.449,26 38,26 C38.551,26 39,26.449 39,27 L39,38 Z M40,10 L40,12 L38,12 L38,10 L40,10 Z M42,12 L42,10 L44,10 L44,12 L42,12 Z M46,12 L46,10 L48,10 L48,12 L46,12 Z M36,3 C36,2.449 36.449,2 37,2 L45,2 C45.551,2 46,2.449 46,3 L46,8 L36,8 L36,3 Z M34,10 L36,10 L36,12 L34,12 L34,10 Z M20,10 L20,12 L18,12 L18,10 L20,10 Z M22,10 L24,10 L24,12 L22,12 L22,10 Z M26,10 L28,10 L28,12 L26,12 L26,10 Z M16,3 C16,2.449 16.449,2 17,2 L25,2 C25.551,2 26,2.449 26,3 L26,8 L16,8 L16,3 Z M14,10 L16,10 L16,12 L14,12 L14,10 Z M2,21 C2,17.14 5.14,14 9,14 L12,14 L30,14 L30,38 L3,38 C2.449,38 2,37.551 2,37 L2,21 Z M23,60 L5,60 C4.449,60 4,59.551 4,59 L4,58 L24,58 L24,59 C24,59.551 23.551,60 23,60 Z M26.519,51.433 L26,51.865 L26,46.803 C26,46.009 26.394,45.273 27.055,44.832 C27.481,44.548 27.843,44.194 28.138,43.796 C28.59,44.227 29.194,44.642 29.953,44.854 C29.728,47.41 28.511,49.773 26.519,51.433 Z M35.481,51.432 C33.489,49.773 32.271,47.41 32.046,44.853 C32.805,44.641 33.409,44.226 33.861,43.795 C34.157,44.194 34.518,44.547 34.944,44.831 C35.606,45.272 36,46.009 36,46.803 L36,51.865 L35.481,51.432 Z M57,60 L39,60 C38.449,60 38,59.551 38,59 L38,58 L54,58 L54,56 L38,56 L38,46.803 C38,45.339 37.273,43.98 36.055,43.168 C35.394,42.728 35,41.991 35,41.197 L35,40 L58,40 L58,56 L56,56 L56,58 L58,58 L58,59 C58,59.551 57.551,60 57,60 Z M59,38 L47,38 L47,27 C47,26.449 47.449,26 48,26 L60,26 L60,37 C60,37.551 59.551,38 59,38 Z" id="Shape"></path>
            <path d="M9,35 L23,35 C24.103,35 25,34.103 25,33 L25,19 C25,17.897 24.103,17 23,17 L9,17 C7.897,17 7,17.897 7,19 L7,33 C7,34.103 7.897,35 9,35 Z M9,19 L23,19 L23.001,33 L16,33 L9,33 L9,19 Z" id="Shape"></path>
            <path d="M21,28 C21,26.361 20.18,24.831 18.846,23.902 C18.937,23.615 19,23.316 19,23 C19,21.346 17.654,20 16,20 C14.346,20 13,21.346 13,23 C13,23.316 13.063,23.615 13.154,23.901 C11.82,24.831 11,26.36 11,28 C11,30.757 13.243,33 16,33 C18.757,33 21,30.757 21,28 Z M16,22 C16.551,22 17,22.449 17,23 C17,23.551 16.551,24 16,24 C15.449,24 15,23.551 15,23 C15,22.449 15.449,22 16,22 Z M16,31 C14.346,31 13,29.654 13,28 C13,26.991 13.525,26.061 14.362,25.508 C14.834,25.817 15.395,26 16,26 C16.605,26 17.167,25.817 17.638,25.508 C18.475,26.06 19,26.991 19,28 C19,29.654 17.654,31 16,31 Z" id="Shape"></path>
        </g>
    </g>
</svg>