<?xml version="1.0" encoding="UTF-8"?>
<svg width="85px" height="85px" viewBox="0 0 85 85" version="1.1" xmlns="http://www.w3.org/2000/svg" xmlns:xlink="http://www.w3.org/1999/xlink">
    <!-- Generator: Sketch 55.2 (78181) - https://sketchapp.com -->
    <title>army10</title>
    <desc>Created with Sketch.</desc>
    <g id="army10" stroke="none" stroke-width="1" fill="none" fill-rule="evenodd">
        <g id="iconfinder_Artboard_30_2381634" transform="translate(11.000000, 12.000000)" fill="#3F3A34" fill-rule="nonzero">
            <path d="M28,23.5 C28,24.879 29.121,26 30.5,26 C31.879,26 33,24.879 33,23.5 C33,22.121 31.879,21 30.5,21 C29.121,21 28,22.121 28,23.5 Z M30.5,23 C30.775,23 31,23.225 31,23.5 C31,23.775 30.775,24 30.5,24 C30.225,24 30,23.775 30,23.5 C30,23.225 30.225,23 30.5,23 Z" id="Shape"></path>
            <path d="M41,23.5 C41,24.879 42.121,26 43.5,26 C44.879,26 46,24.879 46,23.5 C46,22.121 44.879,21 43.5,21 C42.121,21 41,22.121 41,23.5 Z M43.5,23 C43.775,23 44,23.225 44,23.5 C44,23.775 43.775,24 43.5,24 C43.225,24 43,23.775 43,23.5 C43,23.225 43.225,23 43.5,23 Z" id="Shape"></path>
            <path d="M37,35 C33.691,35 31,32.309 31,29 L29,29 C29,33.411 32.589,37 37,37 C41.411,37 45,33.411 45,29 L43,29 C43,32.309 40.309,35 37,35 Z" id="Path"></path>
            <path d="M59.063,51.451 C57.669,46.989 53.783,43.647 49.164,42.936 L44,42.142 L44,41.106 C47.365,39.153 49.848,35.847 50.686,31.931 C53.116,31.592 55,29.522 55,27 L55,20.816 C56.161,20.402 57,19.302 57,18 C57,16.607 56.042,15.444 54.753,15.108 C54.734,14.985 54.721,14.859 54.7,14.737 C53.199,6.197 45.787,0 37.075,0 L36.925,0 C28.213,0 20.801,6.197 19.301,14.735 C19.279,14.857 19.267,14.983 19.247,15.107 C19.163,15.129 19.081,15.155 19,15.184 L19,6.618 C19.615,5.915 20,5.006 20,4 L20,0 L12,0 L12,4 C12,5.006 12.385,5.915 13,6.618 L13,19.026 C11.793,19.94 11,21.374 11,23 L11,28 L10,28 L10,32 L9,32 C7.346,32 6,33.346 6,35 L6,38 L0,38 L0,46 L10.627,46 L6,56.795 L6,62 L11.64,62 L15,62 L62.36,62 L59.063,51.451 Z M57.155,52.047 L59.64,60 L51.883,60 L50.992,52.876 L49.008,53.124 L49.867,60 L38,60 L38,50.618 L45.698,54.466 L47.856,44.758 L48.859,44.912 C52.73,45.509 55.986,48.31 57.155,52.047 Z M12,39 L12,30 L20,30 L20,39 C20,40.654 18.654,42 17,42 L15,42 C13.346,42 12,40.654 12,39 Z M23,22.101 C22.257,22.253 21.584,22.583 21,23.025 L21,23 L21,21 L23,21 L23,22.101 Z M23,24.184 L23,29 C23,29.28 23.026,29.553 23.042,29.829 C22.652,29.696 22.3,29.49 22,29.22 L22,28 L21.184,28 C21.072,27.686 21,27.352 21,27 C21,25.698 21.839,24.598 23,24.184 Z M20,42.974 C21.207,42.06 22,40.626 22,39 L22,31.576 C22.411,31.756 22.854,31.867 23.314,31.93 C24.152,35.846 26.635,39.152 30,41.105 L30,42.141 L24.836,42.935 C23.087,43.204 21.444,43.852 20,44.794 L20,42.974 Z M30.651,44.065 L35.311,48.725 L29.698,51.533 L28.125,44.454 L30.651,44.065 Z M43.349,44.065 L45.875,44.454 L44.302,51.533 L38.689,48.725 L43.349,44.065 Z M42,42.586 L37,47.586 L32,42.586 L32,42.061 C33.555,42.659 35.237,43 37,43 C38.763,43 40.445,42.659 42,42.061 L42,42.586 Z M37,41 C30.383,41 25,35.617 25,29 L25,21 L30.5,21 L43.5,21 L49,21 L49,29 C49,35.617 43.617,41 37,41 Z M51,21 L53,21 L53,23.026 C52.416,22.584 51.743,22.253 51,22.102 L51,21 Z M50.958,29.829 C50.974,29.553 51,29.28 51,29 L51,24.184 C52.161,24.598 53,25.698 53,27 C53,28.317 52.141,29.427 50.958,29.829 Z M39.051,15 L38,15 L38,13.414 C38,12.083 36.917,11 35.586,11 C34.95,11 34.328,11.258 33.879,11.707 L33.707,11.879 C33.63,11.956 33.523,12 33.414,12 L32.02,12 C30.979,12 30.059,12.663 29.73,13.65 L29.28,15 L26.633,15 L25.685,13 C26.088,13 26.48,12.882 26.818,12.657 C27.714,12.059 28.268,11.058 28.298,9.981 C28.328,8.903 27.831,7.873 26.968,7.225 L25.899,6.424 C26.926,5.44 28.084,4.6 29.343,3.921 L31.171,7.576 C31.536,8.306 32.199,8.846 32.988,9.055 C33.777,9.263 34.617,9.123 35.296,8.672 C35.631,8.449 36.081,8.494 36.364,8.777 L36.988,9.401 C37.543,9.956 38.272,10.233 39.001,10.233 C39.73,10.233 40.459,9.956 41.014,9.401 C42.014,8.401 43.25,7.637 44.591,7.19 L47.778,6.128 C48.412,6.703 49,7.328 49.534,8 L46.5,8 C45.121,8 44,9.121 44,10.5 C44,10.775 43.775,11 43.5,11 C41.19,11 39.303,12.756 39.051,15 Z M36,15 L31.387,15 L31.626,14.283 C31.683,14.113 31.841,14 32.02,14 L33.415,14 C34.051,14 34.673,13.742 35.122,13.293 L35.294,13.121 C35.531,12.883 36,13.076 36,13.414 L36,15 Z M37.075,2 C40.315,2 43.346,2.975 45.88,4.652 L43.956,5.293 C42.323,5.838 40.815,6.77 39.598,7.987 C39.268,8.317 38.731,8.317 38.401,7.987 L37.777,7.363 C36.82,6.406 35.309,6.258 34.185,7.008 C33.98,7.146 33.737,7.185 33.5,7.121 C33.262,7.059 33.069,6.902 32.959,6.682 L31.158,3.08 C32.953,2.386 34.897,2 36.925,2 L37.075,2 Z M24.541,7.905 L25.768,8.825 C26.118,9.087 26.311,9.488 26.299,9.926 C26.286,10.363 26.071,10.751 25.685,11 C24.972,11 24.324,11.362 23.949,11.969 C23.575,12.575 23.542,13.318 23.86,13.954 L24.382,15 L21.289,15 C21.774,12.32 22.923,9.908 24.541,7.905 Z M20,17 L47,17 L47,15 L41.051,15 C41.283,13.86 42.293,13 43.5,13 C44.879,13 46,11.879 46,10.5 C46,10.225 46.225,10 46.5,10 L50.894,10 C51.759,11.518 52.385,13.199 52.712,15 L49,15 L49,17 L54,17 C54.552,17 55,17.448 55,18 C55,18.552 54.552,19 54,19 L20,19 C19.448,19 19,18.552 19,18 C19,17.448 19.448,17 20,17 Z M14,2 L18,2 L18,4 C18,5.103 17.103,6 16,6 C14.897,6 14,5.103 14,4 L14,2 Z M15,7.858 C15.322,7.942 15.653,8 16,8 C16.347,8 16.678,7.942 17,7.858 L17,18.101 C16.677,18.035 16.342,18 16,18 C15.658,18 15.323,18.035 15,18.101 L15,7.858 Z M13,23 C13,21.346 14.346,20 16,20 C17.654,20 19,21.346 19,23 L19,27 L19,28 L13,28 L13,23 Z M8,35 C8,34.448 8.448,34 9,34 L10,34 L10,38 L8,38 L8,35 Z M2,44 L2,40 L10.101,40 C10.343,41.188 11.021,42.208 11.943,42.928 L11.484,44 L2,44 Z M8,60 L8,57.205 L13.659,44 L15,44 L17,44 L18,44 L18,46.417 C16.608,47.805 15.539,49.523 14.937,51.451 L12.265,60 L8,60 Z M14.36,60 L16.844,52.047 C18.013,48.31 21.269,45.509 25.14,44.913 L26.143,44.759 L28.301,54.467 L36,50.618 L36,60 L24.133,60 L24.992,53.124 L23.008,52.876 L22.117,60 L15,60 L14.36,60 Z" id="Shape"></path>
        </g>
    </g>
</svg>