<?xml version="1.0" encoding="UTF-8"?>
<svg width="85px" height="85px" viewBox="0 0 85 85" version="1.1" xmlns="http://www.w3.org/2000/svg" xmlns:xlink="http://www.w3.org/1999/xlink">
    <!-- Generator: Sketch 55.2 (78181) - https://sketchapp.com -->
    <title>army12</title>
    <desc>Created with Sketch.</desc>
    <g id="army12" stroke="none" stroke-width="1" fill="none" fill-rule="evenodd">
        <g id="iconfinder_003_-_Drone_Spy_3159035" transform="translate(13.000000, 15.000000)" stroke="#000000" stroke-width="2">
            <rect id="Rectangle-path" x="0" y="4" width="26" height="5" rx="1"></rect>
            <rect id="Rectangle-path" x="32" y="4" width="26" height="5" rx="1"></rect>
            <path d="M13,0 C14.1045695,0 15,0.8954305 15,2 L15,4 L11,4 L11,2 C11,0.8954305 11.8954305,0 13,0 Z" id="Shape"></path>
            <path d="M45,0 C46.1045695,0 47,0.8954305 47,2 L47,4 L43,4 L43,2 C43,0.8954305 43.8954305,0 45,0 Z" id="Shape"></path>
            <path d="M47.000028,9 L47.000028,16.33 C47.0023101,16.7631121 46.8617153,17.1848963 46.6,17.53 L41.6,24.2 C41.2209673,24.7020228 40.6290378,24.9979875 40,25 L18,25 C17.3709622,24.9979875 16.7790327,24.7020228 16.4,24.2 L11.4,17.53 C11.1382847,17.1848963 10.9976899,16.7631121 10.999972,16.33 L10.999972,9 L15,9 L15,14.68 C15.0014269,16.1128389 15.7677995,17.4358801 17.01,18.15 L21.53,20.73 C21.8328867,20.9085301 22.1784178,21.0018236 22.53,21 L35.47,21 C35.8215822,21.0018236 36.1671133,20.9085301 36.47,20.73 L40.99,18.15 C42.2322005,17.4358801 42.9985731,16.1128389 43,14.68 L43,9 L47.000028,9 Z" id="Shape"></path>
            <polyline id="Shape" points="19 25 25 31 29 31"></polyline>
            <polyline id="Shape" points="39 25 36 28 33 31 31 31 29 31"></polyline>
            <rect id="Rectangle-path" x="26" y="31" width="6" height="7"></rect>
            <rect id="Rectangle-path" x="15" y="38" width="28" height="16" rx="2"></rect>
            <path d="M14,43 L15,43 L15,49 L14,49 C12.3431458,49 11,47.6568542 11,46 C11,44.3431458 12.3431458,43 14,43 Z" id="Shape"></path>
            <path d="M46,43 L47,43 L47,49 L46,49 C44.3431458,49 43,47.6568542 43,46 C43,44.3431458 44.3431458,43 46,43 Z" id="Shape" transform="translate(45.000000, 46.000000) rotate(-180.000000) translate(-45.000000, -46.000000) "></path>
            <circle id="Oval" cx="29" cy="46" r="8"></circle>
            <circle id="Oval" cx="29" cy="46" r="4"></circle>
            <path d="M15.21,22.61 L4.99999972,32.83 L4.99999972,49 C4.99999972,50.1045695 4.1045695,51 2.99999972,51 C1.8954305,51 0.999999722,50.1045695 0.999999722,49 L0.999999722,32.83 C0.999604796,31.7689019 1.42041823,30.7510369 2.17,30 L12.59,19.59 C12.6561832,19.5217567 12.7300025,19.4613592 12.81,19.41" id="Shape"></path>
            <path d="M45.19,19.41 C45.2699975,19.4613592 45.3438168,19.5217567 45.41,19.59 L55.83,30 C56.5795818,30.7510369 57.0003952,31.7689019 57.0000003,32.83 L57.0000003,49 C57.0000003,50.1045695 56.1045695,51 55,51 C53.8954305,51 53,50.1045695 53,49 L53,32.83 L42.79,22.61" id="Shape"></path>
        </g>
    </g>
</svg>