<?xml version="1.0" encoding="UTF-8"?>
<svg width="85px" height="85px" viewBox="0 0 85 85" version="1.1" xmlns="http://www.w3.org/2000/svg" xmlns:xlink="http://www.w3.org/1999/xlink">
    <!-- Generator: Sketch 55.2 (78181) - https://sketchapp.com -->
    <title>bananas</title>
    <desc>Created with Sketch.</desc>
    <g id="bananas" stroke="none" stroke-width="1" fill="none" fill-rule="evenodd">
        <g id="iconfinder_thin-1441_bananas_fruit_1805844" transform="translate(13.000000, 13.000000)">
            <g id="Layer_1-2" transform="translate(0.000000, 5.000000)" stroke="#000000" stroke-linecap="round" stroke-linejoin="round" stroke-width="2.5">
                <path d="M10.7436,7.405 C14.468225,9.0604 11.788325,17.539475 13.19205,24.65045 C14.55665,31.563125 23.74205,40.961275 29.906,44.344425 C36.0885,47.73775 35.33435,47.0057 35.4408,48.8154 C35.54725,50.6251 34.8461,50.73195 34.8461,50.73195 C20.155525,53.2868 3.4275,41.137975 2.0144,25.07625 C0.57785,8.746925 7.9758,9.4275 10.7436,7.405 C13.5114,5.3825 13.511375,0.4855 13.511375,0.4855 L16.066375,1.017775 C16.3014327,3.77237094 15.5917737,6.52492712 14.054175,8.8225" id="Path"></path>
                <path d="M30.8525,44.86155 C50.131275,48.496025 49.918375,42.641075 53.493125,41.2571 C54.8862,40.717775 52.899075,37.63775 52.899075,37.63775 C52.899075,37.63775 50.131275,38.702275 38.31495,36.04095 C21.7895,32.319 20.43085,24.118175 17.556625,15.27885 C14.6824,6.439525 10.7436,7.405 10.7436,7.405" id="Path"></path>
                <path d="M14.054175,8.8225 C16.6390632,10.6446831 18.9093932,12.8763301 20.775725,15.429525 C22.867925,19.021825 25.008375,27.3118 39.8054,29.22795 C54.602425,31.1441 57.263775,29.653775 57.263775,29.653775 L58.647675,31.99575 C58.647675,31.99575 56.837975,33.3142 56.7315,34.059375 C55.3384508,35.9759683 53.2962105,37.3208409 50.9852,37.843475" id="Path"></path>
            </g>
            <g id="Layer_2-2">
                <rect id="Rectangle" x="0" y="0" width="60" height="60"></rect>
            </g>
        </g>
    </g>
</svg>