<?xml version="1.0" encoding="UTF-8"?>
<svg width="85px" height="85px" viewBox="0 0 85 85" version="1.1" xmlns="http://www.w3.org/2000/svg" xmlns:xlink="http://www.w3.org/1999/xlink">
    <!-- Generator: Sketch 55.2 (78181) - https://sketchapp.com -->
    <title>blueberries</title>
    <desc>Created with Sketch.</desc>
    <g id="blueberries" stroke="none" stroke-width="1" fill="none" fill-rule="evenodd">
        <g id="iconfinder_thin-1445_blueberries_blackcurrant_1805852" transform="translate(13.000000, 13.000000)">
            <g id="Layer_1-2" transform="translate(2.500000, 0.000000)" stroke="#000000" stroke-linecap="round" stroke-linejoin="round" stroke-width="2.5">
                <circle id="Oval" cx="38.75" cy="43.709825" r="15.040175"></circle>
                <path d="M24.757825,49.233825 C22.1880946,54.4709454 16.3463747,57.2443818 10.6639055,55.925106 C4.98143633,54.6058302 0.959189318,49.5423166 0.959704233,43.7087119 C0.960219148,37.8751071 4.98335998,32.8123037 10.666062,31.4940311 C16.348764,30.1757584 22.1899941,32.950226 24.7588,38.1878" id="Path"></path>
                <path d="M16.24435,31.4716 C13.365668,27.7263091 13.6880429,22.4321584 16.9998924,19.0638254 C20.3117419,15.6954924 25.5996844,15.2836419 29.3931171,18.0985811 C33.1865497,20.9135203 34.324733,26.0939157 32.06065,30.23975" id="Path"></path>
                <path d="M40.4025,28.7594621 C53.398725,28.788075 52.91475,18.892175 55.60155,1.8757" id="Path"></path>
                <path d="M30.504325,19.06315 C24.984725,2.094575 55.601625,1.8757 55.601625,1.8757 C55.601625,1.8757 35.616625,16.913525 38.194975,22.3996" id="Path"></path>
                <polyline id="Path" points="35.95 33.155 38.5125 34.59 41.3675 33.505"></polyline>
                <polyline id="Path" points="11.305 35.4975 13.1275 36.4625 15.485 35.2825"></polyline>
                <polyline id="Path" points="22.755 20.2225 23.7625 20.6825 25.31 20.2225"></polyline>
            </g>
            <g id="Layer_2-2">
                <rect id="Rectangle" x="0" y="0" width="60" height="60"></rect>
            </g>
        </g>
    </g>
</svg>