<?xml version="1.0" encoding="UTF-8"?>
<svg width="85px" height="85px" viewBox="0 0 85 85" version="1.1" xmlns="http://www.w3.org/2000/svg" xmlns:xlink="http://www.w3.org/1999/xlink">
    <!-- Generator: Sketch 55.2 (78181) - https://sketchapp.com -->
    <title>boat</title>
    <desc>Created with Sketch.</desc>
    <g id="boat" stroke="none" stroke-width="1" fill="none" fill-rule="evenodd">
        <g id="iconfinder_boat_4913404" transform="translate(12.000000, 12.000000)" fill="#000000" fill-rule="nonzero">
            <path d="M61.5866667,58.4177778 C61.0355556,57.8666667 60.2088889,57.8666667 59.6577778,58.4177778 C58.7622222,59.3133333 57.1088889,59.3133333 56.2133333,58.4177778 C54.9044444,57.1088889 53.1133333,56.6955556 51.46,57.04 C55.1111111,52.08 57.1777778,45.88 57.1777778,39.4044444 C57.1777778,38.8533333 56.8333333,38.3022222 56.2822222,38.0955556 L49.6,35.6844444 L49.6,20.8044444 C49.6,18.5311111 47.74,16.6711111 45.4666667,16.6711111 L44.0888889,16.6711111 L44.0888889,10.4711111 C44.0888889,8.19777778 42.2288889,6.33777778 39.9555556,6.33777778 L32.3777778,6.33777778 L32.3777778,1.51555556 C32.3777778,0.757777778 31.7577778,0.137777778 31,0.137777778 C30.2422222,0.137777778 29.6222222,0.757777778 29.6222222,1.51555556 L29.6222222,6.33777778 L22.0444444,6.33777778 C19.7711111,6.33777778 17.9111111,8.19777778 17.9111111,10.4711111 L17.9111111,16.6711111 L16.5333333,16.6711111 C14.26,16.6711111 12.4,18.5311111 12.4,20.8044444 L12.4,35.6844444 L5.71777778,38.0955556 C5.16666667,38.3022222 4.82222222,38.7844444 4.82222222,39.4044444 C4.82222222,45.88 6.82,52.08 10.54,56.9711111 C10.1955556,56.9022222 9.85111111,56.8333333 9.50666667,56.8333333 C8.12888889,56.8333333 6.82,57.3844444 5.85555556,58.3488889 C4.96,59.2444444 3.30666667,59.2444444 2.41111111,58.3488889 C1.86,57.7977778 1.03333333,57.7977778 0.482222222,58.3488889 C-0.0688888889,58.9 -0.0688888889,59.7266667 0.482222222,60.2777778 C1.44666667,61.2422222 2.75555556,61.7933333 4.13333333,61.7933333 C5.51111111,61.7933333 6.82,61.2422222 7.78444444,60.2777778 C8.68,59.3822222 10.3333333,59.3822222 11.2288889,60.2777778 C12.4,61.4488889 14.0533333,62 15.7066667,61.7244444 C15.7066667,61.7244444 15.7066667,61.7244444 15.7066667,61.7244444 C15.7755556,61.7244444 15.7755556,61.7244444 15.8444444,61.7244444 C15.8444444,61.7244444 15.9133333,61.7244444 15.9133333,61.7244444 C15.9133333,61.7244444 15.9822222,61.7244444 15.9822222,61.7244444 C16.9466667,61.5177778 17.8422222,61.0355556 18.5311111,60.3466667 C19.4266667,59.4511111 21.08,59.4511111 21.9755556,60.3466667 C22.94,61.3111111 24.2488889,61.8622222 25.6266667,61.8622222 C27.0044444,61.8622222 28.3133333,61.3111111 29.2777778,60.3466667 C30.2422222,59.3822222 31.7577778,59.3822222 32.7222222,60.3466667 C34.72,62.3444444 38.0266667,62.3444444 40.0244444,60.3466667 C40.9888889,59.3822222 42.5044444,59.3822222 43.4688889,60.3466667 C44.1577778,61.0355556 45.1222222,61.5177778 46.0866667,61.7244444 C46.0866667,61.7244444 46.0866667,61.7244444 46.1555556,61.7244444 C46.1555556,61.7244444 46.1555556,61.7244444 46.1555556,61.7244444 C46.5,61.7933333 46.8444444,61.7933333 47.12,61.7933333 C48.4977778,61.7933333 49.8066667,61.2422222 50.7711111,60.2777778 C51.7355556,59.3133333 53.2511111,59.3133333 54.2155556,60.2777778 C55.18,61.2422222 56.4888889,61.7933333 57.8666667,61.7933333 C59.2444444,61.7933333 60.5533333,61.2422222 61.5177778,60.2777778 C62.1377778,59.7955556 62.1377778,58.9688889 61.5866667,58.4177778 Z M20.6666667,10.4711111 C20.6666667,9.71333333 21.2866667,9.09333333 22.0444444,9.09333333 L39.9555556,9.09333333 C40.7133333,9.09333333 41.3333333,9.71333333 41.3333333,10.4711111 L41.3333333,16.6711111 L20.6666667,16.6711111 L20.6666667,10.4711111 Z M15.1555556,20.8044444 C15.1555556,20.0466667 15.7755556,19.4266667 16.5333333,19.4266667 L45.4666667,19.4266667 C46.2244444,19.4266667 46.8444444,20.0466667 46.8444444,20.8044444 L46.8444444,34.72 L31.4822222,29.14 C31.4133333,29.14 31.4133333,29.14 31.3444444,29.14 C31.3444444,29.14 31.2755556,29.14 31.2755556,29.14 C31.1377778,29.14 30.9311111,29.14 30.7933333,29.14 C30.7933333,29.14 30.7244444,29.14 30.7244444,29.14 C30.6555556,29.14 30.6555556,29.14 30.5866667,29.14 L15.1555556,34.72 L15.1555556,20.8044444 Z M38.0955556,58.4177778 C37.1311111,59.3822222 35.6155556,59.3822222 34.6511111,58.4177778 C32.6533333,56.42 29.3466667,56.42 27.3488889,58.4177778 C26.4533333,59.3133333 24.8,59.3133333 23.9044444,58.4177778 C22.94,57.4533333 21.6311111,56.9022222 20.2533333,56.9022222 C18.8755556,56.9022222 17.5666667,57.4533333 16.6022222,58.4177778 C16.3955556,58.6244444 16.1888889,58.7622222 15.9133333,58.9 C10.8155556,54.2155556 7.85333333,47.5333333 7.57777778,40.3688889 L29.6222222,32.3777778 L29.6222222,51.1155556 C29.6222222,51.8733333 30.2422222,52.4933333 31,52.4933333 C31.7577778,52.4933333 32.3777778,51.8733333 32.3777778,51.1155556 L32.3777778,32.3777778 L54.4222222,40.3 C54.1466667,47.5333333 51.1844444,54.2155556 46.0866667,58.8311111 C45.88,58.6933333 45.6044444,58.5555556 45.3977778,58.3488889 C43.4,56.3511111 40.0933333,56.3511111 38.0955556,58.4177778 Z M22.0444444,24.6622222 C22.0444444,24.7311111 22.0444444,24.8688889 22.0444444,24.9377778 C22.0444444,25.2822222 21.9066667,25.6266667 21.6311111,25.9022222 C21.3555556,26.1777778 21.0111111,26.3155556 20.6666667,26.3155556 C20.3222222,26.3155556 19.9777778,26.1777778 19.7022222,25.9022222 C19.4266667,25.6266667 19.2888889,25.2822222 19.2888889,24.9377778 C19.2888889,24.8688889 19.2888889,24.7311111 19.2888889,24.6622222 C19.2888889,24.5933333 19.3577778,24.5244444 19.3577778,24.3866667 C19.3577778,24.3177778 19.4266667,24.2488889 19.4955556,24.18 C19.5644444,24.1111111 19.5644444,24.0422222 19.6333333,23.9733333 C20.1844444,23.4222222 21.08,23.4222222 21.5622222,23.9733333 C21.6311111,24.0422222 21.7,24.1111111 21.7,24.18 C21.7688889,24.2488889 21.7688889,24.3177778 21.8377778,24.3866667 C21.9755556,24.5244444 21.9755556,24.5933333 22.0444444,24.6622222 Z M28.9333333,24.6622222 C28.9333333,24.7311111 28.9333333,24.8688889 28.9333333,24.9377778 C28.9333333,25.2822222 28.7955556,25.6266667 28.52,25.9022222 C28.4511111,25.9711111 28.3822222,26.04 28.3133333,26.04 C28.2444444,26.1088889 28.1755556,26.1777778 28.1066667,26.1777778 C28.0377778,26.2466667 27.9688889,26.2466667 27.8311111,26.2466667 C27.7622222,26.2466667 27.6244444,26.2466667 27.5555556,26.2466667 C27.2111111,26.2466667 26.8666667,26.1088889 26.5911111,25.8333333 C26.5222222,25.7644444 26.4533333,25.6955556 26.4533333,25.6266667 C26.3844444,25.5577778 26.3844444,25.4888889 26.3155556,25.42 C26.2466667,25.3511111 26.2466667,25.2822222 26.2466667,25.1444444 C26.2466667,25.0755556 26.2466667,24.9377778 26.2466667,24.8688889 C26.2466667,24.8 26.2466667,24.6622222 26.2466667,24.5933333 C26.2466667,24.5244444 26.3155556,24.4555556 26.3155556,24.3177778 C26.3155556,24.2488889 26.3844444,24.18 26.4533333,24.1111111 C26.5222222,24.0422222 26.5222222,23.9733333 26.5911111,23.9044444 C26.9355556,23.56 27.4177778,23.4222222 27.8311111,23.56 C27.9,23.56 27.9688889,23.6288889 28.1066667,23.6288889 C28.1755556,23.6288889 28.2444444,23.6977778 28.3822222,23.7666667 C28.52,23.8355556 28.52,23.8355556 28.5888889,23.9044444 C28.6577778,23.9733333 28.7266667,24.0422222 28.7266667,24.1111111 C28.7955556,24.18 28.7955556,24.2488889 28.8644444,24.3177778 C28.8644444,24.5244444 28.8644444,24.5933333 28.9333333,24.6622222 Z M33.48,25.9022222 C33.2044444,25.6266667 33.0666667,25.2822222 33.0666667,24.9377778 C33.0666667,24.8688889 33.0666667,24.7311111 33.0666667,24.6622222 C33.0666667,24.5933333 33.1355556,24.5244444 33.1355556,24.3866667 C33.2044444,24.3177778 33.2044444,24.2488889 33.2733333,24.18 C33.3422222,24.1111111 33.4111111,24.0422222 33.4111111,23.9733333 C33.8933333,23.4222222 34.8577778,23.4222222 35.34,23.9733333 C35.6155556,24.2488889 35.7533333,24.5933333 35.7533333,24.9377778 C35.7533333,25.0066667 35.7533333,25.1444444 35.7533333,25.2133333 C35.7533333,25.2822222 35.6844444,25.3511111 35.6844444,25.4888889 C35.6844444,25.5577778 35.6155556,25.6266667 35.5466667,25.6955556 C35.4777778,25.7644444 35.4088889,25.8333333 35.4088889,25.9022222 C35.1333333,26.1777778 34.7888889,26.3155556 34.4444444,26.3155556 C34.1,26.3155556 33.7555556,26.1777778 33.48,25.9022222 Z M40.3688889,25.9022222 C40.0933333,25.6266667 39.9555556,25.2822222 39.9555556,24.9377778 C39.9555556,24.5933333 40.0933333,24.2488889 40.3688889,23.9733333 C40.7133333,23.6288889 41.1955556,23.4911111 41.6088889,23.6288889 C41.6777778,23.6288889 41.7466667,23.6977778 41.8844444,23.6977778 C41.9533333,23.6977778 42.0222222,23.7666667 42.0911111,23.8355556 C42.16,23.9044444 42.2288889,23.9044444 42.2977778,23.9733333 C42.5733333,24.2488889 42.7111111,24.5933333 42.7111111,24.9377778 C42.7111111,25.2822222 42.5733333,25.6266667 42.2977778,25.9022222 C42.2288889,25.9711111 42.16,26.04 42.0911111,26.04 C42.0222222,26.1088889 41.9533333,26.1777778 41.8844444,26.1777778 C41.8155556,26.2466667 41.7466667,26.2466667 41.6088889,26.2466667 C41.54,26.2466667 41.4022222,26.2466667 41.3333333,26.2466667 C40.9888889,26.3155556 40.6444444,26.1777778 40.3688889,25.9022222 Z" id="Shape"></path>
        </g>
    </g>
</svg>