<?xml version="1.0" encoding="UTF-8"?>
<svg width="85px" height="85px" viewBox="0 0 85 85" version="1.1" xmlns="http://www.w3.org/2000/svg" xmlns:xlink="http://www.w3.org/1999/xlink">
    <!-- Generator: Sketch 55.2 (78181) - https://sketchapp.com -->
    <title>crocodile</title>
    <desc>Created with Sketch.</desc>
    <g id="crocodile" stroke="none" stroke-width="1" fill="none" fill-rule="evenodd">
        <g id="iconfinder_crocodile-animal-reptile-amphibious_3283730" transform="translate(8.000000, 24.000000)" fill="#000000" fill-rule="nonzero">
            <path d="M55.4391017,7.15624313 L52.2664333,2.85046313 C52.0370133,2.56632707 51.6946628,2.40166487 51.3333333,2.40166487 C50.9720039,2.40166487 50.6296534,2.56632707 50.4002333,2.85046313 L47.2505717,7.125 L46.0827383,7.125 L42.9331,2.85046313 C42.7036799,2.56632707 42.3613294,2.40166487 42,2.40166487 C41.6386706,2.40166487 41.2963201,2.56632707 41.0669,2.85046312 L37.9172383,7.125 L36.749405,7.125 L33.5997667,2.85046313 C33.3703466,2.56632707 33.0279961,2.40166487 32.6666667,2.40166487 C32.3053372,2.40166487 31.9629867,2.56632707 31.7335667,2.85046313 L28.583905,7.125 L26.7154183,7.125 C26.1772492,4.41539237 23.8693986,2.44489055 21.1542986,2.37677393 C18.4391987,2.30865732 16.038775,4.16103763 15.37011,6.84036813 L8.9915,0.3479375 C8.77277252,0.125183225 8.47604307,3.10045511e-05 8.16663167,3.10045511e-05 C7.85722026,3.10045511e-05 7.56049081,0.125183225 7.34176333,0.3479375 L2.67509667,5.0979375 C2.45625036,5.32057083 2.33329379,5.62259902 2.33329379,5.93753563 C2.33329379,6.25247223 2.45625036,6.55450042 2.67509667,6.77713375 L3.37464167,7.48917062 L2.36805333,11.587435 C2.28115223,11.9421389 2.35957249,12.3178145 2.58065487,12.6059119 C2.80173726,12.8940093 3.14084713,13.0624265 3.49999996,13.0625 C3.59547704,13.0625509 3.69058727,13.0504757 3.78312667,13.0265544 L7.80855833,12.002205 L12.3502633,16.625 L1.16666667,16.625 C0.857222761,16.6249181 0.560429763,16.750003 0.341619872,16.9727202 C0.12280998,17.1954374 -3.95110481e-08,17.4975303 -3.95110481e-08,17.8125 L-3.95110481e-08,24.9375 C-3.95110481e-08,25.2524697 0.12280998,25.5545626 0.341619872,25.7772798 C0.560429763,25.999997 0.857222761,26.1250819 1.16666667,26.125 L40.4619133,26.125 C37.0389186,28.5686148 35.0006933,32.5568752 35,36.8125 C34.9999195,37.1274697 35.12281,37.4295626 35.3416199,37.6522798 C35.5604298,37.874997 35.8572228,38.0000033 36.1666667,38.0000033 L54.8333333,38.0000033 C63.0901453,38.0054224 69.8322409,31.2830861 69.9972667,22.8805081 C70.1622925,14.47793 63.6895299,7.48670327 55.4391017,7.15624312 L55.4391017,7.15624313 Z M51.3333333,5.5420625 L52.5,7.125 L50.1666667,7.125 L51.3333333,5.5420625 Z M42,5.5420625 L43.1666667,7.125 L40.8333333,7.125 L42,5.5420625 Z M32.6666667,5.5420625 L33.8333333,7.125 L31.5,7.125 L32.6666667,5.5420625 Z M21,4.75 C22.9329966,4.75 24.5,6.34498558 24.5,8.3125 C24.5,10.2800144 22.9329966,11.875 21,11.875 C19.0670034,11.875 17.5,10.2800144 17.5,8.3125 C17.502109,6.34587544 19.0678776,4.75214666 21,4.75 L21,4.75 Z M5.103595,10.243375 L5.29898833,9.44783313 L5.884655,10.0439581 L5.103595,10.243375 Z M54.8333333,35.625 L37.39771,35.625 C37.9984279,30.2188671 42.4881856,26.1316462 47.8333333,26.125 L56,26.125 C56.6443322,26.125 57.1666667,25.5933381 57.1666667,24.9375 C57.1666667,24.2816619 56.6443322,23.75 56,23.75 L49,23.75 L49,15.4375 C49,14.7816619 48.4776655,14.25 47.8333333,14.25 C47.1890011,14.25 46.6666667,14.7816619 46.6666667,15.4375 L46.6666667,23.75 L39.6666667,23.75 L39.6666667,21.375 L43.1666667,21.375 C43.4761106,21.3750819 43.7729036,21.249997 43.9917135,21.0272798 C44.2105234,20.8045626 44.3334138,20.5024697 44.3333333,20.1875 L44.3333333,15.4375 C44.3333333,14.7816619 43.8109989,14.25 43.1666667,14.25 C42.5223345,14.25 42,14.7816619 42,15.4375 L42,19 L38.5,19 C38.1905561,18.9999181 37.8937631,19.125003 37.6749532,19.3477202 C37.4561433,19.5704374 37.3332528,19.8725303 37.3333333,20.1875 L37.3333333,23.75 L32.6666667,23.75 L32.6666667,15.4375 C32.6666667,14.7816619 32.1443322,14.25 31.5,14.25 C30.8556678,14.25 30.3333333,14.7816619 30.3333333,15.4375 L30.3333333,23.75 L23.3333333,23.75 L23.3333333,21.375 L26.8333333,21.375 C27.1427772,21.3750819 27.4395702,21.249997 27.6583801,21.0272798 C27.87719,20.8045626 28.0000805,20.5024697 28,20.1875 L28,15.4375 C28,14.7816619 27.4776655,14.25 26.8333333,14.25 C26.1890011,14.25 25.6666667,14.7816619 25.6666667,15.4375 L25.6666667,19 L22.1666667,19 C21.8572228,18.9999181 21.5604298,19.125003 21.3416199,19.3477202 C21.12281,19.5704374 20.9999195,19.8725303 21,20.1875 L21,23.75 L2.33333333,23.75 L2.33333333,19 L15.1666667,19 C15.6385117,19.0000018 16.0638938,18.7106864 16.2444474,18.2669682 C16.4250011,17.8232501 16.3251669,17.3125177 15.9915,16.9729375 L5.14973667,5.9375 L8.16666667,2.86669625 L14.3418333,9.15213375 C14.560595,9.37480924 14.8572858,9.49993599 15.1666667,9.5 L15.2845817,9.5 C15.8389444,12.2644397 18.2280599,14.2499971 21,14.2499971 C23.7719401,14.2499971 26.1610556,12.2644397 26.7154183,9.5 L54.8333333,9.5 C61.9209876,9.5 67.6666667,15.3482805 67.6666667,22.5625 C67.6666667,29.7767195 61.9209876,35.625 54.8333333,35.625 Z" id="Shape"></path>
            <rect id="Rectangle" x="19.8333333" y="7.125" width="2.33333333" height="2.375"></rect>
        </g>
    </g>
</svg>