<?xml version="1.0" encoding="UTF-8"?>
<svg width="85px" height="85px" viewBox="0 0 85 85" version="1.1" xmlns="http://www.w3.org/2000/svg" xmlns:xlink="http://www.w3.org/1999/xlink">
    <!-- Generator: Sketch 55.2 (78181) - https://sketchapp.com -->
    <title>dive</title>
    <desc>Created with Sketch.</desc>
    <g id="dive" stroke="none" stroke-width="1" fill="none" fill-rule="evenodd">
        <g id="iconfinder_snorkel-dive-diving-sea_3916485" transform="translate(13.000000, 13.000000)" fill="#000000" fill-rule="nonzero">
            <path d="M41.348,18 L6.652,18 C5.09480064,18.1033616 3.91154806,19.4418826 4,21 L4,33 C4,35.757 5.917,38 8.273,38 L15.6,38 C18.215,38 20.278,35.96 20.858,32.8 C20.9483929,32.3336028 21.3579302,31.9975722 21.833,32 L26.127,32 C26.6038781,32.0060484 27.0113965,32.3451604 27.104,32.813 C27.76,35.771 29.979,38 32.269,38 L39.144,38 C40.4650016,38.0259631 41.7375501,37.502611 42.6580714,36.5547925 C43.5785926,35.6069741 44.0645445,34.3196792 44,33 L44,21 C44.0884519,19.4418826 42.9051994,18.1033616 41.348,18 Z M42,33 C42.0619555,33.7877858 41.7860899,34.5647673 41.2412261,35.1371032 C40.6963623,35.7094392 39.9338789,36.0231605 39.144,36 L32.269,36 C30.939,36 29.501,34.378 29.062,32.384 C28.7709344,30.9966672 27.5485351,30.002399 26.131,30 L25,30 L25,27 L23,27 L23,30 L21.837,30 C20.3976295,29.999442 19.1627115,31.0258073 18.9,32.441 C18.579,34.162 17.549,36 15.6,36 L8.273,36 C7.02,36 6,34.654 6,33 L6,21 C6,20.411 6.344,20 6.652,20 L41.352,20 C41.66,20 42.004,20.411 42.004,21 L42,33 Z" id="Shape"></path>
            <path d="M59.383,0.076 C59.0092224,-0.0788179285 58.5789855,0.00683472624 58.293,0.293 L54.293,4.293 C54.1054506,4.48049273 54.0000566,4.73480519 54,5 L54,22 L53,22 C51.7332146,22.0052514 50.6062546,22.8056491 50.184,24 L48,24 L48,21 C48,17.141 45.259,14 41.889,14 L6.111,14 C2.741,14 0,17.141 0,21 L0,35 C0,38.859 2.741,42 6.111,42 L17.186,42 C19.4554499,41.873629 21.5039189,40.5990847 22.62,38.619 C22.7591239,38.2638472 23.0922125,38.0221334 23.473,38 L24.527,38 C24.9077875,38.0221334 25.2408761,38.2638472 25.38,38.619 C26.4960811,40.5990847 28.5445501,41.873629 30.814,42 L41.889,42 C45.259,42 48,38.859 48,35 L48,32 L50.184,32 C50.6062546,33.1943509 51.7332146,33.9947486 53,34 L54,34 L54,53 C54,53.5522847 53.5522847,54 53,54 L35,54 C34.4477153,54 34,53.5522847 34,53 L34,52 L37,52 C38.7119443,51.9391634 40.0528237,50.5062103 40,48.794 L40,47.207 C40.0063839,46.1899921 39.5414913,45.2273432 38.741,44.6 C38.0345501,44.0518319 37.1105887,43.8697833 36.249,44.109 C32.8128599,45.0545359 29.1851401,45.0545359 25.749,44.109 C24.8871161,43.8691206 23.9625552,44.0512143 23.256,44.6 C22.4566345,45.2279519 21.9928949,46.1905069 22,47.207 L22,48.794 C21.9471763,50.5062103 23.2880557,51.9391634 25,52 L28,52 L28,55 C28.0033061,57.7600532 30.2399468,59.9966939 33,60 L55,60 C57.7600532,59.9966939 59.9966939,57.7600532 60,55 L60,1 C60,0.595570891 59.7565907,0.230896341 59.383,0.076 Z M58,30 L56,30 L56,26 L58,26 L58,30 Z M56,24 L56,12 L58,12 L58,24 L56,24 Z M56,5.414 L58,3.414 L58,10 L56,10 L56,5.414 Z M46,35 C46,37.757 44.155,40 41.889,40 L30.814,40 C29.3125622,39.8830645 27.9604595,39.0469888 27.185,37.756 C26.7146107,36.7046497 25.6786053,36.0202157 24.527,36 L23.473,36 C22.3213947,36.0202157 21.2853893,36.7046497 20.815,37.756 C20.0395405,39.0469888 18.6874378,39.8830645 17.186,40 L6.111,40 C3.845,40 2,37.757 2,35 L2,21 C2,18.243 3.845,16 6.111,16 L41.889,16 C44.155,16 46,18.243 46,21 L46,35 Z M48,26 L50,26 L50,30 L48,30 L48,26 Z M53,32 C52.4477153,32 52,31.5522847 52,31 L52,25 C52,24.4477153 52.4477153,24 53,24 L54,24 L54,32 L53,32 Z M24,48.794 L24,47.207 C23.9903576,46.8123626 24.1643421,46.4355811 24.471,46.187 C24.6199262,46.0686701 24.8038095,46.0029222 24.994,46 C25.070348,46.0006403 25.1462995,46.0110585 25.22,46.031 C29.0030953,47.0739932 32.9979047,47.0739932 36.781,46.031 C37.0408907,45.959007 37.3195526,46.0171236 37.529,46.187 C37.8356579,46.4355811 38.0096424,46.8123626 38,47.207 L38,48.794 C38.0511581,49.4013868 37.6063572,49.9378166 37,50 L25,50 C24.3936428,49.9378166 23.9488419,49.4013868 24,48.794 L24,48.794 Z M30,55 L30,52 L32,52 L32,53 C32,54.6568542 33.3431458,56 35,56 L38,56 L38,58 L33,58 C31.3431458,58 30,56.6568542 30,55 Z M40,56 L42,56 L42,58 L40,58 L40,56 Z M44,56 L46,56 L46,58 L44,58 L44,56 Z M48,58 L48,56 L50,56 L50,58 L48,58 Z M55,58 L52,58 L52,56 L53,56 C54.6568542,56 56,54.6568542 56,53 L56,32 L58,32 L58,55 C58,56.6568542 56.6568542,58 55,58 Z" id="Shape"></path>
            <rect id="Rectangle" x="31" y="25" width="3" height="2"></rect>
            <rect id="Rectangle" x="14" y="25" width="3" height="2"></rect>
        </g>
    </g>
</svg>