<?xml version="1.0" encoding="UTF-8"?>
<svg width="85px" height="85px" viewBox="0 0 85 85" version="1.1" xmlns="http://www.w3.org/2000/svg" xmlns:xlink="http://www.w3.org/1999/xlink">
    <!-- Generator: Sketch 55.2 (78181) - https://sketchapp.com -->
    <title>fish_sea</title>
    <desc>Created with Sketch.</desc>
    <g id="fish_sea" stroke="none" stroke-width="1" fill="none" fill-rule="evenodd">
        <g id="iconfinder_thin-0865_fish_sea_388269" transform="translate(8.000000, 6.000000)">
            <g id="Group" transform="translate(0.000000, 20.440000)" stroke="#000000" stroke-linecap="round" stroke-linejoin="round" stroke-width="2.91666667">
                <ellipse id="Oval" cx="13.334125" cy="16.138548" rx="2.47158333" ry="2.474408"></ellipse>
                <path d="M58.5643333,17.502188 C28.6766667,47.505772 8.69575,26.74866 2.81866667,19.639628 C1.79433333,18.400672 1.79433333,16.604288 2.81866667,15.365332 C8.69575,8.255716 28.6766667,-12.501104 58.5643333,17.502188 Z" id="Path"></path>
                <path d="M55.797875,14.6584 C55.797875,14.6584 65.1093333,5.557928 67.983125,5.17862 C67.983125,5.17862 68.305125,13.33126 65.3120417,17.502188 C68.305125,21.673408 67.983125,29.825756 67.983125,29.825756 C65.1093333,29.446448 55.797875,20.345976 55.797875,20.345976" id="Path"></path>
                <path d="M21.875,2.472948 L21.875,32.531428" id="Path"></path>
                <path d="M29.1030833,6.797468 C29.1030833,6.797468 30.7530417,8.67386 29.1030833,11.035556" id="Path"></path>
                <path d="M29.1030833,15.312772 C29.1030833,15.312772 30.7530417,17.189164 29.1030833,19.55086" id="Path"></path>
                <path d="M43.0339583,15.312772 C43.0339583,15.312772 44.6839167,17.189164 43.0339583,19.55086" id="Path"></path>
                <path d="M29.1030833,23.828076 C29.1030833,23.828076 30.7530417,25.704468 29.1030833,28.066164" id="Path"></path>
                <path d="M36.068375,11.133084 C36.068375,11.133084 37.7183333,13.009476 36.068375,15.371172" id="Path"></path>
                <path d="M36.068375,19.648388 C36.068375,19.648388 37.7183333,21.52478 36.068375,23.886476" id="Path"></path>
            </g>
            <rect id="Rectangle" x="0" y="0.057524" width="70" height="70.08"></rect>
        </g>
    </g>
</svg>