<?xml version="1.0" encoding="UTF-8"?>
<svg width="85px" height="85px" viewBox="0 0 85 85" version="1.1" xmlns="http://www.w3.org/2000/svg" xmlns:xlink="http://www.w3.org/1999/xlink">
    <!-- Generator: Sketch 55.2 (78181) - https://sketchapp.com -->
    <title>fish-animal</title>
    <desc>Created with Sketch.</desc>
    <g id="fish-animal" stroke="none" stroke-width="1" fill="none" fill-rule="evenodd">
        <g id="iconfinder_fish-animal-food-diet-healthy_3596516" transform="translate(3.000000, 29.000000)" fill="#000000" fill-rule="nonzero">
            <path d="M24.7106667,26.6666667 L42.8,26.6666667 C46.1548076,26.668703 49.4906717,26.1638957 52.6946667,25.1693333 L57.6626667,27.1693333 C59.0358519,27.7198634 60.5019019,28.0018483 61.9813333,28 L62.6666667,28 C63.4030463,28 64,27.4030463 64,26.6666667 C63.9896992,24.481677 63.1713992,22.3777486 61.7026667,20.76 C62.0453333,20.5213333 62.3866667,20.28 62.7213333,20.028 L73.788,21.872 C75.334802,22.1303661 76.9169217,21.6948652 78.1136104,20.6813143 C79.3102991,19.6677634 80.0000001,18.178898 80.0000001,16.6106667 L80.0000001,15.3893333 C79.9985607,13.8225845 79.3082886,12.3357178 78.1124387,11.3234694 C76.9165887,10.3112211 75.3361376,9.87599407 73.7906667,10.1333333 L62.724,11.9773333 C62.3893333,11.7253333 62.0493333,11.484 61.7066667,11.2466667 C63.1752617,9.62648015 63.9921875,7.52004654 64,5.33333333 C64,4.59695367 63.4030463,4 62.6666667,4 L61.9813333,4 C60.5026837,3.99861944 59.037512,4.28106219 57.6653333,4.832 L52.9173333,6.73333333 L52.66,6.81866667 C49.46654,5.83135936 46.1425971,5.33063288 42.8,5.33333333 L40,5.33333333 L42.4,2.13333333 C42.7030176,1.7293098 42.7517589,1.18876058 42.5259029,0.737048539 C42.3000469,0.285336502 41.8383627,0 41.3333333,0 L32.348,0 C28.720511,0.0150511862 25.4195571,2.09852922 23.8453333,5.36666667 C17.3319147,5.51870625 11.0091331,7.59475349 5.67333333,11.3333333 L0.569333333,14.9066667 C0.213154646,15.1562064 0.00105802249,15.5637721 0.00105802249,15.9986667 C0.00105802249,16.4335613 0.213154646,16.841127 0.569333333,17.0906667 L5.67333333,20.6666667 C11.2488915,24.5812788 17.8981097,26.6769142 24.7106667,26.6666667 L24.7106667,26.6666667 Z M38.444,24.0000389 C39.0014691,23.3708296 39.4792912,22.6753678 39.8666667,21.9293333 C40.1958283,21.2702735 39.9283931,20.4691618 39.2693333,20.1400001 C38.6102735,19.8108384 37.8091617,20.0782736 37.48,20.7373333 C36.7771969,22.1226057 35.668831,23.2607389 34.3026667,24.0000389 L30.436,24.0000389 C30.9962739,23.3712747 31.4767961,22.6757938 31.8666667,21.9293333 C32.1958283,21.2702735 31.9283931,20.4691618 31.2693333,20.1400001 C30.6102735,19.8108384 29.8091617,20.0782736 29.48,20.7373333 C28.7771969,22.1226057 27.668831,23.2607389 26.3026667,24.0000389 L24.7106667,24.0000389 C22.8714442,23.99432 21.0364726,23.8229607 19.228,23.488 C20.366533,21.6176625 21.065442,19.5131851 21.272,17.3333333 L61.8053333,17.3333333 C56.4163034,21.6586898 49.7101541,24.0110644 42.8,24.0000389 L38.444,24.0000389 Z M61.18,25.2973333 C60.314071,25.2197767 59.4641659,25.0158354 58.6573333,24.692 L56.3693333,23.7773333 C57.4066442,23.3128898 58.4191204,22.794858 59.4026667,22.2253333 C60.2808248,23.0546101 60.8976372,24.1223304 61.1773333,25.2973333 L61.18,25.2973333 Z M74.2306667,12.764 C75.0026339,12.6360601 75.7918372,12.8536365 76.3891849,13.3590845 C76.9865326,13.8645326 77.3317347,14.6068377 77.3333339,15.3893333 L77.3333339,16.6106667 C77.3338219,17.3948777 76.9890998,18.1395492 76.3908629,18.6465993 C75.792626,19.1536494 75.0015279,19.3716696 74.228,19.2426667 L65.4053333,17.776 C65.6986667,17.5093333 65.9906667,17.232 66.2746667,16.948 C66.5254445,16.6978553 66.6663834,16.358206 66.6663834,16.004 C66.6663834,15.649794 66.5254445,15.3101447 66.2746667,15.06 C65.9906667,14.776 65.6986667,14.5053333 65.4053333,14.232 L74.2306667,12.764 Z M58.656,7.30666667 C59.4626015,6.98379697 60.3119892,6.78032123 61.1773333,6.70266667 C60.8976884,7.87676466 60.2797238,8.9430202 59.4,9.76933333 C58.4109451,9.19661095 57.3926711,8.67590262 56.3493333,8.20933333 L58.656,7.30666667 Z M32.348,2.66666667 L38.6666667,2.66666667 L36.6666667,5.33333333 L26.9533333,5.33333333 C28.2414963,3.65690483 30.2338223,2.67206747 32.348,2.66666667 L32.348,2.66666667 Z M7.2,13.52 C12.3277277,9.91977622 18.442608,7.99184959 24.708,7.99995677 L42.8,7.99995677 C49.7110686,7.9883269 56.4182571,10.3407359 61.808,14.6666667 L20,14.6666667 C19.2636203,14.6666667 18.6666667,15.2636203 18.6666667,16 C18.6670536,18.345594 17.9709719,20.6384874 16.6666667,22.588 L16.4866667,22.8546667 C13.1657681,21.9327144 10.0255651,20.4534601 7.2,18.48 L3.65866667,16 L7.2,13.52 Z" id="Shape"></path>
            <path d="M13.3333333,16 C13.5075697,15.9978934 13.6797036,15.9616546 13.84,15.8933333 C14.4599666,15.6221819 14.7785156,14.9296327 14.5809533,14.2824458 C14.383391,13.635259 13.7323723,13.2386831 13.0666667,13.36 C12.9831166,13.3745164 12.9022166,13.4014831 12.8266667,13.44 C12.7413694,13.4693906 12.6602474,13.5097275 12.5853333,13.56 L12.3866667,13.72 C11.8710129,14.2457815 11.8710129,15.0875519 12.3866667,15.6133333 C12.6406055,15.8593964 12.9797409,15.9979165 13.3333333,16 Z" id="Path"></path>
        </g>
    </g>
</svg>