<?xml version="1.0" encoding="UTF-8"?>
<svg width="85px" height="85px" viewBox="0 0 85 85" version="1.1" xmlns="http://www.w3.org/2000/svg" xmlns:xlink="http://www.w3.org/1999/xlink">
    <!-- Generator: Sketch 55.2 (78181) - https://sketchapp.com -->
    <title>flying</title>
    <desc>Created with Sketch.</desc>
    <g id="flying" stroke="none" stroke-width="1" fill="none" fill-rule="evenodd" stroke-linecap="round" stroke-linejoin="round">
        <g id="iconfinder_flying_torpedo-weapon-war-army_4167348" transform="translate(15.000000, 16.000000)" stroke="#000000" stroke-width="1.87826087">
            <polyline id="Path" points="17.9883667 22.0420957 20.0762333 24.1429304 26.2215333 17.9596957 24.0709 15.7957043"></polyline>
            <polyline id="Path" points="37.9376667 20.304 26.5141333 17.6652783 19.7836333 24.4373478 22.4063 35.9320696"></polyline>
            <path d="M37.2171333,51.0626348 C41.6045,55.0161391 48.3427,54.8846609 52.5581,50.6430783 C56.7735,46.4014957 56.9039333,39.6214435 52.9750667,35.2068261" id="Path"></path>
            <path d="M38.2886,20.385 L37.9376667,20.304 L22.4063,35.9318348 L22.4868,36.2849478 L36.7560667,50.6428435 C36.9042333,50.7919304 37.0629,50.9231739 37.2171333,51.0624 L52.9748333,35.2068261 C52.8367,35.0518696 52.7062667,34.8919826 52.5578667,34.7428957 L38.2886,20.385 Z" id="Path"></path>
            <polygon id="Path" points="13.9311667 12.659713 20.9094667 19.6813565 21.1841 19.4949391 27.9771333 9.12623478 20.9542667 2.05951304"></polygon>
            <polygon id="Path" points="3.3964 19.7264348 10.4195 26.7931565 20.9094667 19.6813565 13.9311667 12.659713"></polygon>
            <path d="M41.0585,14.0341304 L50.7698333,23.8057826" id="Path"></path>
            <path d="M38.3548667,11.3134696 L39.0985,12.0619565" id="Path"></path>
            <path d="M41.5216667,8.25401739 L48.2869333,15.0613043" id="Path"></path>
            <path d="M37.6007333,4.30873043 L38.9610667,5.67751304" id="Path"></path>
            <path d="M33.3886,0.0704347826 L35.2802333,1.97381739" id="Path"></path>
            <path d="M2.87956667,34.9607739 L12.5911333,44.7326609" id="Path"></path>
            <path d="M0.175933333,32.2403478 L0.9926,33.0618522" id="Path"></path>
            <path d="M18.2410667,41.6729739 L25.0063333,48.4802609" id="Path"></path>
            <path d="M14.3201333,37.727687 L15.6804667,39.0964696" id="Path"></path>
            <path d="M10.108,33.4896261 L11.9996333,35.3927739" id="Path"></path>
        </g>
    </g>
</svg>