<?xml version="1.0" encoding="UTF-8"?>
<svg width="85px" height="85px" viewBox="0 0 85 85" version="1.1" xmlns="http://www.w3.org/2000/svg" xmlns:xlink="http://www.w3.org/1999/xlink">
    <!-- Generator: Sketch 55.2 (78181) - https://sketchapp.com -->
    <title>jellyfish</title>
    <desc>Created with Sketch.</desc>
    <g id="jellyfish" stroke="none" stroke-width="1" fill="none" fill-rule="evenodd">
        <g id="iconfinder_jellyfish_animal_sea_4825306" transform="translate(19.000000, 11.000000)" fill="#000000" fill-rule="nonzero">
            <path d="M23.6945424,0.00260159863 C11.1436982,0.00260159863 0.797105768,9.07675397 0.797105768,21.7337502 C0.797105768,24.3500847 1.42247098,27.2282991 2.7625013,29.5780528 C4.04712002,31.8305943 6.14365734,33.6384236 8.87993716,33.7856113 C8.92276652,33.825073 8.96839147,33.8613753 9.01645409,33.8942335 C9.56453411,34.2785187 10.4404816,35.0790369 10.4404816,36.2291543 C10.4404816,37.8391818 8.69634804,38.7692251 8.69634804,38.7692251 C8.69634804,38.7692251 5.61761899,40.2566646 5.61761899,43.4768107 C5.61761899,46.6969112 8.69634804,48.1725301 8.69634804,48.1725301 C8.69634804,48.1725301 10.4404816,49.1025734 10.4404816,50.7126465 C10.4404816,52.3226739 8.69634804,53.2621647 8.69634804,53.2621647 C8.69634804,53.2621647 5.61761899,54.7401568 5.61761899,57.9603029 C5.61761899,61.1804034 8.69634804,62.6678429 8.69634804,62.6678429 C9.08275354,62.8603793 9.54231812,62.8317315 9.9019282,62.592691 C10.2615383,62.3536504 10.4665605,61.9405331 10.439765,61.5089562 C10.4129694,61.0773794 10.158427,60.6929099 9.77202143,60.5003737 C9.77202143,60.5003737 8.02787514,59.5703304 8.02787514,57.9603029 C8.02787514,56.3502299 9.77202143,55.4201865 9.77202143,55.4201865 C9.77202143,55.4201865 12.8507382,53.932747 12.8507382,50.7126465 C12.8507382,47.4925004 9.77202143,46.0168815 9.77202143,46.0168815 C9.77202143,46.0168815 8.02787514,45.0868382 8.02787514,43.4768107 C8.02787514,41.8667377 9.77202143,40.9272469 9.77202143,40.9272469 C9.77202143,40.9272469 12.8507382,39.4492548 12.8507382,36.2291543 C12.8507382,35.1445754 12.4925612,34.2643705 12.0292745,33.5664044 C14.4797943,33.1816627 16.696459,32.4217181 19.1705996,31.9036632 C19.6459984,32.3582334 20.0838697,32.976239 20.0838697,33.8140447 C20.0838697,35.4241178 18.3303118,36.3541611 18.3303118,36.3541611 C18.3303118,36.3541611 15.2609948,37.8392274 15.2609948,41.0593279 C15.2609948,44.279474 18.3303118,45.7574661 18.3303118,45.7574661 C18.3303118,45.7574661 20.0838697,46.6874638 20.0838697,48.2975369 C20.0838697,49.90761 18.3303118,50.8470551 18.3303118,50.8470551 C18.3303118,50.8470551 15.2609948,52.3250928 15.2609948,55.5451933 C15.2609948,58.7653395 18.3303118,60.2527333 18.3303118,60.2527333 C18.7150432,60.4470381 19.1740068,60.420894 19.5342827,60.1841512 C19.8945585,59.9474084 20.1013997,59.5360419 20.0768764,59.1050389 C20.0523531,58.6740359 19.8001918,58.2888907 19.4153972,58.0947115 C19.4153972,58.0947115 17.6736131,57.1552664 17.6736131,55.5451933 C17.6736131,53.9351203 19.4153972,53.0050769 19.4153972,53.0050769 C19.4153972,53.0050769 22.4847019,51.517683 22.4847019,48.2975369 C22.4847019,45.0773908 19.4153972,43.5994443 19.4153972,43.5994443 C19.4153972,43.5994443 17.6736131,42.669401 17.6736131,41.0593279 C17.6736131,39.4493005 19.4153972,38.5098097 19.4153972,38.5098097 C19.4153972,38.5098097 22.4847019,37.0341909 22.4847019,33.8140447 C22.4847019,32.9097421 22.2314223,32.1298073 21.877438,31.4885713 C22.4627327,31.4356293 23.0611029,31.3968357 23.6945424,31.3968357 C25.67287,31.3968357 27.3843555,31.6939494 29.0022897,32.0737163 C29.0301896,32.1173308 29.0608613,32.1591012 29.0941148,32.1987687 C29.4548562,32.6332575 29.7178649,33.1448316 29.7178649,33.8143186 C29.7178649,35.4243916 27.9737167,36.354435 27.9737167,36.354435 C27.9737167,36.354435 24.8949895,37.8395012 24.8949895,41.0596017 C24.8949895,44.2797479 27.9737167,45.75774 27.9737167,45.75774 C27.9737167,45.75774 29.7178649,46.6877377 29.7178649,48.2978108 C29.7178649,49.9078838 27.9737167,50.8473289 27.9737167,50.8473289 C27.9737167,50.8473289 24.8949895,52.3253667 24.8949895,55.5454672 C24.8949895,58.7656133 27.9737167,60.2530072 27.9737167,60.2530072 C28.3608775,60.4676989 28.8343163,60.4525473 29.2070151,60.2135375 C29.579714,59.9745276 29.7917351,59.5500975 29.7593258,59.1079055 C29.7269165,58.6657135 29.4552888,58.2768736 29.0517413,58.0949853 C29.0517413,58.0949853 27.3076069,57.1555402 27.3076069,55.5454672 C27.3076069,53.9354397 29.0517413,53.0053508 29.0517413,53.0053508 C29.0517413,53.0053508 32.1281219,51.5179569 32.1281219,48.2978108 C32.1281219,45.0776646 29.0517413,43.5997181 29.0517413,43.5997181 C29.0517413,43.5997181 27.3076069,42.6696748 27.3076069,41.0596017 C27.3076069,39.4495743 29.0517413,38.5100836 29.0517413,38.5100836 C29.0517413,38.5100836 32.1281219,37.0344647 32.1281219,33.8143186 C32.1281219,33.4738473 32.089406,33.1503083 32.024591,32.8449795 C33.8765379,33.3344184 35.7414979,33.7603269 37.8713433,33.797797 C37.9283403,33.8635398 37.992267,33.9229123 38.0620078,33.9748786 C38.6219222,34.3965883 39.361278,35.158176 39.361278,36.2296107 C39.361278,37.8396381 37.6171345,38.7696815 37.6171345,38.7696815 C37.6171345,38.7696815 34.5407666,40.257121 34.5407666,43.4772671 C34.5407666,46.6973676 37.6171345,48.1729865 37.6171345,48.1729865 C37.6171345,48.1729865 39.361278,49.1030298 39.361278,50.7131029 C39.361278,52.3231303 37.6171345,53.2626211 37.6171345,53.2626211 C37.6171345,53.2626211 34.5407666,54.7406132 34.5407666,57.9607593 C34.5407666,61.1808598 37.6171345,62.6682993 37.6171345,62.6682993 C38.2144656,62.9665877 38.9400242,62.7231936 39.237715,62.1246635 C39.5354058,61.5261334 39.2924993,60.7991184 38.6951682,60.5008301 C38.6951682,60.5008301 36.9510246,59.5707868 36.9510246,57.9607593 C36.9510246,56.3506863 38.6951682,55.4206429 38.6951682,55.4206429 C38.6951682,55.4206429 41.771536,53.9332034 41.771536,50.7131029 C41.771536,47.4929568 38.6951682,46.0173379 38.6951682,46.0173379 C38.6951682,46.0173379 36.9510246,45.0872946 36.9510246,43.4772671 C36.9510246,41.8671941 38.6951682,40.9277033 38.6951682,40.9277033 C38.6951682,40.9277033 41.771536,39.4497112 41.771536,36.2296107 C41.771536,34.9833764 41.2981404,34.001167 40.7335255,33.2626273 C42.3955275,32.5407005 43.716433,31.1747535 44.6266537,29.5786462 C45.9666849,27.2288924 46.5943977,24.350678 46.5943977,21.7343435 C46.5943977,9.07734728 36.2454108,0.00260159863 23.6946121,0.00260159863 L23.6945424,0.00260159863 Z M23.6945424,2.41766556 C35.1043931,2.41766556 44.1817211,10.3819546 44.1817211,21.7337502 C44.1817211,23.9475436 43.6066347,26.5080153 42.5364444,28.3846691 C41.4661948,30.2612773 40.0689324,31.3964706 38.1607927,31.3964706 C33.7419841,31.3964706 30.0415437,28.981361 23.6945424,28.981361 C17.3474933,28.981361 13.6494128,31.3964706 9.23065339,31.3964706 C7.32250186,31.3964706 5.92284172,30.2612773 4.85263957,28.3846691 C3.78244972,26.5080153 3.20736238,23.9475436 3.20736238,21.7337502 C3.20736238,10.3819546 12.2846411,2.41766556 23.6945424,2.41766556 Z M36.9415415,12.0615006 C36.4481658,12.0577248 36.0022956,12.3556114 35.8161086,12.8134403 C35.6299216,13.2712692 35.7410224,13.7965716 36.0965412,14.1393699 C36.0965412,14.1393699 36.7894289,14.8048406 37.3157833,16.3870279 C37.8421469,17.9692608 38.1410157,20.3732344 37.0121593,23.7667653 C36.8748778,24.1764441 36.9663463,24.6283948 37.2520589,24.9521215 C37.5377714,25.2758483 37.9742453,25.4220829 38.3968231,25.3356592 C38.819401,25.2492356 39.1637705,24.9433065 39.3000203,24.533282 C40.58134,20.6814841 40.2801027,17.6585922 39.6013213,15.6181379 C38.9225582,13.5777292 37.8053941,12.4271098 37.8053941,12.4271098 C37.5785061,12.193409 37.2669541,12.0615006 36.9415688,12.0615006 L36.9415415,12.0615006 Z" id="path5407"></path>
        </g>
    </g>
</svg>