<?xml version="1.0" encoding="UTF-8"?>
<svg width="85px" height="85px" viewBox="0 0 85 85" version="1.1" xmlns="http://www.w3.org/2000/svg" xmlns:xlink="http://www.w3.org/1999/xlink">
    <!-- Generator: Sketch 55.2 (78181) - https://sketchapp.com -->
    <title>Phone</title>
    <desc>Created with Sketch.</desc>
    <g id="Phone" stroke="none" stroke-width="1" fill="none" fill-rule="evenodd" stroke-linecap="round" stroke-linejoin="round">
        <g id="iconfinder_soilder-29_3038590" transform="translate(29.000000, 15.000000)" stroke="#373737" stroke-width="2">
            <path d="M8,13 L4,13 L4,2 C4,0.8954305 4.8954305,0 6,0 L6,0 C7.1045695,0 8,0.8954305 8,2 L8,13 Z" id="Path"></path>
            <path d="M15,8 L15,8 C16.1045695,8 17,8.8954305 17,10 L17,13 L13,13 L13,10 C13,8.8954305 13.8954305,8 15,8 Z" id="Path"></path>
            <path d="M23,8 L23,8 C24.1045695,8 25,8.8954305 25,10 L25,13 L21,13 L21,10 C21,8.8954305 21.8954305,8 23,8 Z" id="Path"></path>
            <rect id="Rectangle" x="0" y="13" width="28" height="43" rx="4"></rect>
            <rect id="Rectangle" x="4" y="17" width="20" height="7"></rect>
            <circle id="Oval" cx="14" cy="34" r="2"></circle>
            <circle id="Oval" cx="22" cy="34" r="2"></circle>
            <circle id="Oval" cx="6" cy="34" r="2"></circle>
            <circle id="Oval" cx="14" cy="42" r="2"></circle>
            <circle id="Oval" cx="22" cy="42" r="2"></circle>
            <circle id="Oval" cx="6" cy="42" r="2"></circle>
            <circle id="Oval" cx="14" cy="50" r="2"></circle>
            <circle id="Oval" cx="22" cy="50" r="2"></circle>
            <circle id="Oval" cx="6" cy="50" r="2"></circle>
            <path d="M3,28 L25,28" id="Path"></path>
        </g>
    </g>
</svg>