<?xml version="1.0" encoding="UTF-8"?>
<svg width="85px" height="85px" viewBox="0 0 85 85" version="1.1" xmlns="http://www.w3.org/2000/svg" xmlns:xlink="http://www.w3.org/1999/xlink">
    <!-- Generator: Sketch 55.2 (78181) - https://sketchapp.com -->
    <title>propeller</title>
    <desc>Created with Sketch.</desc>
    <g id="propeller" stroke="none" stroke-width="1" fill="none" fill-rule="evenodd">
        <g id="iconfinder_thin-1406_boat_sea_propeller_1805521" transform="translate(13.000000, 13.000000)">
            <g id="Layer_1-2" stroke="#000000" stroke-linecap="round" stroke-linejoin="round" stroke-width="2.5">
                <path d="M24.2825,34.87405 C18.0775,36.2761 7.332825,39.01405 4.646475,41.700675 C0.825159919,45.5374396 0.831450881,51.7436285 4.66053645,55.5726383 C8.48962201,59.401648 14.695811,59.4078161 18.5325,55.586425 C21.1781,52.941125 25.045825,43.633925 27.191025,38.11445" id="Path"></path>
                <path d="M35.7175,34.87405 C41.9225,36.2761 52.667175,39.01405 55.353525,41.700675 C57.8401524,44.1799408 58.8135311,47.7983838 57.9063602,51.1905978 C56.9991894,54.5828118 54.3495763,57.2323677 50.9573427,58.1394653 C47.5651091,59.0465628 43.9466871,58.0731059 41.467475,55.586425 C38.821875,52.941125 34.95415,43.633925 32.80895,38.11445" id="Path"></path>
                <path d="M32.81955,27.26715 C35.312325,22.120375 38.5915626,14.713025 38.5915626,11.350375 C38.5971534,7.83868351 36.7269057,4.59134671 33.6866221,2.8338814 C30.6463386,1.0764161 26.8989364,1.0764161 23.8586529,2.8338814 C20.8183693,4.59134671 18.9481216,7.83868351 18.9537124,11.350375 C18.9537124,14.776875 23.3842,22.40115 26.648725,27.555725" id="Path"></path>
                <circle id="Oval" cx="30" cy="32.6878" r="6.136825"></circle>
            </g>
            <g id="Layer_2-2">
                <rect id="Rectangle" x="0" y="0" width="60" height="60"></rect>
            </g>
        </g>
    </g>
</svg>