<?xml version="1.0" encoding="UTF-8"?>
<svg width="85px" height="85px" viewBox="0 0 85 85" version="1.1" xmlns="http://www.w3.org/2000/svg" xmlns:xlink="http://www.w3.org/1999/xlink">
    <!-- Generator: Sketch 55.2 (78181) - https://sketchapp.com -->
    <title>quarium</title>
    <desc>Created with Sketch.</desc>
    <g id="quarium" stroke="none" stroke-width="1" fill="none" fill-rule="evenodd">
        <g id="iconfinder_yummy-aquarium-14_1341807" transform="translate(8.000000, 23.000000)" fill="#33373D" fill-rule="nonzero">
            <path d="M67.41,17.6842105 C67.34,17.6140351 67.34,17.6140351 67.41,17.6842105 C66.78,16.1403509 65.38,15.0877193 63.7,15.0877193 C62.86,15.0877193 62.09,15.3684211 61.53,15.7894737 L57.19,15.7894737 C55.79,12.8421053 53.2,9.75438596 49.84,7.15789474 C49.21,6.66666667 48.58,6.24561404 47.95,5.8245614 L47.95,5.8245614 C42.42,2.03508772 35.91,0 29.4,0 L29.4,0 L29.4,0 L29.4,0 C22.12,0 14.84,2.52631579 8.96,7.15789474 C3.64,11.2982456 0.35,16.4912281 0.35,20.7719298 C0.35,22.9473684 1.05,25.4736842 4.48,27.5789474 C3.64,28.7017544 3.22,30.0350877 3.22,31.5087719 C3.22,33.2631579 3.92,34.9473684 5.18,36.2105263 C6.51,37.5438596 8.19,38.1754386 9.87,38.1754386 C11.55,38.1754386 13.3,37.5438596 14.56,36.2105263 L19.53,31.2280702 C22.4,31.4385965 25.69,31.5789474 29.4,31.5789474 L29.4,31.5789474 L29.4,31.5789474 L29.4,31.5789474 C31.57,31.5789474 33.88,31.5087719 36.19,31.4385965 L36.19,32.7017544 C36.19,36.3508772 39.2,39.3684211 42.84,39.3684211 C46.48,39.3684211 49.49,36.3508772 49.49,32.7017544 L49.49,30.0350877 L62.58,30.0350877 C66.5,30.0350877 69.65,26.877193 69.65,22.9473684 C69.65,20.9122807 68.81,19.0175439 67.41,17.6842105 Z M65.45,18.9473684 C65.45,19.9298246 64.68,20.7017544 63.7,20.7017544 C62.72,20.7017544 61.95,19.9298246 61.95,18.9473684 C61.95,17.9649123 62.72,17.1929825 63.7,17.1929825 C64.68,17.1929825 65.45,17.9649123 65.45,18.9473684 Z M56.35,20.7719298 C56.35,23.9298246 53.76,26.245614 48.51,27.6491228 C47.88,25.5438596 47.81,23.6491228 47.81,22.5263158 C48.09,22.5263158 48.37,22.5263158 48.65,22.5263158 C51.73,22.5263158 54.39,21.6842105 56.28,20.2105263 C56.35,20.4210526 56.35,20.5614035 56.35,20.7719298 Z M30.45,29.4035088 L30.45,24.3508772 C34.79,24.1403509 37.8,22.5964912 39.2,20 C40.6,21.8947368 42.98,22.3859649 45.71,22.4561404 C45.71,23.7192982 45.78,25.8245614 46.48,28.0701754 C42.42,28.9824561 37.1,29.4035088 30.45,29.4035088 Z M12.32,28.1403509 C13.02,25.8245614 13.09,23.7192982 13.09,22.5263158 C15.82,22.3859649 18.27,21.8947368 19.6,20.0701754 C21,22.6666667 24.01,24.2105263 28.35,24.4210526 L28.35,29.4736842 C21.7,29.4035088 16.38,28.9824561 12.32,28.1403509 Z M30.45,5.47368421 L30.45,2.10526316 C35.7,2.31578947 40.6,3.85964912 44.66,6.1754386 C33.74,8.35087719 30.94,6.10526316 30.45,5.47368421 Z M28.35,5.47368421 C27.86,6.03508772 25.06,8.28070175 14.14,6.1754386 C18.2,3.85964912 23.1,2.31578947 28.35,2.10526316 L28.35,5.47368421 Z M22.12,9.19298246 C23.87,9.19298246 25.41,8.98245614 26.74,8.63157895 C28,8.28070175 28.84,7.78947368 29.4,7.36842105 C29.96,7.78947368 30.8,8.28070175 32.06,8.63157895 C33.32,8.98245614 34.86,9.19298246 36.68,9.19298246 C36.96,9.19298246 37.17,9.19298246 37.45,9.19298246 L38.01,16.2105263 C38.01,20.2807018 35.07,22.3157895 29.4,22.3157895 C23.73,22.3157895 20.79,20.2807018 20.79,16.2105263 L21.35,9.19298246 C21.63,9.19298246 21.91,9.19298246 22.12,9.19298246 Z M55.58,17.1929825 C55.58,17.1929825 55.58,17.2631579 55.58,17.1929825 C55.65,17.4736842 55.79,17.6842105 55.86,17.8245614 C54.39,19.4385965 51.87,20.3508772 48.72,20.3508772 C42.91,20.3508772 40.39,20.1403509 40.11,16 C40.11,16 40.11,16 40.11,15.9298246 L39.55,8.98245614 C41.79,8.77192982 44.38,8.35087719 47.25,7.71929825 C51.24,10.5964912 54.25,14.0350877 55.58,17.1929825 Z M11.55,7.78947368 C14.42,8.42105263 17.01,8.84210526 19.25,9.05263158 L18.69,16.0701754 C18.41,20.2807018 15.89,20.4210526 10.08,20.4210526 C6.93,20.4210526 4.41,19.5087719 2.94,17.8947368 C4.2,14.4561404 7.28,10.7368421 11.55,7.78947368 Z M2.45,20.7719298 C2.45,20.6315789 2.45,20.4210526 2.45,20.2807018 C4.34,21.754386 7,22.5964912 10.08,22.5964912 C10.36,22.5964912 10.64,22.5964912 10.92,22.5964912 C10.92,23.7192982 10.85,25.6140351 10.22,27.7192982 C5.04,26.1754386 2.45,23.9298246 2.45,20.7719298 Z M13.09,34.6666667 C12.11,35.6491228 10.71,36.1403509 9.38,36 L11.69,33.6842105 C12.11,33.2631579 12.11,32.6315789 11.69,32.2105263 C11.27,31.7894737 10.64,31.7894737 10.22,32.2105263 L7.35,35.0877193 C7.35,35.0877193 7.35,35.1578947 7.28,35.1578947 C7.07,35.0175439 6.86,34.877193 6.65,34.6666667 C6.44,34.4561404 6.23,34.1754386 6.09,33.9649123 L8.54,31.5087719 C8.96,31.0877193 8.96,30.4561404 8.54,30.0350877 C8.12,29.6140351 7.49,29.6140351 7.07,30.0350877 L5.39,31.7192982 C5.39,31.6491228 5.39,31.5789474 5.39,31.4385965 C5.39,30.3157895 5.74,29.3333333 6.44,28.4912281 C7.56,28.9824561 8.89,29.4035088 10.43,29.8245614 C10.5,29.8245614 10.5,29.8947368 10.57,29.8947368 C10.71,29.9649123 10.85,29.9649123 10.92,29.9649123 C10.92,29.9649123 10.92,29.9649123 10.99,29.9649123 C12.67,30.3859649 14.63,30.6666667 16.87,30.9473684 L13.09,34.6666667 Z M45.71,36.2105263 L45.71,32.9824561 C45.71,32.4210526 45.22,31.9298246 44.66,31.9298246 C44.1,31.9298246 43.61,32.4210526 43.61,32.9824561 L43.61,37.122807 L43.61,37.1929825 C43.4,37.1929825 43.12,37.1929825 42.84,37.1929825 C42.49,37.1929825 42.21,37.1929825 41.93,37.122807 L41.93,33.6842105 C41.93,33.122807 41.44,32.6315789 40.88,32.6315789 C40.32,32.6315789 39.83,33.122807 39.83,33.6842105 L39.83,36.0701754 C38.92,35.2280702 38.29,34.0350877 38.29,32.7017544 L38.29,31.3684211 C41.44,31.1578947 44.59,30.8070175 47.39,30.1754386 L47.39,32.7719298 C47.46,34.0350877 46.76,35.3684211 45.71,36.2105263 Z M62.58,27.8596491 L53.69,27.8596491 C56.63,26.245614 58.45,24 58.45,20.7719298 C58.45,19.8596491 58.31,18.877193 57.96,17.8947368 L59.99,17.8947368 C59.92,18.245614 59.85,18.5964912 59.85,18.9473684 C59.85,21.0526316 61.6,22.8070175 63.7,22.8070175 C65.17,22.8070175 66.43,21.9649123 67.06,20.7719298 C67.34,21.4035088 67.55,22.1052632 67.55,22.877193 C67.55,25.6140351 65.31,27.8596491 62.58,27.8596491 Z" id="Shape"></path>
        </g>
    </g>
</svg>