<?xml version="1.0" encoding="UTF-8"?>
<svg width="85px" height="85px" viewBox="0 0 85 85" version="1.1" xmlns="http://www.w3.org/2000/svg" xmlns:xlink="http://www.w3.org/1999/xlink">
    <!-- Generator: Sketch 55.2 (78181) - https://sketchapp.com -->
    <title>radar</title>
    <desc>Created with Sketch.</desc>
    <g id="radar" stroke="none" stroke-width="1" fill="none" fill-rule="evenodd" stroke-linecap="round" stroke-linejoin="round">
        <g id="iconfinder_radar-weapon-war-army_4167392" transform="translate(15.000000, 14.000000)" stroke="#000000" stroke-width="1.93333333">
            <path d="M0.0475219298,29 L33.6971491,29" id="Path"></path>
            <path d="M28.8725877,0.122525 L28.8725877,57.877475" id="Path"></path>
            <path d="M36.4251974,30.9852917 C35.5480921,34.3430083 32.4992105,36.820575 28.8725877,36.820575 C24.5611184,36.820575 21.0662061,33.3190667 21.0662061,29 C21.0662061,24.6809333 24.5613596,21.179425 28.8725877,21.179425 C31.9820175,21.179425 34.6666447,23.000625 35.9219956,25.6362417" id="Path"></path>
            <path d="M19.8685088,42.3216333 C22.4363816,44.06695 25.5356798,45.0867833 28.8728289,45.0867833 C37.7413377,45.0867833 44.9304167,37.8846333 44.9304167,29 L39.0893202,29" id="Path"></path>
            <path d="M33.7555263,29 L28.8725877,29 L39.8875439,17.3159 C37.0113816,14.593525 33.1418421,12.9132167 28.8725877,12.9132167 C20.0040789,12.9132167 12.815,20.1153667 12.815,29 C12.815,32.3316167 13.8259868,35.4268833 15.5572807,37.99435" id="Path"></path>
            <path d="M8.49364035,12.69475 C4.92611842,17.1638917 2.7929386,22.832425 2.7929386,29 C2.7929386,43.429675 14.4693421,55.1270667 28.8725877,55.1270667 C43.2758333,55.1270667 54.9524781,43.429675 54.9524781,29 L39.0888377,29" id="Path"></path>
            <path d="M33.7552851,29 L28.8725877,29 L46.7625439,10.0233667 C42.0911623,5.60183333 35.8064474,2.87293333 28.8725877,2.87293333 C22.6776096,2.87293333 16.9872807,5.03681667 12.5132237,8.65118333" id="Path"></path>
            <ellipse id="Oval" cx="17.2053509" cy="40.68845" rx="2.66725877" ry="2.67210833"></ellipse>
            <ellipse id="Oval" cx="36.4220614" cy="28.3124583" rx="2.66725877" ry="2.67210833"></ellipse>
            <ellipse id="Oval" cx="10.3421711" cy="10.4358917" rx="2.66725877" ry="2.67210833"></ellipse>
        </g>
    </g>
</svg>