<?xml version="1.0" encoding="UTF-8"?>
<svg width="85px" height="85px" viewBox="0 0 85 85" version="1.1" xmlns="http://www.w3.org/2000/svg" xmlns:xlink="http://www.w3.org/1999/xlink">
    <!-- Generator: Sketch 55.2 (78181) - https://sketchapp.com -->
    <title>sea1</title>
    <desc>Created with Sketch.</desc>
    <g id="sea1" stroke="none" stroke-width="1" fill="none" fill-rule="evenodd" stroke-linecap="round" stroke-linejoin="round">
        <g id="iconfinder_sea-04_3069805" transform="translate(9.000000, 19.000000)" stroke="#373737" stroke-width="1.2">
            <path d="M8.375,30 L65.3224875,30 C66.2110914,30.0357549 66.961169,29.3439627 67,28.45284 L67,28.45284 C66.9936864,27.9581337 66.748335,27.4972858 66.3419643,27.21684 C51.2054873,16.1903283 34.627709,7.30614102 17.0754286,0.81444 C6.25253571,-3.05148 -3.95192321,7.59108 1.52891607,17.02656 L8.375,26.4 L8.375,30 Z" id="Path"></path>
            <path d="M8.375,37.2 L54.7033464,37.2 C56.1145808,37.2859275 57.3310025,36.2146721 57.4285714,34.8 L57.4285714,30 C37.9126679,27.63444 18.7681357,25.40568 8.375,26.4 L8.375,37.2 Z" id="Path"></path>
            <path d="M0.2068625,44.964 C-0.0371523087,45.3541315 -0.0377352002,45.8497389 0.205361251,46.2404467 C0.448457703,46.6311546 0.892582108,46.8484129 1.3492125,46.8 L21.3673768,46.8 C32.9299018,46.29996 38.6549321,44.7 44.2678571,37.2 L8.375,37.2 L0.2068625,44.964 Z" id="Path"></path>
            <path d="M21.5357143,15.6 C21.5357143,18.9137085 18.8574177,21.6 15.5535714,21.6 C12.2497252,21.6 9.57142857,18.9137085 9.57142857,15.6" id="Path"></path>
            <path d="M15.5535714,10.8 L15.5535714,21.6" id="Path"></path>
            <ellipse id="Oval" cx="15.5535714" cy="8.4" rx="2.39285714" ry="2.4"></ellipse>
            <path d="M13.1607143,14.4 L17.9464286,14.4" id="Path"></path>
            <path d="M8.375,33.6 L8.375,37.2 L54.7033464,37.2 C56.1145808,37.2859275 57.3310025,36.2146721 57.4285714,34.8 L57.4285714,33.6 L8.375,33.6 Z" id="Path"></path>
        </g>
    </g>
</svg>