<?xml version="1.0" encoding="UTF-8"?>
<svg width="85px" height="85px" viewBox="0 0 85 85" version="1.1" xmlns="http://www.w3.org/2000/svg" xmlns:xlink="http://www.w3.org/1999/xlink">
    <!-- Generator: Sketch 55.2 (78181) - https://sketchapp.com -->
    <title>sea2</title>
    <desc>Created with Sketch.</desc>
    <g id="sea2" stroke="none" stroke-width="1" fill="none" fill-rule="evenodd">
        <g id="iconfinder_Transport-01_1873593" transform="translate(12.000000, 12.000000)" stroke="#314044" stroke-width="2.6">
            <path d="M0,58.4042553 C5.16666667,58.4042553 5.16666667,61 10.3333333,61 C15.5,61 15.5,58.4042553 20.6666667,58.4042553 C25.8333333,58.4042553 25.8333333,61 31,61 C36.1666667,61 36.1666667,58.4042553 41.3333333,58.4042553 C46.5,58.4042553 46.5,61 51.6666667,61 C56.8333333,61 56.8333333,58.4042553 62,58.4042553" id="Path"></path>
            <path d="M16.9208333,59.0531915 C12.4,57.6255319 8.9125,53.9914894 7.75,49.1893617 L5.16666667,38.9361702 L31,36.3404255 L56.8333333,38.9361702 L54.25,49.1893617 C53.0875,53.9914894 49.4708333,57.6255319 45.0791667,59.0531915" id="Path"></path>
            <polyline id="Path" points="9.04166667 38.9361702 9.04166667 31.1489362 52.9583333 31.1489362 52.9583333 38.9361702"></polyline>
            <rect id="Rectangle" x="12.9166667" y="25.9574468" width="36.1666667" height="5.19148936"></rect>
            <rect id="Rectangle" x="15.5" y="9.08510638" width="31" height="16.8723404"></rect>
            <path d="M31,36.3404255 L31,51.9148936" id="Path"></path>
            <path d="M12.9166667,9.08510638 L49.0833333,9.08510638" id="Path"></path>
            <path d="M23.25,9.08510638 L23.3791667,0" id="Path"></path>
            <path d="M38.75,9.08510638 L38.8791667,0" id="Path"></path>
            <path d="M21.9583333,31.1489362 L21.9583333,36.3404255" id="Path"></path>
            <path d="M40.0416667,31.1489362 L40.0416667,36.3404255" id="Path"></path>
            <path d="M31,25.9574468 L31,31.1489362" id="Path"></path>
            <rect id="Rectangle" x="15.5" y="12.9787234" width="31" height="7.78723404"></rect>
            <path d="M20.6666667,12.9787234 L20.6666667,20.7659574" id="Path"></path>
            <path d="M25.8333333,12.9787234 L25.8333333,20.7659574" id="Path"></path>
            <path d="M31,12.9787234 L31,20.7659574" id="Path"></path>
            <path d="M36.1666667,12.9787234 L36.1666667,20.7659574" id="Path"></path>
            <path d="M41.3333333,12.9787234 L41.3333333,20.7659574" id="Path"></path>
            <path d="M37.4583333,41.5319149 L37.4583333,44.1276596" id="Path"></path>
            <path d="M24.5416667,41.5319149 L24.5416667,44.1276596" id="Path"></path>
        </g>
    </g>
</svg>