<?xml version="1.0" encoding="UTF-8"?>
<svg width="85px" height="85px" viewBox="0 0 85 85" version="1.1" xmlns="http://www.w3.org/2000/svg" xmlns:xlink="http://www.w3.org/1999/xlink">
    <!-- Generator: Sketch 55.2 (78181) - https://sketchapp.com -->
    <title>sea3</title>
    <desc>Created with Sketch.</desc>
    <g id="sea3" stroke="none" stroke-width="1" fill="none" fill-rule="evenodd">
        <g id="iconfinder_submarine-vessel-dive-sea_4538013" transform="translate(5.000000, 16.000000)" stroke="#000000" stroke-width="2">
            <path d="M67.3672566,42.39 C66.6371681,45.0225 63.9159292,46.575 61.3274336,45.765 C59.7345133,45.2925 58.4734513,44.01 58.0088496,42.39 C57.2787611,45.0225 54.5575221,46.575 51.9690265,45.765 C50.3761062,45.2925 49.1150442,44.01 48.6504425,42.39 C47.920354,45.0225 45.199115,46.575 42.6106195,45.765 C41.0176991,45.2925 39.7566372,44.01 39.2920354,42.39 C38.5619469,45.0225 35.840708,46.575 33.2522124,45.765 C31.659292,45.2925 30.3982301,44.01 29.9336283,42.39 C29.2035398,45.0225 26.4823009,46.575 23.8938053,45.765 C22.300885,45.2925 21.039823,44.01 20.5752212,42.39 C19.8451327,45.0225 17.1238938,46.575 14.5353982,45.765 C12.9424779,45.2925 11.6814159,44.01 11.2168142,42.39" id="Path" stroke-linejoin="bevel"></path>
            <rect id="Rectangle" x="3.65044248" y="21.2625" width="9.2920354" height="4.05"></rect>
            <path d="M8.96017699,20.925 L8.96017699,9.1125 L11.0840708,9.1125 C13.2079646,9.1125 14.9336283,10.8675 14.9336283,13.0275 L14.9336283,13.0275 L14.9336283,16.2" id="Path"></path>
            <path d="M0.530973451,53.6625 L11.1504425,53.6625" id="Path"></path>
            <path d="M13.6061947,24.975 L13.6061947,30.645 C13.6061947,32.1975 12.4115044,33.4125 10.8849558,33.4125 L10.8849558,33.4125 L7.63274336,33.4125 L7.63274336,26.325" id="Path"></path>
            <path d="M40.4867257,12.4875 L64.1814159,12.4875 C69.9557522,12.4875 74.6681416,17.28 74.6681416,23.1525 L74.6681416,23.1525 L74.6681416,23.4225 C74.6681416,29.295 69.9557522,34.0875 64.1814159,34.0875 L64.1814159,34.0875 L31.3274336,34.0875 L13.6061947,24.5025 L13.6061947,21.2625 L20.7743363,17.28 C25.6858407,14.5125 31.0619469,12.96 36.6371681,12.555 L40.6858407,6.6825 L49.9115044,6.075 L53.4955752,12.4875" id="Path"></path>
            <path d="M17.920354,23.2875 L74.3362832,23.2875" id="Path" stroke-dasharray="2.66666677263048,2.66666677263048"></path>
            <path d="M44.800885,6.075 L44.800885,0" id="Path"></path>
            <path d="M40.8185841,6.75 L40.8185841,2.7" id="Path"></path>
            <path d="M39.159292,53.6625 L74.3362832,53.6625" id="Path" stroke-linejoin="bevel"></path>
            <path d="M28.539823,53.6625 L14.2699115,53.6625" id="Path" stroke-dasharray="2.66666677263048,2.66666677263048"></path>
        </g>
    </g>
</svg>