<?xml version="1.0" encoding="UTF-8"?>
<svg width="85px" height="85px" viewBox="0 0 85 85" version="1.1" xmlns="http://www.w3.org/2000/svg" xmlns:xlink="http://www.w3.org/1999/xlink">
    <!-- Generator: Sketch 55.2 (78181) - https://sketchapp.com -->
    <title>sea5</title>
    <desc>Created with Sketch.</desc>
    <g id="sea5" stroke="none" stroke-width="1" fill="none" fill-rule="evenodd">
        <g id="iconfinder_050_-_Bug_Fixing_3412898" transform="translate(14.000000, 14.000000)" stroke="#000000" stroke-width="2">
            <rect id="Rectangle-path" x="0" y="0" width="58" height="58" rx="4"></rect>
            <path d="M0,8 L58,8" id="Shape"></path>
            <path d="M5,4 L6,4" id="Shape"></path>
            <path d="M19,4 L53,4" id="Shape"></path>
            <rect id="Rectangle-path" x="23" y="23" width="12" height="22" rx="6"></rect>
            <path d="M23,29 L35,29" id="Shape"></path>
            <path d="M29,35 L29,45" id="Shape"></path>
            <path d="M25.88,23.88 L24,22" id="Shape"></path>
            <path d="M34,22 L32.12,23.88" id="Shape"></path>
            <path d="M18,26 L17.449,28.2 C17.1952158,29.2141007 17.7652212,30.2525739 18.757,30.583 L23,32" id="Shape"></path>
            <path d="M18,46 L17.449,43.8 C17.1952158,42.7858993 17.7652212,41.7474261 18.757,41.417 L23,40" id="Shape"></path>
            <path d="M23,36 L20,36" id="Shape"></path>
            <path d="M40,26 L40.551,28.2 C40.8047842,29.2141007 40.2347788,30.2525739 39.243,30.583 L35,32" id="Shape"></path>
            <path d="M40,46 L40.551,43.8 C40.8047842,42.7858993 40.2347788,41.7474261 39.243,41.417 L35,40" id="Shape"></path>
            <path d="M35,36 L38,36" id="Shape"></path>
            <rect id="Rectangle-path" x="6" y="13" width="4" height="6" rx="2"></rect>
            <path d="M14,30 C12.8954305,30 12,29.1045695 12,28 L12,26 C12,24.8954305 12.8954305,24 14,24" id="Shape"></path>
            <rect id="Rectangle-path" x="18" y="13" width="4" height="6" rx="2"></rect>
            <rect id="Rectangle-path" x="43" y="13" width="4" height="6" rx="2"></rect>
            <rect id="Rectangle-path" x="49" y="24" width="4" height="6" rx="2"></rect>
            <path d="M36,17 L36,15 C36,13.8954305 36.8954305,13 38,13 C39.1045695,13 40,13.8954305 40,15 L40,17" id="Shape"></path>
            <polyline id="Shape" points="13 14 14 13 14 19 13 19 15 19"></polyline>
            <rect id="Rectangle-path" x="6" y="35" width="4" height="6" rx="2"></rect>
            <path d="M28,49 L28,50 C28,51.1045695 27.1045695,52 26,52 C24.8954305,52 24,51.1045695 24,50 L24,49" id="Shape"></path>
            <path d="M35,49 L35,50 C35,51.1045695 34.1045695,52 33,52 C31.8954305,52 31,51.1045695 31,50 L31,49" id="Shape"></path>
            <polyline id="Shape" points="13 36 14 35 14 41 13 41 15 41"></polyline>
            <rect id="Rectangle-path" x="43" y="35" width="4" height="6" rx="2"></rect>
            <polyline id="Shape" points="50 36 51 35 51 41 50 41 52 41"></polyline>
            <polyline id="Shape" points="7 25 8 24 8 30 7 30 9 30"></polyline>
            <polyline id="Shape" points="44 25 45 24 45 30 44 30 46 30"></polyline>
            <rect id="Rectangle-path" x="49" y="46" width="4" height="6" rx="2"></rect>
            <polyline id="Shape" points="44 47 45 46 45 52 44 52 46 52"></polyline>
            <path d="M16,50 C16,51.1045695 15.1045695,52 14,52 C12.8954305,52 12,51.1045695 12,50 L12,48 C12,46.8954305 12.8954305,46 14,46" id="Shape"></path>
            <polyline id="Shape" points="7 47 8 46 8 52 7 52 9 52"></polyline>
            <polyline id="Shape" points="20 50 20 52 19 52 21 52"></polyline>
            <polyline id="Shape" points="39 50 39 52 38 52 40 52"></polyline>
            <polyline id="Shape" points="50 14 51 13 51 19 50 19 52 19"></polyline>
            <polyline id="Shape" points="31 14 32 13 32 19 31 19 33 19"></polyline>
            <polyline id="Shape" points="26 14 27 13 27 17"></polyline>
        </g>
    </g>
</svg>