<?xml version="1.0" encoding="UTF-8"?>
<svg width="85px" height="85px" viewBox="0 0 85 85" version="1.1" xmlns="http://www.w3.org/2000/svg" xmlns:xlink="http://www.w3.org/1999/xlink">
    <!-- Generator: Sketch 55.2 (78181) - https://sketchapp.com -->
    <title>sea7</title>
    <desc>Created with Sketch.</desc>
    <g id="sea7" stroke="none" stroke-width="1" fill="none" fill-rule="evenodd">
        <g id="iconfinder_Artboard_5_2381659" transform="translate(18.000000, 12.000000)" fill="#3F3A34" fill-rule="nonzero">
            <path d="M50,0 L0,0 L0,56 L20,56 L20,62 L22,62 L22,56 L28,56 L28,62 L30,62 L30,56 L50,56 L50,0 Z M48,54 L2,54 L2,2 L48,2 L48,54 Z" id="Shape"></path>
            <path d="M32.931,23 L35,23 L35,21 L32.931,21 C32.478,17.388 29.612,14.523 26,14.069 L26,12 L24,12 L24,14.069 C20.388,14.522 17.523,17.388 17.069,21 L15,21 L15,23 L17.069,23 C17.522,26.612 20.388,29.477 24,29.931 L24,32 L26,32 L26,29.931 C29.612,29.477 32.477,26.612 32.931,23 Z M26,27.91 L26,26 L24,26 L24,27.91 C21.493,27.487 19.514,25.507 19.09,23 L21,23 L21,21 L19.09,21 C19.513,18.493 21.493,16.514 24,16.09 L24,18 L26,18 L26,16.09 C28.507,16.513 30.486,18.493 30.91,21 L29,21 L29,23 L30.91,23 C30.486,25.507 28.507,27.486 26,27.91 Z" id="Shape"></path>
            <path d="M25,19 C23.346,19 22,20.346 22,22 C22,23.654 23.346,25 25,25 C26.654,25 28,23.654 28,22 C28,20.346 26.654,19 25,19 Z M25,23 C24.448,23 24,22.551 24,22 C24,21.449 24.448,21 25,21 C25.552,21 26,21.449 26,22 C26,22.551 25.552,23 25,23 Z" id="Shape"></path>
            <path d="M8,43 L8,48 L36,48 L36,46 L10,46 L10,43 C10,39.14 13.141,36 17,36 L33,36 C36.859,36 40,39.14 40,43 L40,46 L38,46 L38,48 L42,48 L42,43 C42,38.038 37.963,34 33,34 L32.174,34 C36.255,31.551 39,27.096 39,22 C39,14.28 32.72,8 25,8 C17.28,8 11,14.28 11,22 C11,27.096 13.745,31.551 17.826,34 L17,34 C12.037,34 8,38.038 8,43 Z M13,22 C13,15.383 18.383,10 25,10 C31.617,10 37,15.383 37,22 C37,28.617 31.617,34 25,34 C18.383,34 13,28.617 13,22 Z" id="Shape"></path>
            <polygon id="Path" points="10 50 6 50 6 46 4 46 4 52 10 52"></polygon>
            <polygon id="Path" points="44 50 40 50 40 52 46 52 46 46 44 46"></polygon>
            <polygon id="Path" points="44 10 46 10 46 4 40 4 40 6 44 6"></polygon>
            <polygon id="Path" points="6 6 10 6 10 4 4 4 4 10 6 10"></polygon>
        </g>
    </g>
</svg>