<?xml version="1.0" encoding="UTF-8"?>
<svg width="85px" height="85px" viewBox="0 0 85 85" version="1.1" xmlns="http://www.w3.org/2000/svg" xmlns:xlink="http://www.w3.org/1999/xlink">
    <!-- Generator: Sketch 55.2 (78181) - https://sketchapp.com -->
    <title>sea8</title>
    <desc>Created with Sketch.</desc>
    <g id="sea8" stroke="none" stroke-width="1" fill="none" fill-rule="evenodd">
        <g id="iconfinder_Artboard_12_2381650" transform="translate(11.000000, 12.000000)" fill="#3F3A34" fill-rule="nonzero">
            <path d="M54,31.395 L54,27 L50,27 L50,21 L48,21 L48,17 L46,17 L46,21 L44,21 L44,6 L48,6 L48,4 L44,4 L44,0 L42,0 L42,4 L38,4 L38,6 L42,6 L42,21 L40,21 L40,11 L29,11 L29,18 L33,18 L33,21 L31.323,21 L27.322,31 L13.532,31 L8.834,24 L1,24 L1,37.406 L1,38 L1,40 L1,46 L1,46.989 L0.839,62 L8.714,62 L12.958,55 L51,55 C57.617,55 63,49.617 63,43 C63,37.421 59.167,32.732 54,31.395 Z M52,31.051 C51.669,31.023 51.338,31 51,31 L44,31 L44,29 L52,29 L52,31.051 Z M33,15 L33,16 L31,16 L31,13 L38,13 L38,21 L35,21 L35,15 L33,15 Z M32.677,23 L48,23 L48,27 L42,27 L42,31 L29.477,31 L32.677,23 Z M3,26 L7.769,26 L11.559,31.647 L3,36.315 L3,26 Z M3,42 L15,42 L15,44 L3,44 L3,42 Z M7.587,60 L2.86,60 L2.971,49.669 L11.146,54.128 L7.587,60 Z M51,53 L45,53 L13.255,53 L3,47.406 L3,46 L17,46 L17,44 L19,44 L19,42 L17,42 L17,40 L3,40 L3,38.594 L13.255,33 L51,33 C56.176,33 60.446,36.954 60.949,42 L56,42 L56,39.382 L47.236,35 L44,35 L44,42 L21,42 L21,44 L60.949,44 C60.446,49.046 56.176,53 51,53 Z M54,42 L46,42 L46,37 L46.764,37 L54,40.618 L54,42 Z" id="Shape"></path>
            <path d="M48,50 C48,48.346 46.654,47 45,47 C43.346,47 42,48.346 42,50 C42,51.654 43.346,53 45,53 C46.654,53 48,51.654 48,50 Z M45,51 C44.448,51 44,50.551 44,50 C44,49.449 44.448,49 45,49 C45.552,49 46,49.449 46,50 C46,50.551 45.552,51 45,51 Z" id="Shape"></path>
        </g>
    </g>
</svg>