<?xml version="1.0" encoding="UTF-8"?>
<svg width="85px" height="85px" viewBox="0 0 85 85" version="1.1" xmlns="http://www.w3.org/2000/svg" xmlns:xlink="http://www.w3.org/1999/xlink">
    <!-- Generator: Sketch 55.2 (78181) - https://sketchapp.com -->
    <title>shark</title>
    <desc>Created with Sketch.</desc>
    <g id="shark" stroke="none" stroke-width="1" fill="none" fill-rule="evenodd">
        <g id="iconfinder_shark-animal-aquatic-aquarium_3283708" transform="translate(3.000000, 19.000000)" fill="#000000" fill-rule="nonzero">
            <path d="M79.54036,8.384988 C79.132651,8.02960613 78.5526963,7.95614234 78.0703067,8.198774 L62.3522133,16.1142857 L37.3333333,16.1142857 L37.3333333,1.34285714 C37.3333353,0.799753905 37.00849,0.310130421 36.5102801,0.102309504 C36.0120703,-0.105511413 35.4386164,0.00939970898 35.0573333,0.393457143 L19.44792,16.1142857 L1.33333333,16.1142857 C0.945195591,16.1143449 0.576349953,16.2847407 0.323105279,16.5809812 C0.0698606045,16.8772217 -0.0426418383,17.2698971 0.0149733333,17.6564766 C0.955461687,22.6595889 2.89962818,27.4168321 5.72852,31.6371369 C5.97619489,32.0070822 6.39031189,32.2287695 6.83333333,32.2285714 L15.1757867,32.2285714 L17.47396,36.8577626 C17.6999085,37.3126712 18.1616225,37.6000033 18.6666667,37.6000033 C19.1717108,37.6000033 19.6334249,37.3126712 19.8593733,36.8577626 L22.1575467,32.2285714 L25.5110667,32.2285714 L19.4986667,41.3269523 C19.2747011,41.665853 19.2155304,42.0888023 19.3377976,42.4768355 C19.4600648,42.8648688 19.7505596,43.1760607 20.1275733,43.3228811 C24.3486396,44.9154607 28.8260702,45.7068953 33.3333333,45.6571429 C53.11588,45.6571429 61.29036,31.6476246 63.36328,27.2610474 L78.15364,33.4678271 C78.6444195,33.6739478 79.2098797,33.5667062 79.5926066,33.1949219 C79.9753334,32.8231376 80.1021635,32.2578822 79.91536,31.7564766 L76.0806933,21.459448 L79.9316,9.82485314 C80.1021354,9.30937239 79.9477474,8.74118427 79.54036,8.384988 Z M34.6666667,4.58459486 L34.6666667,16.1142857 L23.2187467,16.1142857 L34.6666667,4.58459486 Z M18.6666667,33.2540711 L18.1575467,32.2285714 L19.1757867,32.2285714 L18.6666667,33.2540711 Z M73.4016933,21.0608209 C73.3053831,21.3529497 73.3111274,21.6694604 73.4179733,21.9578494 L76.33724,29.7959991 L63.1796933,24.2750703 C62.8424728,24.13428 62.4627406,24.1385757 62.128745,24.2869591 C61.7947495,24.4353424 61.5355752,24.714892 61.4114533,25.0606417 C61.1497333,25.7922571 54.7474,42.9714286 33.3333333,42.9714286 C29.7171834,43.0030216 26.1183009,42.4658802 22.6666667,41.3794043 L29.1100267,31.6292677 C29.382345,31.217194 29.4074306,30.6876338 29.1753007,30.2513216 C28.9431708,29.8150093 28.4914895,29.5427385 28,29.5428571 L7.55142667,29.5428571 C5.46183863,26.2334822 3.91697055,22.6057705 2.97656,18.8 L62.6666667,18.8 C62.8736708,18.8000217 63.0778406,18.7515328 63.2630267,18.6583689 L76.38412,12.0503031 L73.4016933,21.0608209 Z" id="Shape"></path>
            <rect id="Rectangle" x="16" y="21.4857143" width="2.66666667" height="2.68571429"></rect>
            <path d="M36.85352,29.8536614 C36.487418,29.54655 35.9864459,29.4594755 35.5393149,29.6252381 C35.0921839,29.7910006 34.7668239,30.1844169 34.6857949,30.6572909 C34.6047659,31.1301649 34.780378,31.6106557 35.14648,31.9177671 L40.3170533,36.2571429 L36,36.2571429 C35.2636203,36.2571429 34.6666667,36.8583605 34.6666667,37.6 C34.6666667,38.3416395 35.2636203,38.9428572 36,38.9428572 L44,38.9428572 C44.5615715,38.9430553 45.0630696,38.5888565 45.2541996,38.0570394 C45.4453296,37.5252223 45.2851158,36.9298011 44.85352,36.5679471 L36.85352,29.8536614 Z" id="Path"></path>
            <rect id="Rectangle" x="29.3333333" y="21.4857143" width="2.66666667" height="5.37142857"></rect>
            <rect id="Rectangle" x="34.6666667" y="21.4857143" width="2.66666667" height="5.37142857"></rect>
        </g>
    </g>
</svg>