<?xml version="1.0" encoding="UTF-8"?>
<svg width="85px" height="85px" viewBox="0 0 85 85" version="1.1" xmlns="http://www.w3.org/2000/svg" xmlns:xlink="http://www.w3.org/1999/xlink">
    <!-- Generator: Sketch 55.2 (78181) - https://sketchapp.com -->
    <title>star2</title>
    <desc>Created with Sketch.</desc>
    <g id="star2" stroke="none" stroke-width="1" fill="none" fill-rule="evenodd">
        <g id="iconfinder__star_fish_3_1974724" transform="translate(10.000000, 10.000000)" fill="#000000" fill-rule="nonzero">
            <path d="M33,64.625 C29.7,64.625 26.95,62.425 25.85,59.4 L24.2,54.45 L19.25,56.925 C16.5,58.3 12.65,57.75 10.45,55.275 C8.25,53.075 7.7,49.775 9.075,46.75 L11.275,42.075 L6.325,40.425 C3.3,39.325 1.1,36.575 1.1,33.275 C1.1,29.975 3.025,27.225 6.325,26.125 L11.275,24.475 L9.075,19.25 C7.7,16.5 8.25,12.925 10.45,10.45 C12.925,8.25 16.5,7.7 19.25,9.075 L23.925,11.275 L25.575,6.325 C26.675,3.3 29.425,1.1 32.725,1.1 C36.025,1.1 38.775,3.025 39.875,6.325 L41.525,11.275 L46.75,9.075 C49.5,7.7 53.35,8.25 55.55,10.45 C57.75,12.925 58.3,16.5 56.925,19.25 L54.725,23.925 L59.675,25.575 C62.7,26.675 64.9,29.7 64.9,32.725 C64.9,36.025 62.7,38.775 59.675,39.875 L54.725,41.525 L56.925,46.2 C58.3,48.95 57.75,52.525 55.55,55 C53.075,57.75 49.5,58.3 46.75,56.925 L42.075,54.725 L40.425,59.675 C39.05,62.7 36.3,64.625 33,64.625 Z M24.75,51.425 C25.025,51.425 25.025,51.425 25.3,51.425 C25.575,51.7 25.85,51.975 26.125,52.25 L28.325,58.575 C29.15,60.5 30.8,61.875 33,61.875 C35.2,61.875 36.85,60.5 37.675,58.575 L39.875,52.25 C39.875,51.975 40.15,51.7 40.7,51.425 C40.975,51.15 41.525,51.425 41.8,51.425 L47.85,54.45 C49.775,55.275 51.975,55 53.625,53.35 C55,51.7 55.55,49.5 54.725,47.85 L51.7,41.8 C51.425,41.525 51.425,40.975 51.7,40.7 C51.975,40.425 52.25,40.15 52.525,39.875 L58.85,37.675 C60.775,36.85 62.15,35.2 62.15,33 C62.15,30.8 60.775,29.15 58.85,28.325 L52.25,26.125 C51.975,26.125 51.7,25.85 51.425,25.3 C51.15,25.025 51.15,24.475 51.425,24.2 L54.45,18.15 C55.275,16.225 55,14.025 53.35,12.375 C51.975,11 49.5,10.45 47.85,11.55 L41.8,14.575 C41.525,14.85 40.975,14.85 40.7,14.575 C40.425,14.3 40.15,14.025 39.875,13.75 L37.675,7.425 C36.85,5.5 34.925,4.125 33,4.125 C30.8,4.125 29.15,5.5 28.325,7.425 L26.125,13.75 C26.125,14.025 25.85,14.3 25.3,14.575 C25.025,14.85 24.475,14.85 24.2,14.575 L18.15,11.55 C16.225,10.725 14.025,11 12.65,12.65 C11,14.025 10.725,16.225 11.55,18.15 L14.575,24.2 C14.85,24.475 14.85,25.025 14.575,25.3 C14.3,25.575 14.025,25.85 13.75,26.125 L7.425,28.325 C5.5,29.15 4.125,30.8 4.125,33 C4.125,35.2 5.5,36.85 7.425,37.675 L13.75,39.875 C14.025,39.875 14.3,40.15 14.575,40.7 C14.85,40.975 14.85,41.525 14.575,41.8 L11.55,47.85 C10.725,49.775 11,51.975 12.65,53.35 C14.025,54.725 16.5,55.275 18.15,54.45 L24.2,51.425 C24.475,51.425 24.475,51.425 24.75,51.425 Z" id="Shape"></path>
            <g id="Group" transform="translate(30.250000, 5.500000)">
                <path d="M2.75,4.95 C1.925,4.95 1.375,4.4 1.375,3.575 L1.375,2.2 C1.375,1.375 1.925,0.825 2.75,0.825 C3.575,0.825 4.125,1.375 4.125,2.2 L4.125,3.575 C4.125,4.4 3.575,4.95 2.75,4.95 Z" id="Path"></path>
                <path d="M2.75,47.025 C1.925,47.025 1.375,46.475 1.375,45.65 L1.375,42.9 C1.375,42.075 1.925,41.525 2.75,41.525 C3.575,41.525 4.125,42.075 4.125,42.9 L4.125,45.65 C4.125,46.2 3.575,47.025 2.75,47.025 Z M2.75,38.5 C1.925,38.5 1.375,37.95 1.375,37.125 L1.375,34.375 C1.375,33.55 1.925,33 2.75,33 C3.575,33 4.125,33.55 4.125,34.375 L4.125,37.125 C4.125,37.95 3.575,38.5 2.75,38.5 Z M2.75,30.25 C1.925,30.25 1.375,29.7 1.375,28.875 L1.375,26.125 C1.375,25.3 1.925,24.75 2.75,24.75 C3.575,24.75 4.125,25.3 4.125,26.125 L4.125,28.875 C4.125,29.425 3.575,30.25 2.75,30.25 Z M2.75,21.725 C1.925,21.725 1.375,21.175 1.375,20.35 L1.375,17.6 C1.375,16.775 1.925,16.225 2.75,16.225 C3.575,16.225 4.125,16.775 4.125,17.6 L4.125,20.35 C4.125,21.175 3.575,21.725 2.75,21.725 Z M2.75,13.475 C1.925,13.475 1.375,12.925 1.375,12.1 L1.375,9.35 C1.375,8.525 1.925,7.975 2.75,7.975 C3.575,7.975 4.125,8.525 4.125,9.35 L4.125,12.1 C4.125,12.65 3.575,13.475 2.75,13.475 Z" id="Shape"></path>
                <path d="M2.75,53.9 C1.925,53.9 1.375,53.35 1.375,52.525 L1.375,51.15 C1.375,50.325 1.925,49.775 2.75,49.775 C3.575,49.775 4.125,50.325 4.125,51.15 L4.125,52.525 C4.125,53.35 3.575,53.9 2.75,53.9 Z" id="Path"></path>
            </g>
            <g id="Group" transform="translate(13.750000, 11.000000)">
                <path d="M2.475,6.325 C2.2,6.325 1.65,6.325 1.375,6.05 L0.55,4.95 C0,4.4 0,3.575 0.55,3.025 C1.1,2.475 1.925,2.475 2.475,3.025 L3.575,4.125 C4.125,4.675 4.125,5.5 3.575,6.05 C3.025,6.325 2.75,6.325 2.475,6.325 Z" id="Path"></path>
                <path d="M32.175,36.025 C31.9,36.025 31.35,36.025 31.075,35.75 L29.15,33.825 C28.6,33.275 28.6,32.45 29.15,31.9 C29.7,31.35 30.525,31.35 31.075,31.9 L33,33.825 C33.55,34.375 33.55,35.2 33,35.75 C32.725,36.025 32.45,36.025 32.175,36.025 Z M26.125,30.25 C25.85,30.25 25.3,30.25 25.025,29.975 L23.1,28.05 C22.55,27.5 22.55,26.675 23.1,26.125 C23.65,25.575 24.475,25.575 25.025,26.125 L26.95,28.05 C27.5,28.6 27.5,29.425 26.95,29.975 C26.95,29.975 26.4,30.25 26.125,30.25 Z M20.35,24.2 C20.075,24.2 19.525,24.2 19.25,23.925 L17.325,22 C16.775,21.45 16.775,20.625 17.325,20.075 C17.875,19.525 18.7,19.525 19.25,20.075 L21.175,22 C21.725,22.55 21.725,23.375 21.175,23.925 C20.9,24.2 20.625,24.2 20.35,24.2 Z M14.3,18.425 C14.025,18.425 13.475,18.425 13.2,18.15 L11.275,15.95 C10.725,15.4 10.725,14.575 11.275,14.025 C11.825,13.475 12.65,13.475 13.2,14.025 L15.125,15.95 C15.675,16.5 15.675,17.325 15.125,17.875 C15.125,18.15 14.575,18.425 14.3,18.425 Z M8.25,12.375 C7.975,12.375 7.425,12.375 7.15,12.1 L5.5,9.9 C4.95,9.35 4.95,8.525 5.5,7.975 C6.05,7.425 6.875,7.425 7.425,7.975 L9.35,9.9 C9.9,10.45 9.9,11.275 9.35,11.825 C9.075,12.375 8.8,12.375 8.25,12.375 Z" id="Shape"></path>
                <path d="M37.125,40.975 C36.85,40.975 36.3,40.975 36.025,40.7 L34.925,39.6 C34.375,39.05 34.375,38.225 34.925,37.675 C35.475,37.125 36.3,37.125 36.85,37.675 L37.95,38.775 C38.5,39.325 38.5,40.15 37.95,40.7 C37.675,40.975 37.4,40.975 37.125,40.975 Z" id="Path"></path>
            </g>
            <g id="Group" transform="translate(5.500000, 30.250000)">
                <path d="M3.85,4.125 L2.475,4.125 C1.65,4.125 1.1,3.575 1.1,2.75 C1.1,1.925 1.65,1.375 2.475,1.375 L3.85,1.375 C4.675,1.375 5.225,1.925 5.225,2.75 C5.225,3.575 4.4,4.125 3.85,4.125 Z" id="Path"></path>
                <path d="M17.6,4.125 C16.775,4.125 16.225,3.575 16.225,2.75 C16.225,1.925 16.775,1.375 17.6,1.375 L20.35,1.375 L20.35,1.375 C21.175,1.375 21.725,1.925 21.725,2.75 C21.725,3.575 21.175,4.125 20.35,4.125 L17.6,4.125 L17.6,4.125 Z M12.1,4.125 L9.35,4.125 C8.525,4.125 7.975,3.575 7.975,2.75 C7.975,1.925 8.525,1.375 9.35,1.375 L12.1,1.375 C12.925,1.375 13.475,1.925 13.475,2.75 C13.475,3.575 12.925,4.125 12.1,4.125 Z M37.4,4.125 L34.65,4.125 C33.825,4.125 33.275,3.575 33.275,2.75 C33.275,1.925 33.825,1.375 34.65,1.375 L37.4,1.375 C38.225,1.375 38.775,1.925 38.775,2.75 C38.775,3.575 37.95,4.125 37.4,4.125 Z M28.875,4.125 L26.125,4.125 C25.3,4.125 24.75,3.575 24.75,2.75 C24.75,1.925 25.3,1.375 26.125,1.375 L28.875,1.375 C29.7,1.375 30.25,1.925 30.25,2.75 C30.25,3.575 29.7,4.125 28.875,4.125 Z M45.65,3.85 L42.9,3.85 C42.075,3.85 41.525,3.3 41.525,2.475 C41.525,1.65 42.075,1.1 42.9,1.1 L45.65,1.1 C46.475,1.1 47.025,1.65 47.025,2.475 C47.025,3.3 46.475,3.85 45.65,3.85 Z" id="Shape"></path>
                <path d="M52.8,3.85 L51.425,3.85 C50.6,3.85 50.05,3.3 50.05,2.475 C50.05,1.65 50.6,1.1 51.425,1.1 L52.8,1.1 C53.625,1.1 54.175,1.65 54.175,2.475 C54.175,3.3 53.35,3.85 52.8,3.85 Z" id="Path"></path>
            </g>
            <g id="Group" transform="translate(11.000000, 11.000000)">
                <path d="M4.125,40.975 C3.85,40.975 3.3,40.975 3.025,40.7 C2.475,40.15 2.475,39.325 3.025,38.775 L4.125,37.675 C4.675,37.125 5.5,37.125 6.05,37.675 C6.6,38.225 6.6,39.05 6.05,39.6 L4.95,40.7 C4.95,40.975 4.675,40.975 4.125,40.975 Z" id="Path"></path>
                <path d="M9.075,36.025 C8.8,36.025 8.25,36.025 7.975,35.75 C7.425,35.2 7.425,34.375 7.975,33.825 L9.9,31.9 C10.45,31.35 11.275,31.35 11.825,31.9 C12.375,32.45 12.375,33.275 11.825,33.825 L10.175,35.75 C9.9,36.025 9.35,36.025 9.075,36.025 Z M15.125,30.25 C14.85,30.25 14.3,30.25 14.025,29.975 C13.475,29.425 13.475,28.6 14.025,28.05 L15.95,26.125 C16.5,25.575 17.325,25.575 17.875,26.125 C18.425,26.675 18.425,27.5 17.875,28.05 L15.95,29.975 C15.675,29.975 15.4,30.25 15.125,30.25 Z M20.9,24.2 C20.625,24.2 20.075,24.2 19.8,23.925 C19.25,23.375 19.25,22.55 19.8,22 L21.725,20.075 C22.275,19.525 23.1,19.525 23.65,20.075 C24.2,20.625 24.2,21.45 23.65,22 L22,23.925 C21.725,24.2 21.45,24.2 20.9,24.2 Z M26.95,18.425 C26.675,18.425 26.125,18.425 25.85,18.15 C25.3,17.6 25.3,16.775 25.85,16.225 L27.775,14.3 C28.325,13.75 29.15,13.75 29.7,14.3 C30.25,14.85 30.25,15.675 29.7,16.225 L27.775,18.15 C27.5,18.15 27.225,18.425 26.95,18.425 Z M32.725,12.375 C32.45,12.375 31.9,12.375 31.625,12.1 C31.075,11.55 31.075,10.725 31.625,10.175 L33.55,8.25 C34.1,7.7 34.925,7.7 35.475,8.25 C36.025,8.8 36.025,9.625 35.475,10.175 L33.55,12.1 C33.55,12.1 33.275,12.375 32.725,12.375 Z" id="Shape"></path>
                <path d="M38.775,6.325 C38.5,6.325 37.95,6.325 37.675,6.05 C37.125,5.5 37.125,4.675 37.675,4.125 L38.775,3.025 C39.325,2.475 40.15,2.475 40.7,3.025 C41.25,3.575 41.25,4.4 40.7,4.95 L39.6,6.05 C39.6,6.325 39.05,6.325 38.775,6.325 Z" id="Path"></path>
            </g>
        </g>
    </g>
</svg>