<?xml version="1.0" encoding="UTF-8"?>
<svg width="85px" height="85px" viewBox="0 0 85 85" version="1.1" xmlns="http://www.w3.org/2000/svg" xmlns:xlink="http://www.w3.org/1999/xlink">
    <!-- Generator: Sketch 55.2 (78181) - https://sketchapp.com -->
    <title>star</title>
    <desc>Created with Sketch.</desc>
    <g id="star" stroke="none" stroke-width="1" fill="none" fill-rule="evenodd">
        <g id="iconfinder_starfish-aquarium-animal-sea_life-animals-aquatic_4318347" transform="translate(11.000000, 12.000000)" fill="#000000" fill-rule="nonzero">
            <path d="M59.88,22.821 C59.828,22.814 59.777,22.811 59.724,22.81 L57.628,22.828 C57.556,22.828 57.484,22.829 57.413,22.829 C46.404,22.829 36.857,15.408 34.152,4.717 L33.38,1.667 C33.365,1.61 33.346,1.555 33.322,1.502 C32.911,0.589 32,0 31,0 C30,0 29.089,0.589 28.678,1.501 C28.655,1.554 28.635,1.609 28.62,1.666 L27.867,4.64 C25.158,15.344 15.622,22.752 4.609,22.752 C4.505,22.752 4.401,22.752 4.297,22.75 L2.334,22.725 C2.282,22.724 2.229,22.728 2.177,22.735 C0.937,22.917 0,24 0,25.254 C0,26.035 0.351,26.761 0.962,27.247 C1.007,27.282 1.054,27.314 1.104,27.341 L10.704,32.597 C14.715,34.793 16.44,39.644 14.719,43.88 L8.514,59.158 C8.31,59.832 8.433,60.543 8.852,61.109 C9.542,62.039 10.935,62.266 11.884,61.601 L26.412,51.432 C29.156,49.51 32.844,49.51 35.588,51.432 L50.116,61.601 C50.488,61.862 50.925,62 51.379,62 C52.084,62 52.729,61.675 53.149,61.109 C53.568,60.543 53.691,59.832 53.457,59.072 L47.282,43.877 C45.56,39.643 47.286,34.793 51.296,32.597 L60.919,27.324 C60.969,27.297 61.016,27.265 61.061,27.23 C61.659,26.755 62.001,26.045 62.001,25.282 C62,24.06 61.089,23.001 59.88,22.821 Z M29.807,5.131 L30.533,2.264 C30.728,1.939 31.273,1.939 31.469,2.264 L32.214,5.207 C33.666,10.946 36.941,15.811 41.323,19.263 L34.308,26.278 C33.423,25.493 32.273,25 31,25 C29.727,25 28.577,25.493 27.693,26.279 L20.648,19.234 C25.055,15.781 28.347,10.899 29.807,5.131 Z M31,27 C32.654,27 34,28.346 34,30 C34,31.654 32.654,33 31,33 C29.346,33 28,31.654 28,30 C28,28.346 29.346,27 31,27 Z M59.862,25.622 L50.334,30.842 C45.434,33.526 43.324,39.454 45.428,44.63 L51.573,59.74 C51.597,59.819 51.57,59.881 51.542,59.918 C51.501,59.973 51.371,60.037 51.264,59.963 L36.734,49.794 C35.02,48.593 33.01,47.992 31,47.992 C28.99,47.992 26.98,48.593 25.266,49.794 L10.737,59.963 C10.63,60.037 10.5,59.973 10.459,59.918 C10.43,59.878 10.396,59.825 10.397,59.825 L16.571,44.633 C18.675,39.455 16.565,33.527 11.664,30.843 L2.158,25.638 C2.057,25.537 2,25.4 2,25.254 C2,25.005 2.172,24.788 2.409,24.726 L4.272,24.75 C4.384,24.751 4.497,24.752 4.609,24.752 C9.889,24.752 14.852,23.175 19.003,20.417 L26.48,27.894 C26.18,28.537 26,29.246 26,30 C26,32.757 28.243,35 31,35 C33.757,35 36,32.757 36,30 C36,29.246 35.82,28.537 35.519,27.895 L42.962,20.452 C47.126,23.234 52.11,24.83 57.412,24.83 C57.489,24.83 57.568,24.83 57.645,24.829 L59.64,24.812 C59.849,24.868 60,25.061 60,25.282 C60,25.411 59.95,25.531 59.862,25.622 Z" id="Shape"></path>
            <path d="M31,24 C32.654,24 34,22.654 34,21 C34,19.346 32.654,18 31,18 C29.346,18 28,19.346 28,21 C28,22.654 29.346,24 31,24 Z M31,20 C31.552,20 32,20.449 32,21 C32,21.551 31.552,22 31,22 C30.448,22 30,21.551 30,21 C30,20.449 30.448,20 31,20 Z" id="Shape"></path>
            <path d="M31,17 C32.654,17 34,15.654 34,14 C34,12.346 32.654,11 31,11 C29.346,11 28,12.346 28,14 C28,15.654 29.346,17 31,17 Z M31,13 C31.552,13 32,13.449 32,14 C32,14.551 31.552,15 31,15 C30.448,15 30,14.551 30,14 C30,13.449 30.448,13 31,13 Z" id="Shape"></path>
            <path d="M40,33 C41.654,33 43,31.654 43,30 C43,28.346 41.654,27 40,27 C38.346,27 37,28.346 37,30 C37,31.654 38.346,33 40,33 Z M40,29 C40.552,29 41,29.449 41,30 C41,30.551 40.552,31 40,31 C39.448,31 39,30.551 39,30 C39,29.449 39.448,29 40,29 Z" id="Shape"></path>
            <path d="M47,25 C45.346,25 44,26.346 44,28 C44,29.654 45.346,31 47,31 C48.654,31 50,29.654 50,28 C50,26.346 48.654,25 47,25 Z M47,29 C46.448,29 46,28.551 46,28 C46,27.449 46.448,27 47,27 C47.552,27 48,27.449 48,28 C48,28.551 47.552,29 47,29 Z" id="Shape"></path>
            <path d="M22,33 C23.654,33 25,31.654 25,30 C25,28.346 23.654,27 22,27 C20.346,27 19,28.346 19,30 C19,31.654 20.346,33 22,33 Z M22,29 C22.552,29 23,29.449 23,30 C23,30.551 22.552,31 22,31 C21.448,31 21,30.551 21,30 C21,29.449 21.448,29 22,29 Z" id="Shape"></path>
            <path d="M15,25 C13.346,25 12,26.346 12,28 C12,29.654 13.346,31 15,31 C16.654,31 18,29.654 18,28 C18,26.346 16.654,25 15,25 Z M15,29 C14.448,29 14,28.551 14,28 C14,27.449 14.448,27 15,27 C15.552,27 16,27.449 16,28 C16,28.551 15.552,29 15,29 Z" id="Shape"></path>
            <path d="M26,35 C24.346,35 23,36.346 23,38 C23,39.654 24.346,41 26,41 C27.654,41 29,39.654 29,38 C29,36.346 27.654,35 26,35 Z M26,39 C25.448,39 25,38.552 25,38 C25,37.448 25.448,37 26,37 C26.552,37 27,37.448 27,38 C27,38.552 26.552,39 26,39 Z" id="Shape"></path>
            <path d="M22,41 C20.346,41 19,42.346 19,44 C19,45.654 20.346,47 22,47 C23.654,47 25,45.654 25,44 C25,42.346 23.654,41 22,41 Z M22,45 C21.448,45 21,44.552 21,44 C21,43.448 21.448,43 22,43 C22.552,43 23,43.448 23,44 C23,44.552 22.552,45 22,45 Z" id="Shape"></path>
            <rect id="Rectangle" x="17" y="49" width="2" height="2"></rect>
            <path d="M39,38 C39,36.346 37.654,35 36,35 C34.346,35 33,36.346 33,38 C33,39.654 34.346,41 36,41 C37.654,41 39,39.654 39,38 Z M36,39 C35.448,39 35,38.552 35,38 C35,37.448 35.448,37 36,37 C36.552,37 37,37.448 37,38 C37,38.552 36.552,39 36,39 Z" id="Shape"></path>
            <path d="M40,41 C38.346,41 37,42.346 37,44 C37,45.654 38.346,47 40,47 C41.654,47 43,45.654 43,44 C43,42.346 41.654,41 40,41 Z M40,45 C39.448,45 39,44.552 39,44 C39,43.448 39.448,43 40,43 C40.552,43 41,43.448 41,44 C41,44.552 40.552,45 40,45 Z" id="Shape"></path>
            <rect id="Rectangle" x="43" y="49" width="2" height="2"></rect>
            <rect id="Rectangle" x="30" y="44" width="2" height="2"></rect>
            <rect id="Rectangle" x="30" y="40" width="2" height="2"></rect>
        </g>
    </g>
</svg>