<?xml version="1.0" encoding="UTF-8"?>
<svg width="85px" height="85px" viewBox="0 0 85 85" version="1.1" xmlns="http://www.w3.org/2000/svg" xmlns:xlink="http://www.w3.org/1999/xlink">
    <!-- Generator: Sketch 55.2 (78181) - https://sketchapp.com -->
    <title>strawberry</title>
    <desc>Created with Sketch.</desc>
    <g id="strawberry" stroke="none" stroke-width="1" fill="none" fill-rule="evenodd">
        <g id="iconfinder_thin-0908_strawberry_fruit_388229" transform="translate(14.000000, 14.000000)">
            <g id="Group" transform="translate(9.280000, 0.000000)" stroke="#000000" stroke-linecap="round" stroke-linejoin="round" stroke-width="2.32">
                <path d="M18.746296,14.875144 C19.117032,5.530648 36.06556,8.448048 36.06556,8.448048 C36.06556,8.448048 29.54288,23.475616 18.746296,14.875144 Z" id="Path"></path>
                <path d="M18.746296,14.875144 C18.746296,14.875144 17.259176,4.310096 22.079208,1.631888 C22.079208,1.631888 21.924232,2.545272 23.026464,2.919024 C24.489688,3.417824 19.858504,7.368784 18.746296,14.875144 Z" id="Path"></path>
                <path d="M1.975016,5.736432 C3.540552,12.84932 10.878712,17.171944 18.746296,14.875144 C17.222752,7.817472 9.841672,3.409704 1.975016,5.736432 Z" id="Path"></path>
                <path d="M12.83308,15.40364 C7.653448,16.336976 0.905728,18.974816 1.201296,26.570728 C1.681768,38.917072 14.054328,54.263408 18.60756,54.263408 C24.384824,54.263408 37.538296,35.446816 36.457176,26.03852 C35.981344,21.89848 32.961864,18.723096 28.520224,16.834848" id="Path"></path>
                <path d="M19.534168,31.4128 L19.534168,33.269728" id="Path"></path>
                <path d="M19.97288,45.2516 L19.534168,47.081616" id="Path"></path>
                <path d="M12.816144,36.254176 L13.006384,38.127112" id="Path"></path>
                <path d="M28.852216,29.199752 L28.852216,31.05668" id="Path"></path>
                <path d="M25.220488,38.866032 L24.205024,40.476344" id="Path"></path>
                <path d="M8.082184,29.199752 L8.082184,31.05668" id="Path"></path>
                <path d="M13.370624,22.552488 L12.451904,24.21036" id="Path"></path>
                <path d="M22.02376,22.178736 L22.523024,23.979288" id="Path"></path>
            </g>
            <rect id="Rectangle" x="0.00696" y="0.080272" width="55.68" height="55.68"></rect>
        </g>
    </g>
</svg>