<?xml version="1.0" encoding="UTF-8"?>
<svg width="85px" height="85px" viewBox="0 0 85 85" version="1.1" xmlns="http://www.w3.org/2000/svg" xmlns:xlink="http://www.w3.org/1999/xlink">
    <!-- Generator: Sketch 55.2 (78181) - https://sketchapp.com -->
    <title>tool2</title>
    <desc>Created with Sketch.</desc>
    <g id="tool2" stroke="none" stroke-width="1" fill="none" fill-rule="evenodd">
        <g id="iconfinder_Artboard_27_2381636" transform="translate(12.000000, 12.000000)" fill="#3F3A34" fill-rule="nonzero">
            <path d="M59.48,32.98 L56.511,31.283 C55.579,30.751 55,29.753 55,28.679 L55,18 C56.654,18 58,16.654 58,15 L58,3 C58,1.346 56.654,0 55,0 L47,0 C45.346,0 44,1.346 44,3 L18,3 C18,1.346 16.654,0 15,0 L7,0 C5.346,0 4,1.346 4,3 L4,15 C4,16.654 5.346,18 7,18 L7,28.679 C7,29.753 6.421,30.751 5.488,31.283 L2.52,32.98 C0.965,33.868 0,35.531 0,37.321 L0,51 C0,52.654 1.346,54 3,54 L4,54 L4,57 C4,59.757 6.243,62 9,62 L53,62 C55.757,62 58,59.757 58,57 L58,54 L59,54 C60.654,54 62,52.654 62,51 L62,37.321 C62,35.531 61.035,33.868 59.48,32.98 Z M46,3 C46,2.448 46.449,2 47,2 L55,2 C55.551,2 56,2.448 56,3 L56,15 C56,15.552 55.551,16 55,16 L47,16 C46.449,16 46,15.552 46,15 L46,3 Z M18,5 L44,5 L44,6.835 C43.7,7.647 41.327,13 31,13 C20.678,13 18.318,7.71 18,6.839 L18,5 Z M18,15 L18,10.45 C19.974,12.583 23.797,15 31,15 C38.203,15 42.026,12.583 44,10.45 L44,15 C44,16.654 45.346,18 47,18 L49,18 L49,27 L44,27 L44,23 L18,23 L18,27 L13,27 L13,18 L15,18 C16.654,18 18,16.654 18,15 Z M42,25 L42,27 L42,29 L42,31 L20,31 L20,29 L20,27 L20,25 L42,25 Z M6,15 L6,3 C6,2.448 6.449,2 7,2 L15,2 C15.551,2 16,2.448 16,3 L16,15 C16,15.552 15.551,16 15,16 L7,16 C6.449,16 6,15.552 6,15 Z M2,37.321 C2,36.247 2.579,35.249 3.512,34.717 L6.48,33.02 C8.035,32.132 9,30.469 9,28.679 L9,18 L11,18 L11,42 L2,42 L2,37.321 Z M3,52 C2.449,52 2,51.552 2,51 L2,44 L15,44 C15.551,44 16,44.448 16,45 L16,51 C16,51.552 15.551,52 15,52 L3,52 Z M56,57 C56,58.654 54.654,60 53,60 L9,60 C7.346,60 6,58.654 6,57 L6,54 L15,54 C16.654,54 18,52.654 18,51 L18,49 L40,49 L40,47 L18,47 L18,45 C18,43.346 16.654,42 15,42 L13,42 L13,29 L18,29 L18,33 L44,33 L44,29 L49,29 L49,42 L47,42 C45.346,42 44,43.346 44,45 L44,47 L42,47 L42,49 L44,49 L44,51 C44,52.654 45.346,54 47,54 L56,54 L56,57 Z M60,51 C60,51.552 59.551,52 59,52 L47,52 C46.449,52 46,51.552 46,51 L46,45 C46,44.448 46.449,44 47,44 L60,44 L60,51 Z M60,42 L51,42 L51,18 L53,18 L53,28.679 C53,30.469 53.965,32.132 55.52,33.02 L58.489,34.717 C59.421,35.249 60,36.247 60,37.321 L60,42 Z" id="Shape"></path>
            <rect id="Rectangle" x="4" y="46" width="2" height="4"></rect>
            <rect id="Rectangle" x="8" y="46" width="2" height="4"></rect>
            <rect id="Rectangle" x="12" y="46" width="2" height="4"></rect>
            <rect id="Rectangle" x="48" y="46" width="2" height="4"></rect>
            <rect id="Rectangle" x="52" y="46" width="2" height="4"></rect>
            <rect id="Rectangle" x="56" y="46" width="2" height="4"></rect>
            <rect id="Rectangle" x="8" y="4" width="6" height="2"></rect>
            <rect id="Rectangle" x="8" y="8" width="6" height="2"></rect>
            <rect id="Rectangle" x="8" y="12" width="6" height="2"></rect>
            <rect id="Rectangle" x="48" y="4" width="6" height="2"></rect>
            <rect id="Rectangle" x="48" y="8" width="6" height="2"></rect>
            <rect id="Rectangle" x="48" y="12" width="6" height="2"></rect>
        </g>
    </g>
</svg>