<?xml version="1.0" encoding="UTF-8"?>
<svg width="85px" height="85px" viewBox="0 0 85 85" version="1.1" xmlns="http://www.w3.org/2000/svg" xmlns:xlink="http://www.w3.org/1999/xlink">
    <!-- Generator: Sketch 55.2 (78181) - https://sketchapp.com -->
    <title>tool4</title>
    <desc>Created with Sketch.</desc>
    <g id="tool4" stroke="none" stroke-width="1" fill="none" fill-rule="evenodd">
        <g id="iconfinder_Artboard_18_2381645" transform="translate(12.000000, 12.000000)" fill="#3F3A34" fill-rule="nonzero">
            <path d="M62,54 L62,26 L56,26 L56,19 C56,18.117 55.609,17.33 55,16.78 L55,11 L55,10 L55,9.385 C55,7.011 54.553,4.69 53.672,2.485 C53.066,0.976 51.626,0 50,0 C48.374,0 46.934,0.976 46.328,2.486 C45.447,4.69 45,7.012 45,9.385 L45,10 L45,11 L45,16.78 C44.391,17.329 44,18.117 44,19 L44,26 L37,26 L37,19 C37,18.117 36.609,17.33 36,16.78 L36,11 L36,10 L36,9.385 C36,7.011 35.553,4.69 34.672,2.485 C34.066,0.976 32.626,0 31,0 C29.374,0 27.934,0.976 27.328,2.486 C26.447,4.69 26,7.012 26,9.385 L26,10 L26,11 L26,16.78 C25.391,17.329 25,18.117 25,19 L25,26 L18,26 L18,19 C18,18.117 17.609,17.33 17,16.78 L17,11 L17,10 L17,9.385 C17,7.011 16.553,4.69 15.672,2.485 C15.066,0.976 13.626,0 12,0 C10.374,0 8.934,0.976 8.328,2.486 C7.447,4.69 7,7.012 7,9.385 L7,10 L7,11 L7,16.78 C6.391,17.33 6,18.117 6,19 L6,26 L0,26 L0,54 L6,54 L6,56.184 C4.839,56.598 4,57.698 4,59 C4,60.654 5.346,62 7,62 L17,62 C18.654,62 20,60.654 20,59 C20,57.698 19.161,56.598 18,56.184 L18,54 L25,54 L25,56.184 C23.839,56.598 23,57.698 23,59 C23,60.654 24.346,62 26,62 L36,62 C37.654,62 39,60.654 39,59 C39,57.698 38.161,56.598 37,56.184 L37,54 L44,54 L44,56.184 C42.839,56.598 42,57.698 42,59 C42,60.654 43.346,62 45,62 L55,62 C56.654,62 58,60.654 58,59 C58,57.698 57.161,56.598 56,56.184 L56,54 L62,54 Z M60,28 L60,52 L56,52 L56,28 L60,28 Z M46,56 L46,25 L50,25 L50,23 L46,23 L46,19 C46,18.449 46.448,18 47,18 L53,18 C53.552,18 54,18.449 54,19 L54,23 L52,23 L52,25 L54,25 L54,56 L46,56 Z M47,9.385 C47,7.267 47.398,5.195 48.186,3.228 C48.484,2.482 49.196,2 50,2 C50.804,2 51.516,2.482 51.814,3.228 C52.602,5.195 53,7.267 53,9.385 L53,10 L47,10 L47,9.385 Z M47,12 L53,12 L53,16 L47,16 L47,12 Z M27,56 L27,25 L35,25 L35,56 L27,56 Z M28,18 L34,18 C34.552,18 35,18.449 35,19 L35,23 L27,23 L27,19 C27,18.449 27.448,18 28,18 Z M28,9.385 C28,7.267 28.398,5.195 29.186,3.228 C29.484,2.482 30.196,2 31,2 C31.804,2 32.516,2.482 32.814,3.228 C33.602,5.195 34,7.267 34,9.385 L34,10 L28,10 L28,9.385 Z M28,12 L34,12 L34,16 L28,16 L28,12 Z M9,18 L15,18 C15.552,18 16,18.449 16,19 L16,23 L8,23 L8,19 C8,18.449 8.448,18 9,18 Z M9,9.385 C9,7.267 9.398,5.195 10.186,3.228 C10.484,2.482 11.196,2 12,2 C12.804,2 13.516,2.482 13.814,3.228 C14.602,5.195 15,7.267 15,9.385 L15,10 L9,10 L9,9.385 Z M9,12 L15,12 L15,16 L9,16 L9,12 Z M2,52 L2,28 L6,28 L6,52 L2,52 Z M17,60 L7,60 C6.448,60 6,59.552 6,59 C6,58.448 6.448,58 7,58 L12,58 L12,56 L8,56 L8,25 L16,25 L16,56 L14,56 L14,58 L17,58 C17.552,58 18,58.448 18,59 C18,59.552 17.552,60 17,60 Z M18,52 L18,28 L25,28 L25,52 L18,52 Z M36,60 L26,60 C25.448,60 25,59.552 25,59 C25,58.448 25.448,58 26,58 L36,58 C36.552,58 37,58.448 37,59 C37,59.552 36.552,60 36,60 Z M37,52 L37,28 L44,28 L44,52 L37,52 Z M55,60 L45,60 C44.448,60 44,59.552 44,59 C44,58.448 44.448,58 45,58 L55,58 C55.552,58 56,58.448 56,59 C56,59.552 55.552,60 55,60 Z" id="Shape"></path>
        </g>
    </g>
</svg>