<?xml version="1.0" encoding="UTF-8"?>
<svg width="85px" height="85px" viewBox="0 0 85 85" version="1.1" xmlns="http://www.w3.org/2000/svg" xmlns:xlink="http://www.w3.org/1999/xlink">
    <!-- Generator: Sketch 55.2 (78181) - https://sketchapp.com -->
    <title>tool</title>
    <desc>Created with Sketch.</desc>
    <g id="tool" stroke="none" stroke-width="1" fill="none" fill-rule="evenodd">
        <g id="iconfinder_038_-_Tools_3400494" transform="translate(14.000000, 14.000000)">
            <rect id="Rectangle-path" stroke="#000000" stroke-width="2" stroke-linecap="round" stroke-linejoin="round" x="0" y="0" width="8" height="58" rx="1"></rect>
            <path d="M0,19 L2,19" id="Shape" stroke="#000000" stroke-width="2" stroke-linecap="round" stroke-linejoin="round"></path>
            <path d="M0,24 L2,24" id="Shape" stroke="#000000" stroke-width="2" stroke-linecap="round" stroke-linejoin="round"></path>
            <path d="M0,29 L3,29" id="Shape" stroke="#000000" stroke-width="2" stroke-linecap="round" stroke-linejoin="round"></path>
            <path d="M0,9 L2,9" id="Shape" stroke="#000000" stroke-width="2" stroke-linecap="round" stroke-linejoin="round"></path>
            <path d="M0,4 L2,4" id="Shape" stroke="#000000" stroke-width="2" stroke-linecap="round" stroke-linejoin="round"></path>
            <path d="M0,14 L3,14" id="Shape" stroke="#000000" stroke-width="2" stroke-linecap="round" stroke-linejoin="round"></path>
            <path d="M0,34 L2,34" id="Shape" stroke="#000000" stroke-width="2" stroke-linecap="round" stroke-linejoin="round"></path>
            <path d="M0,39 L2,39" id="Shape" stroke="#000000" stroke-width="2" stroke-linecap="round" stroke-linejoin="round"></path>
            <path d="M0,44 L3,44" id="Shape" stroke="#000000" stroke-width="2" stroke-linecap="round" stroke-linejoin="round"></path>
            <path d="M0,49 L2,49" id="Shape" stroke="#000000" stroke-width="2" stroke-linecap="round" stroke-linejoin="round"></path>
            <path d="M0,54 L2,54" id="Shape" stroke="#000000" stroke-width="2" stroke-linecap="round" stroke-linejoin="round"></path>
            <polyline id="Shape" stroke="#000000" stroke-width="2" stroke-linecap="round" stroke-linejoin="round" points="50 50 50 10 58 10 58 50"></polyline>
            <path d="M58,51 L50,51" id="Shape" stroke="#000000" stroke-width="2" stroke-linecap="round" stroke-linejoin="round"></path>
            <path d="M50,50 L50,54 C50,56.209139 51.790861,58 54,58 C56.209139,58 58,56.209139 58,54 L58,50" id="Shape" stroke="#000000" stroke-width="2" stroke-linecap="round" stroke-linejoin="round"></path>
            <polyline id="Shape" stroke="#000000" stroke-width="2" stroke-linecap="round" stroke-linejoin="round" points="50 10 54 0 58 10"></polyline>
            <path d="M51.69,5.77 C52.4501458,5.92521516 53.2241726,6.00228277 54,6 C54.7758274,6.00228277 55.5498542,5.92521516 56.31,5.77" id="Shape" stroke="#000000" stroke-width="2" stroke-linecap="round" stroke-linejoin="round"></path>
            <path d="M50,46 L58,46" id="Shape" stroke="#000000" stroke-width="2" stroke-linecap="round" stroke-linejoin="round"></path>
            <path d="M38,17 C37.9829358,21.548054 34.5697592,25.3659237 30.0520112,25.8903649 C25.5342631,26.4148062 21.3372466,23.4803632 20.2787576,19.0571645 C19.2202685,14.6339657 21.6342494,10.1174848 25.9,8.54 C27.9041289,7.82098761 30.0958711,7.82098761 32.1,8.54 C35.6374999,9.85493831 37.9884989,13.2260318 38,17 Z" id="Shape" stroke="#000000" stroke-width="2" stroke-linecap="round" stroke-linejoin="round"></path>
            <path d="M33.0000236,16.9999995 C33.0003866,18.8106033 31.7844973,20.3956825 30.0356318,20.8644621 C28.2867664,21.3332417 26.441095,20.5688072 25.5358395,19.000752 C24.6305841,17.4326968 24.8915168,15.4520966 26.172,14.172 C26.5820597,13.7598979 27.0768217,13.4418854 27.622,13.24 C28.5128001,12.9199993 29.4871999,12.9199993 30.378,13.24 C30.9231783,13.4418854 31.4179403,13.7598979 31.828,14.172 C32.5814872,14.9197676 33.0036573,15.9384511 33.0000236,16.9999995 Z" id="Shape" stroke="#000000" stroke-width="2" stroke-linecap="round" stroke-linejoin="round"></path>
            <path d="M45.887,18.936 C46.0376666,17.6497304 46.0376666,16.3502696 45.887,15.064 L41.687,13.264 C41.4233089,12.3673619 41.064608,11.5014511 40.617,10.681 L42.317,6.433 C41.5122354,5.41462764 40.5909586,4.4940221 39.572,3.69 L35.311,5.39 C34.7469163,5.07464147 34.1607133,4.80058992 33.557,4.57 C33.289,4.47 33.015,4.395 32.741,4.316 L30.941,0.116 C29.6547304,-0.0346666263 28.3552696,-0.0346666263 27.069,0.116 L25.269,4.316 C24.995,4.395 24.721,4.474 24.453,4.57 C23.8492867,4.80058992 23.2630837,5.07464147 22.699,5.39 L18.438,3.69 C17.4182768,4.49228551 16.4959977,5.41120837 15.69,6.428 L17.39,10.676 C16.942392,11.4964511 16.5836911,12.3623619 16.32,13.259 L12.12,15.059 C11.9693334,16.3452696 11.9693334,17.6447304 12.12,18.931 L16.32,20.731 C16.5836911,21.6276381 16.942392,22.4935489 17.39,23.314 L15.69,27.562 C16.4928836,28.5782165 17.4117835,29.4971164 18.428,30.3 L22.676,28.6 C23.4962808,29.0477063 24.3622388,29.4060915 25.259,29.669 L27.059,33.869 C28.3452696,34.0196666 29.6447304,34.0196666 30.931,33.869 L32.731,29.669 C33.6277612,29.4060915 34.4937192,29.0477063 35.314,28.6 L39.562,30.3 C40.5782165,29.4971164 41.4971164,28.5782165 42.3,27.562 L40.6,23.314 C41.047608,22.4935489 41.4063089,21.6276381 41.67,20.731 L45.887,18.936 Z" id="Shape" stroke="#000000" stroke-width="2" stroke-linecap="round" stroke-linejoin="round"></path>
            <circle id="Oval" stroke="#000000" stroke-width="2" stroke-linecap="round" stroke-linejoin="round" cx="23" cy="47" r="5"></circle>
            <path d="M33.91,48.36 C34.0299948,47.4573036 34.0299948,46.5426964 33.91,45.64 L31.749,44.919 C31.5279975,43.9887853 31.1589604,43.100125 30.656,42.287 L31.676,40.247 C31.1224582,39.5241329 30.4758671,38.8775418 29.753,38.324 L27.713,39.344 C26.899875,38.8410396 26.0112147,38.4720025 25.081,38.251 L24.36,36.09 C23.4573036,35.9700052 22.5426964,35.9700052 21.64,36.09 L20.919,38.251 C19.9887853,38.4720025 19.100125,38.8410396 18.287,39.344 L16.247,38.324 C15.5241329,38.8775418 14.8775418,39.5241329 14.324,40.247 L15.344,42.287 C14.8410396,43.100125 14.4720025,43.9887853 14.251,44.919 L12.09,45.64 C11.9700052,46.5426964 11.9700052,47.4573036 12.09,48.36 L14.251,49.081 C14.4720025,50.0112147 14.8410396,50.899875 15.344,51.713 L14.324,53.753 C14.8775418,54.4758671 15.5241329,55.1224582 16.247,55.676 L18.287,54.656 C19.100125,55.1589604 19.9887853,55.5279975 20.919,55.749 L21.64,57.91 C22.5426964,58.0299948 23.4573036,58.0299948 24.36,57.91 L25.081,55.749 C26.0112147,55.5279975 26.899875,55.1589604 27.713,54.656 L29.753,55.676 C30.4758671,55.1224582 31.1224582,54.4758671 31.676,53.753 L30.656,51.713 C31.1589604,50.899875 31.5279975,50.0112147 31.749,49.081 L33.91,48.36 Z" id="Shape" stroke="#000000" stroke-width="2" stroke-linecap="round" stroke-linejoin="round"></path>
            <path d="M23,48 C22.8693227,47.99842 22.7402223,47.971241 22.62,47.92 C22.3687697,47.8290762 22.1709238,47.6312303 22.08,47.38 C21.9733951,47.1378817 21.9733951,46.8621183 22.08,46.62 C22.1709238,46.3687697 22.3687697,46.1709238 22.62,46.08 C22.8023679,46.0000893 23.0051358,45.9791133 23.2,46.02 C23.2626625,46.0308873 23.3233376,46.0511123 23.38,46.08 C23.4437381,46.1018554 23.5042729,46.1321227 23.56,46.17 C23.6123935,46.2069128 23.6624865,46.2469872 23.71,46.29 C23.7982527,46.3872607 23.8692709,46.4988607 23.92,46.62 C24.0267285,46.8620922 24.0267285,47.1379078 23.92,47.38 C23.8692709,47.5011393 23.7982527,47.6127393 23.71,47.71 C23.6624865,47.7530128 23.6123935,47.7930872 23.56,47.83 C23.5042729,47.8678773 23.4437381,47.8981446 23.38,47.92 C23.3233376,47.9488877 23.2626625,47.9691127 23.2,47.98 C23.1339204,47.9916089 23.0670699,47.9982939 23,48 Z" id="Shape" fill="#000000" fill-rule="nonzero"></path>
        </g>
    </g>
</svg>