<?xml version="1.0" encoding="UTF-8"?>
<svg width="85px" height="85px" viewBox="0 0 85 85" version="1.1" xmlns="http://www.w3.org/2000/svg" xmlns:xlink="http://www.w3.org/1999/xlink">
    <!-- Generator: Sketch 55.2 (78181) - https://sketchapp.com -->
    <title>turtle</title>
    <desc>Created with Sketch.</desc>
    <g id="turtle" stroke="none" stroke-width="1" fill="none" fill-rule="evenodd">
        <g id="iconfinder_zoo-animal-aquarium-wild_life-animal-kingdom-turtle-sea_life-aquatic-animals_4318331" transform="translate(19.000000, 12.000000)" fill="#000000" fill-rule="nonzero">
            <path d="M41.511,41.097 C41.82,39.779 42,38.411 42,37 L42,29 C42,27.589 41.82,26.221 41.511,24.903 L46.465,19.949 C47.455,18.958 48,17.642 48,16.243 C48,13.352 45.648,11 42.758,11 C41.357,11 40.04,11.545 39.051,12.536 L35.981,15.605 C34.217,14.025 32.146,12.79 29.863,12 L30,12 L30,6 C30,2.691 27.309,0 24,0 C20.691,0 18,2.691 18,6 L18,12 L18.137,12 C15.854,12.79 13.783,14.025 12.019,15.605 L8.95,12.536 C7.96,11.545 6.644,11 5.242,11 C2.352,11 0,13.352 0,16.243 C0,17.642 0.545,18.959 1.535,19.95 L6.488,24.903 C6.18,26.221 6,27.589 6,29 L6,37 C6,38.411 6.18,39.779 6.489,41.097 L1.535,46.051 C0.545,47.042 0,48.358 0,49.757 C0,52.648 2.352,55 5.242,55 C6.643,55 7.96,54.455 8.949,53.464 L12.019,50.395 C14.292,52.431 17.075,53.904 20.16,54.577 L23.081,61.393 C23.238,61.762 23.6,62 24,62 C24.4,62 24.762,61.762 24.919,61.394 L27.84,54.578 C30.925,53.904 33.707,52.431 35.981,50.396 L39.05,53.465 C40.04,54.455 41.356,55 42.758,55 C45.648,55 48,52.648 48,49.757 C48,48.358 47.455,47.041 46.465,46.05 L41.511,41.097 Z M30.851,51.437 L28.414,49 L33.414,44 L38.365,44 C36.774,47.251 34.12,49.879 30.851,51.437 Z M9.635,44 L14.586,44 L19.586,49 L17.149,51.437 C13.88,49.879 11.226,47.251 9.635,44 Z M40,29 L40,30 L33.414,30 L28.414,25 L35.505,17.909 C38.282,20.788 40,24.694 40,29 Z M39.189,42 L33.414,42 L28.414,37 L33.414,32 L40,32 L40,37 C40,38.747 39.709,40.425 39.189,42 Z M26.586,48 L21.414,48 L16.414,43 L21.414,38 L26.586,38 L31.586,43 L26.586,48 Z M21.414,26 L26.586,26 L31.586,31 L26.586,36 L21.414,36 L16.414,31 L21.414,26 Z M26.586,24 L21.414,24 L13.968,16.554 C16.715,14.336 20.203,13 24,13 C27.797,13 31.285,14.336 34.032,16.554 L26.586,24 Z M12.495,17.909 L19.586,25 L14.586,30 L9.414,30 L8.02,28.606 C8.122,24.457 9.804,20.699 12.495,17.909 Z M8,31.414 L8.293,31.707 C8.48,31.895 8.734,32 9,32 L14.586,32 L19.586,37 L14.586,42 L8.811,42 C8.291,40.425 8,38.747 8,37 L8,31.414 Z M21.414,50 L26.586,50 L28.835,52.249 C27.309,52.734 25.685,53 24,53 C22.315,53 20.691,52.734 19.165,52.249 L21.414,50 Z M40.466,13.949 C41.077,13.337 41.891,13 42.758,13 C44.546,13 46,14.455 46,16.243 C46,17.109 45.663,17.923 45.051,18.536 L40.852,22.734 C40.059,20.61 38.881,18.678 37.395,17.019 L40.466,13.949 Z M20,6 C20,5.528 20.097,5.082 20.247,4.661 L21.293,5.707 L22.707,4.293 L21.4,2.986 C22.101,2.38 23.003,2 24,2 C24.997,2 25.899,2.38 26.6,2.986 L25.293,4.293 L26.707,5.707 L27.753,4.661 C27.903,5.082 28,5.528 28,6 L28,11.464 C26.711,11.17 25.376,11 24,11 C22.624,11 21.289,11.17 20,11.464 L20,6 Z M2.95,18.536 C2.337,17.923 2,17.108 2,16.243 C2,14.455 3.454,13 5.242,13 C6.109,13 6.923,13.337 7.535,13.95 L10.605,17.019 C9.119,18.678 7.941,20.61 7.148,22.734 L2.95,18.536 Z M7.534,52.051 C6.923,52.663 6.109,53 5.242,53 C3.454,53 2,51.545 2,49.757 C2,48.891 2.337,48.077 2.949,47.464 L7.148,43.266 C7.941,45.39 9.119,47.322 10.605,48.981 L7.534,52.051 Z M24,58.461 L22.484,54.923 C22.985,54.965 23.488,55 24,55 C24.512,55 25.015,54.965 25.516,54.923 L24,58.461 Z M42.758,53 C41.891,53 41.077,52.663 40.465,52.05 L37.395,48.981 C38.881,47.322 40.059,45.39 40.852,43.266 L45.05,47.464 C45.663,48.077 46,48.892 46,49.757 C46,51.545 44.546,53 42.758,53 Z" id="Shape"></path>
        </g>
    </g>
</svg>